<?xml version="1.0" encoding="utf-8" standalone="no"?>
<!DOCTYPE svg PUBLIC "-//W3C//DTD SVG 1.1//EN"
  "http://www.w3.org/Graphics/SVG/1.1/DTD/svg11.dtd">
<svg xmlns:xlink="http://www.w3.org/1999/xlink" width="493.238437pt" height="186.252422pt" viewBox="0 0 493.238437 186.252422" xmlns="http://www.w3.org/2000/svg" version="1.1">
 <metadata>
  <rdf:RDF xmlns:dc="http://purl.org/dc/elements/1.1/" xmlns:cc="http://creativecommons.org/ns#" xmlns:rdf="http://www.w3.org/1999/02/22-rdf-syntax-ns#">
   <cc:Work>
    <dc:type rdf:resource="http://purl.org/dc/dcmitype/StillImage"/>
    <dc:date>2026-06-19T16:51:41.672245</dc:date>
    <dc:format>image/svg+xml</dc:format>
    <dc:creator>
     <cc:Agent>
      <dc:title>Matplotlib v3.11.0, https://matplotlib.org/</dc:title>
     </cc:Agent>
    </dc:creator>
   </cc:Work>
  </rdf:RDF>
 </metadata>
 <defs>
  <style type="text/css">*{stroke-linejoin: round; stroke-linecap: butt}</style>
 </defs>
 <g id="figure_1">
  <g id="patch_1">
   <path d="M 0 186.252422 
L 493.238437 186.252422 
L 493.238437 0 
L 0 0 
z
" style="fill: #fefcf8"/>
  </g>
  <g id="axes_1">
   <g id="patch_2">
    <path d="M 77.878438 153.061797 
L 486.038437 153.061797 
L 486.038437 7.2 
L 77.878438 7.2 
z
" style="fill: #fefcf8"/>
   </g>
   <g id="matplotlib.axis_1">
    <g id="xtick_1">
     <g id="line2d_1">
      <path d="M 77.878438 153.061797 
L 77.878438 7.2 
" clip-path="url(#pb7efefe4b7)" style="fill: none; stroke: #758d99; stroke-opacity: 0.4; stroke-width: 0.4; stroke-linecap: square"/>
     </g>
     <g id="line2d_2"/>
     <g id="text_1">
      <!-- 0 -->
      <g style="fill: #121212" transform="translate(75.378438 163.495391) scale(0.1 -0.1)">
       <defs>
        <path id="LiberationSerif-13" d="M 2956 2113 
Q 2956 -63 1581 -63 
Q 919 -63 581 493 
Q 244 1050 244 2113 
Q 244 3153 581 3704 
Q 919 4256 1606 4256 
Q 2269 4256 2612 3711 
Q 2956 3166 2956 2113 
z
M 2381 2113 
Q 2381 3119 2190 3562 
Q 2000 4006 1581 4006 
Q 1175 4006 997 3587 
Q 819 3169 819 2113 
Q 819 1050 1000 617 
Q 1181 184 1581 184 
Q 1994 184 2187 639 
Q 2381 1094 2381 2113 
z
" transform="scale(0.015625)"/>
       </defs>
       <use xlink:href="#LiberationSerif-13"/>
      </g>
     </g>
    </g>
    <g id="xtick_2">
     <g id="line2d_3">
      <path d="M 134.57717 153.061797 
L 134.57717 7.2 
" clip-path="url(#pb7efefe4b7)" style="fill: none; stroke: #758d99; stroke-opacity: 0.4; stroke-width: 0.4; stroke-linecap: square"/>
     </g>
     <g id="line2d_4"/>
     <g id="text_2">
      <!-- 10 -->
      <g style="fill: #121212" transform="translate(129.57717 163.495391) scale(0.1 -0.1)">
       <defs>
        <path id="LiberationSerif-14" d="M 1959 250 
L 2816 166 
L 2816 0 
L 563 0 
L 563 166 
L 1422 250 
L 1422 3669 
L 575 3366 
L 575 3531 
L 1797 4225 
L 1959 4225 
L 1959 250 
z
" transform="scale(0.015625)"/>
       </defs>
       <use xlink:href="#LiberationSerif-14"/>
       <use xlink:href="#LiberationSerif-13" transform="translate(50 0)"/>
      </g>
     </g>
    </g>
    <g id="xtick_3">
     <g id="line2d_5">
      <path d="M 191.275902 153.061797 
L 191.275902 7.2 
" clip-path="url(#pb7efefe4b7)" style="fill: none; stroke: #758d99; stroke-opacity: 0.4; stroke-width: 0.4; stroke-linecap: square"/>
     </g>
     <g id="line2d_6"/>
     <g id="text_3">
      <!-- 20 -->
      <g style="fill: #121212" transform="translate(186.275902 163.495391) scale(0.1 -0.1)">
       <defs>
        <path id="LiberationSerif-15" d="M 2847 0 
L 281 0 
L 281 459 
L 863 988 
Q 1422 1478 1684 1781 
Q 1947 2084 2061 2406 
Q 2175 2728 2175 3144 
Q 2175 3550 1990 3762 
Q 1806 3975 1388 3975 
Q 1222 3975 1047 3929 
Q 872 3884 738 3809 
L 628 3297 
L 422 3297 
L 422 4103 
Q 991 4238 1388 4238 
Q 2075 4238 2420 3952 
Q 2766 3666 2766 3144 
Q 2766 2794 2630 2483 
Q 2494 2172 2212 1864 
Q 1931 1556 1281 1003 
Q 1003 766 691 481 
L 2847 481 
L 2847 0 
z
" transform="scale(0.015625)"/>
       </defs>
       <use xlink:href="#LiberationSerif-15"/>
       <use xlink:href="#LiberationSerif-13" transform="translate(50 0)"/>
      </g>
     </g>
    </g>
    <g id="xtick_4">
     <g id="line2d_7">
      <path d="M 247.974635 153.061797 
L 247.974635 7.2 
" clip-path="url(#pb7efefe4b7)" style="fill: none; stroke: #758d99; stroke-opacity: 0.4; stroke-width: 0.4; stroke-linecap: square"/>
     </g>
     <g id="line2d_8"/>
     <g id="text_4">
      <!-- 30 -->
      <g style="fill: #121212" transform="translate(242.974635 163.495391) scale(0.1 -0.1)">
       <defs>
        <path id="LiberationSerif-16" d="M 2950 1141 
Q 2950 575 2562 256 
Q 2175 -63 1466 -63 
Q 872 -63 341 72 
L 306 953 
L 513 953 
L 653 366 
Q 775 297 998 247 
Q 1222 197 1416 197 
Q 1906 197 2140 422 
Q 2375 647 2375 1172 
Q 2375 1584 2159 1798 
Q 1944 2013 1491 2034 
L 1044 2059 
L 1044 2316 
L 1491 2344 
Q 1844 2363 2012 2563 
Q 2181 2763 2181 3169 
Q 2181 3591 1998 3783 
Q 1816 3975 1416 3975 
Q 1250 3975 1069 3929 
Q 888 3884 750 3809 
L 641 3297 
L 434 3297 
L 434 4103 
Q 744 4184 969 4211 
Q 1194 4238 1416 4238 
Q 2759 4238 2759 3206 
Q 2759 2772 2520 2514 
Q 2281 2256 1844 2194 
Q 2413 2128 2681 1867 
Q 2950 1606 2950 1141 
z
" transform="scale(0.015625)"/>
       </defs>
       <use xlink:href="#LiberationSerif-16"/>
       <use xlink:href="#LiberationSerif-13" transform="translate(50 0)"/>
      </g>
     </g>
    </g>
    <g id="xtick_5">
     <g id="line2d_9">
      <path d="M 304.673367 153.061797 
L 304.673367 7.2 
" clip-path="url(#pb7efefe4b7)" style="fill: none; stroke: #758d99; stroke-opacity: 0.4; stroke-width: 0.4; stroke-linecap: square"/>
     </g>
     <g id="line2d_10"/>
     <g id="text_5">
      <!-- 40 -->
      <g style="fill: #121212" transform="translate(299.673367 163.495391) scale(0.1 -0.1)">
       <defs>
        <path id="LiberationSerif-17" d="M 2531 922 
L 2531 0 
L 1994 0 
L 1994 922 
L 125 922 
L 125 1338 
L 2172 4213 
L 2531 4213 
L 2531 1369 
L 3100 1369 
L 3100 922 
L 2531 922 
z
M 1994 3478 
L 1978 3478 
L 478 1369 
L 1994 1369 
L 1994 3478 
z
" transform="scale(0.015625)"/>
       </defs>
       <use xlink:href="#LiberationSerif-17"/>
       <use xlink:href="#LiberationSerif-13" transform="translate(50 0)"/>
      </g>
     </g>
    </g>
    <g id="xtick_6">
     <g id="line2d_11">
      <path d="M 361.3721 153.061797 
L 361.3721 7.2 
" clip-path="url(#pb7efefe4b7)" style="fill: none; stroke: #758d99; stroke-opacity: 0.4; stroke-width: 0.4; stroke-linecap: square"/>
     </g>
     <g id="line2d_12"/>
     <g id="text_6">
      <!-- 50 -->
      <g style="fill: #121212" transform="translate(356.3721 163.495391) scale(0.1 -0.1)">
       <defs>
        <path id="LiberationSerif-18" d="M 1516 2450 
Q 2241 2450 2595 2153 
Q 2950 1856 2950 1247 
Q 2950 616 2565 276 
Q 2181 -63 1466 -63 
Q 872 -63 406 72 
L 372 953 
L 578 953 
L 719 366 
Q 856 291 1048 244 
Q 1241 197 1416 197 
Q 1909 197 2142 430 
Q 2375 663 2375 1216 
Q 2375 1603 2275 1801 
Q 2175 2000 1956 2094 
Q 1738 2188 1369 2188 
Q 1084 2188 813 2113 
L 513 2113 
L 513 4191 
L 2638 4191 
L 2638 3713 
L 794 3713 
L 794 2375 
Q 1131 2450 1516 2450 
z
" transform="scale(0.015625)"/>
       </defs>
       <use xlink:href="#LiberationSerif-18"/>
       <use xlink:href="#LiberationSerif-13" transform="translate(50 0)"/>
      </g>
     </g>
    </g>
    <g id="xtick_7">
     <g id="line2d_13">
      <path d="M 418.070832 153.061797 
L 418.070832 7.2 
" clip-path="url(#pb7efefe4b7)" style="fill: none; stroke: #758d99; stroke-opacity: 0.4; stroke-width: 0.4; stroke-linecap: square"/>
     </g>
     <g id="line2d_14"/>
     <g id="text_7">
      <!-- 60 -->
      <g style="fill: #121212" transform="translate(413.070832 163.495391) scale(0.1 -0.1)">
       <defs>
        <path id="LiberationSerif-19" d="M 3009 1300 
Q 3009 647 2679 292 
Q 2350 -63 1728 -63 
Q 1022 -63 648 487 
Q 275 1038 275 2069 
Q 275 2744 472 3234 
Q 669 3725 1023 3981 
Q 1378 4238 1844 4238 
Q 2300 4238 2753 4128 
L 2753 3406 
L 2547 3406 
L 2438 3834 
Q 2334 3891 2159 3933 
Q 1984 3975 1844 3975 
Q 1388 3975 1133 3533 
Q 878 3091 853 2241 
Q 1363 2509 1875 2509 
Q 2428 2509 2718 2198 
Q 3009 1888 3009 1300 
z
M 1716 184 
Q 2094 184 2262 429 
Q 2431 675 2431 1241 
Q 2431 1753 2270 1981 
Q 2109 2209 1759 2209 
Q 1331 2209 850 2053 
Q 850 1100 1065 642 
Q 1281 184 1716 184 
z
" transform="scale(0.015625)"/>
       </defs>
       <use xlink:href="#LiberationSerif-19"/>
       <use xlink:href="#LiberationSerif-13" transform="translate(50 0)"/>
      </g>
     </g>
    </g>
    <g id="xtick_8">
     <g id="line2d_15">
      <path d="M 474.769564 153.061797 
L 474.769564 7.2 
" clip-path="url(#pb7efefe4b7)" style="fill: none; stroke: #758d99; stroke-opacity: 0.4; stroke-width: 0.4; stroke-linecap: square"/>
     </g>
     <g id="line2d_16"/>
     <g id="text_8">
      <!-- 70 -->
      <g style="fill: #121212" transform="translate(469.769564 163.495391) scale(0.1 -0.1)">
       <defs>
        <path id="LiberationSerif-1a" d="M 628 3200 
L 422 3200 
L 422 4191 
L 3016 4191 
L 3016 3950 
L 1147 0 
L 744 0 
L 2578 3713 
L 738 3713 
L 628 3200 
z
" transform="scale(0.015625)"/>
       </defs>
       <use xlink:href="#LiberationSerif-1a"/>
       <use xlink:href="#LiberationSerif-13" transform="translate(50 0)"/>
      </g>
     </g>
    </g>
    <g id="text_9">
     <!-- Margem de contribuição (R$/un) — preço médio R$ 114 -->
     <g style="fill: #121212" transform="translate(169.109219 176.894219) scale(0.1 -0.1)">
      <defs>
       <path id="LiberationSerif-Italic-30" d="M 2253 0 
L 2144 0 
L 1422 3603 
L 831 250 
L 1381 166 
L 1350 0 
L -75 0 
L -44 166 
L 503 250 
L 1156 3944 
L 631 4025 
L 663 4191 
L 1856 4191 
L 2500 994 
L 4369 4191 
L 5625 4191 
L 5594 4025 
L 5044 3944 
L 4391 250 
L 4916 166 
L 4884 0 
L 3184 0 
L 3216 166 
L 3791 250 
L 4381 3603 
L 2253 0 
z
" transform="scale(0.015625)"/>
       <path id="LiberationSerif-Italic-44" d="M 2466 219 
L 2819 141 
L 2794 0 
L 1903 0 
L 1994 488 
Q 1466 -66 1028 -66 
Q 650 -66 420 212 
Q 191 491 191 978 
Q 191 1525 430 2001 
Q 669 2478 1069 2745 
Q 1469 3013 1938 3013 
Q 2316 3013 2650 2881 
L 2791 2988 
L 2959 2988 
L 2466 219 
z
M 2375 2616 
Q 2253 2700 2147 2733 
Q 2041 2766 1884 2766 
Q 1572 2766 1311 2530 
Q 1050 2294 900 1894 
Q 750 1494 750 1059 
Q 750 725 887 525 
Q 1025 325 1263 325 
Q 1616 325 2034 759 
L 2375 2616 
z
" transform="scale(0.015625)"/>
       <path id="LiberationSerif-Italic-55" d="M 2263 3016 
Q 2419 3016 2509 2991 
L 2372 2222 
L 2238 2222 
L 2119 2619 
Q 1869 2619 1601 2428 
Q 1334 2238 1113 1925 
L 778 0 
L 259 0 
L 738 2719 
L 369 2797 
L 394 2938 
L 1259 2938 
L 1163 2275 
Q 1397 2628 1686 2822 
Q 1975 3016 2263 3016 
z
" transform="scale(0.015625)"/>
       <path id="LiberationSerif-Italic-4a" d="M 1306 325 
Q 1481 325 1695 440 
Q 1909 556 2113 759 
L 2456 2691 
Q 2381 2709 2322 2725 
Q 2263 2741 2205 2750 
Q 2147 2759 2081 2764 
Q 2016 2769 1931 2769 
Q 1619 2769 1350 2534 
Q 1081 2300 928 1903 
Q 775 1506 775 1059 
Q 775 722 914 523 
Q 1053 325 1306 325 
z
M 2069 500 
Q 1844 253 1567 93 
Q 1291 -66 1069 -66 
Q 672 -66 444 214 
Q 216 494 216 978 
Q 216 1525 455 1995 
Q 694 2466 1101 2739 
Q 1509 3013 1988 3013 
Q 2175 3013 2476 2977 
Q 2778 2941 3013 2884 
L 2488 -109 
Q 2372 -769 2036 -1066 
Q 1700 -1363 1044 -1363 
Q 769 -1363 475 -1298 
Q 181 -1234 3 -1141 
L 59 -428 
L 200 -428 
L 313 -822 
Q 566 -1069 1041 -1069 
Q 1422 -1069 1647 -870 
Q 1872 -672 1947 -234 
L 2069 500 
z
" transform="scale(0.015625)"/>
       <path id="LiberationSerif-Italic-48" d="M 2697 2375 
Q 2697 1950 2172 1650 
Q 1647 1350 763 1291 
L 750 1063 
Q 750 666 917 464 
Q 1084 263 1413 263 
Q 1694 263 1931 358 
Q 2169 453 2375 575 
L 2466 444 
Q 2178 200 1858 68 
Q 1538 -63 1250 -63 
Q 744 -63 470 220 
Q 197 503 197 1031 
Q 197 1553 417 2004 
Q 638 2456 1028 2736 
Q 1419 3016 1847 3016 
Q 2231 3016 2464 2839 
Q 2697 2663 2697 2375 
z
M 788 1488 
Q 1406 1534 1778 1778 
Q 2150 2022 2150 2375 
Q 2150 2550 2054 2662 
Q 1959 2775 1778 2775 
Q 1559 2775 1353 2597 
Q 1147 2419 997 2119 
Q 847 1819 788 1488 
z
" transform="scale(0.015625)"/>
       <path id="LiberationSerif-Italic-50" d="M 2728 2331 
Q 2941 2634 3209 2825 
Q 3478 3016 3725 3016 
Q 3988 3016 4139 2848 
Q 4291 2681 4291 2366 
Q 4291 2297 4277 2186 
Q 4263 2075 3944 219 
L 4353 141 
L 4325 0 
L 3384 0 
L 3706 1819 
Q 3778 2197 3778 2338 
Q 3778 2478 3712 2564 
Q 3647 2650 3506 2650 
Q 3369 2650 3178 2519 
Q 2988 2388 2833 2183 
Q 2678 1978 2647 1800 
L 2338 0 
L 1819 0 
L 2138 1819 
Q 2216 2228 2216 2338 
Q 2216 2478 2147 2564 
Q 2078 2650 1931 2650 
Q 1794 2650 1594 2511 
Q 1394 2372 1241 2173 
Q 1088 1975 1059 1800 
L 750 0 
L 231 0 
L 709 2719 
L 341 2797 
L 366 2938 
L 1234 2938 
L 1147 2331 
Q 1366 2641 1637 2828 
Q 1909 3016 2150 3016 
Q 2425 3016 2576 2842 
Q 2728 2669 2728 2331 
z
" transform="scale(0.015625)"/>
       <path id="LiberationSerif-Italic-3" transform="scale(0.015625)"/>
       <path id="LiberationSerif-Italic-47" d="M 2447 2941 
Q 2459 3091 2659 4225 
L 2178 4300 
L 2203 4441 
L 3216 4441 
L 2466 219 
L 2819 141 
L 2794 0 
L 1903 0 
L 1994 488 
Q 1466 -66 1028 -66 
Q 644 -66 419 223 
Q 194 513 194 991 
Q 194 1525 423 1995 
Q 653 2466 1053 2739 
Q 1453 3013 1931 3013 
Q 2225 3013 2447 2941 
z
M 2375 2616 
Q 2266 2688 2150 2728 
Q 2034 2769 1869 2769 
Q 1575 2769 1319 2537 
Q 1063 2306 906 1900 
Q 750 1494 750 1059 
Q 750 725 887 525 
Q 1025 325 1259 325 
Q 1434 325 1639 439 
Q 1844 553 2034 759 
L 2375 2616 
z
" transform="scale(0.015625)"/>
       <path id="LiberationSerif-Italic-46" d="M 2419 444 
Q 2166 209 1850 73 
Q 1534 -63 1250 -63 
Q 747 -63 472 228 
Q 197 519 197 1031 
Q 197 1575 415 2023 
Q 634 2472 1039 2744 
Q 1444 3016 1888 3016 
Q 2109 3016 2359 2969 
Q 2609 2922 2772 2853 
L 2631 2034 
L 2459 2034 
L 2409 2578 
Q 2213 2775 1884 2775 
Q 1584 2775 1323 2553 
Q 1063 2331 906 1934 
Q 750 1538 750 1063 
Q 750 263 1394 263 
Q 1841 263 2325 575 
L 2419 444 
z
" transform="scale(0.015625)"/>
       <path id="LiberationSerif-Italic-52" d="M 741 1063 
Q 741 641 905 417 
Q 1069 194 1363 194 
Q 1647 194 1905 422 
Q 2163 650 2313 1045 
Q 2463 1441 2463 1894 
Q 2463 2325 2298 2548 
Q 2134 2772 1828 2772 
Q 1544 2772 1289 2544 
Q 1034 2316 887 1920 
Q 741 1525 741 1063 
z
M 1334 -63 
Q 816 -63 503 270 
Q 191 603 191 1169 
Q 191 1672 406 2100 
Q 622 2528 1005 2772 
Q 1388 3016 1866 3016 
Q 2384 3016 2696 2683 
Q 3009 2350 3009 1784 
Q 3009 1281 2793 853 
Q 2578 425 2195 181 
Q 1813 -63 1334 -63 
z
" transform="scale(0.015625)"/>
       <path id="LiberationSerif-Italic-51" d="M 2359 2338 
Q 2359 2478 2284 2565 
Q 2209 2653 2047 2653 
Q 1816 2653 1542 2456 
Q 1269 2259 1091 1969 
L 747 0 
L 228 0 
L 706 2722 
L 338 2800 
L 363 2941 
L 1231 2941 
L 1147 2341 
Q 1409 2678 1690 2847 
Q 1972 3016 2244 3016 
Q 2559 3016 2718 2845 
Q 2878 2675 2878 2356 
Q 2878 2313 2865 2222 
Q 2853 2131 2525 216 
L 2934 141 
L 2909 0 
L 1969 0 
L 2288 1819 
Q 2359 2216 2359 2338 
z
" transform="scale(0.015625)"/>
       <path id="LiberationSerif-Italic-57" d="M 825 544 
Q 825 403 895 333 
Q 966 263 1075 263 
Q 1303 263 1550 356 
L 1616 209 
Q 1231 -63 838 -63 
Q 591 -63 448 87 
Q 306 238 306 506 
Q 306 597 323 720 
Q 341 844 666 2675 
L 281 2675 
L 306 2816 
L 722 2938 
L 1150 3603 
L 1350 3603 
L 1234 2938 
L 1906 2938 
L 1856 2675 
L 1184 2675 
L 881 959 
Q 825 672 825 544 
z
" transform="scale(0.015625)"/>
       <path id="LiberationSerif-Italic-4c" d="M 913 219 
L 1403 141 
L 1378 0 
L 356 0 
L 834 2719 
L 431 2797 
L 456 2938 
L 1391 2938 
L 913 219 
z
M 1584 3897 
Q 1584 3759 1484 3659 
Q 1384 3559 1244 3559 
Q 1106 3559 1006 3659 
Q 906 3759 906 3897 
Q 906 4038 1006 4138 
Q 1106 4238 1244 4238 
Q 1384 4238 1484 4138 
Q 1584 4038 1584 3897 
z
" transform="scale(0.015625)"/>
       <path id="LiberationSerif-Italic-45" d="M 953 4225 
L 538 4300 
L 563 4441 
L 1500 4441 
L 1269 3063 
Q 1216 2706 1147 2459 
Q 1397 2716 1661 2866 
Q 1925 3016 2147 3016 
Q 2538 3016 2772 2736 
Q 3006 2456 3006 1972 
Q 3006 1434 2773 957 
Q 2541 481 2131 209 
Q 1722 -63 1238 -63 
Q 963 -63 698 7 
Q 434 78 238 200 
L 953 4225 
z
M 775 334 
Q 956 184 1278 184 
Q 1597 184 1867 420 
Q 2138 656 2292 1054 
Q 2447 1453 2447 1891 
Q 2447 2241 2301 2433 
Q 2156 2625 1913 2625 
Q 1728 2625 1514 2503 
Q 1300 2381 1106 2191 
L 775 334 
z
" transform="scale(0.015625)"/>
       <path id="LiberationSerif-Italic-58" d="M 838 603 
Q 838 463 913 375 
Q 988 288 1150 288 
Q 1384 288 1656 483 
Q 1928 678 2103 963 
L 2450 2938 
L 2969 2938 
L 2491 219 
L 2859 141 
L 2834 0 
L 1966 0 
L 2050 603 
Q 1791 269 1509 97 
Q 1228 -75 953 -75 
Q 638 -75 478 95 
Q 319 266 319 584 
Q 319 631 336 751 
Q 353 872 672 2722 
L 325 2797 
L 350 2938 
L 1228 2938 
L 909 1122 
Q 838 728 838 603 
z
" transform="scale(0.015625)"/>
       <path id="LiberationSerif-Italic-a9" d="M 2419 444 
Q 2166 209 1850 73 
Q 1534 -63 1250 -63 
Q 747 -63 472 228 
Q 197 519 197 1031 
Q 197 1575 415 2023 
Q 634 2472 1039 2744 
Q 1444 3016 1888 3016 
Q 2109 3016 2359 2969 
Q 2609 2922 2772 2853 
L 2631 2034 
L 2459 2034 
L 2409 2578 
Q 2213 2775 1884 2775 
Q 1584 2775 1323 2553 
Q 1063 2331 906 1934 
Q 750 1538 750 1063 
Q 750 263 1394 263 
Q 1841 263 2325 575 
L 2419 444 
z
M 1753 -663 
Q 1753 -969 1529 -1151 
Q 1306 -1334 881 -1334 
Q 656 -1334 465 -1269 
L 537 -1034 
Q 687 -1084 840 -1084 
Q 1031 -1084 1149 -998 
Q 1268 -913 1268 -734 
Q 1268 -597 1162 -505 
Q 1056 -413 853 -394 
L 1065 84 
L 1334 84 
L 1231 -172 
Q 1481 -197 1617 -325 
Q 1753 -453 1753 -663 
z
" transform="scale(0.015625)"/>
       <path id="LiberationSerif-Italic-a5" d="M 2466 219 
L 2819 141 
L 2794 0 
L 1903 0 
L 1994 488 
Q 1466 -66 1028 -66 
Q 650 -66 420 212 
Q 191 491 191 978 
Q 191 1525 430 2001 
Q 669 2478 1069 2745 
Q 1469 3013 1938 3013 
Q 2316 3013 2650 2881 
L 2791 2988 
L 2959 2988 
L 2466 219 
z
M 2375 2616 
Q 2253 2700 2147 2733 
Q 2041 2766 1884 2766 
Q 1572 2766 1311 2530 
Q 1050 2294 900 1894 
Q 750 1494 750 1059 
Q 750 725 887 525 
Q 1025 325 1263 325 
Q 1616 325 2034 759 
L 2375 2616 
z
M 2438 3497 
Q 2288 3497 2173 3564 
Q 2059 3631 1961 3714 
Q 1863 3797 1770 3864 
Q 1678 3931 1575 3931 
Q 1475 3931 1411 3895 
Q 1347 3859 1301 3796 
Q 1256 3734 1197 3559 
L 1034 3559 
Q 1134 3956 1317 4136 
Q 1500 4316 1778 4316 
Q 1928 4316 2043 4248 
Q 2159 4181 2257 4098 
Q 2356 4016 2448 3948 
Q 2541 3881 2641 3881 
Q 2772 3881 2859 3956 
Q 2947 4031 3019 4250 
L 3181 4250 
Q 3081 3859 2898 3678 
Q 2716 3497 2438 3497 
z
" transform="scale(0.015625)"/>
       <path id="LiberationSerif-Italic-b" d="M 784 409 
Q 784 -650 1484 -1100 
L 1438 -1363 
Q 791 -984 508 -503 
Q 225 -22 225 666 
Q 225 1216 367 1852 
Q 509 2488 767 2956 
Q 1025 3425 1422 3776 
Q 1819 4128 2459 4441 
L 2413 4178 
Q 1997 3959 1715 3626 
Q 1434 3294 1250 2847 
Q 1066 2400 925 1631 
Q 784 863 784 409 
z
" transform="scale(0.015625)"/>
       <path id="LiberationSerif-Italic-35" d="M 1388 1838 
L 1106 250 
L 1666 166 
L 1634 0 
L -34 0 
L -3 166 
L 503 250 
L 1156 3944 
L 631 4025 
L 663 4191 
L 2325 4191 
Q 3009 4191 3368 3931 
Q 3728 3672 3728 3175 
Q 3728 2188 2634 1925 
L 3344 250 
L 3803 166 
L 3772 0 
L 2809 0 
L 2041 1838 
L 1388 1838 
z
M 1925 2119 
Q 2494 2119 2801 2389 
Q 3109 2659 3109 3156 
Q 3109 3909 2216 3909 
L 1753 3909 
L 1438 2119 
L 1925 2119 
z
" transform="scale(0.015625)"/>
       <path id="LiberationSerif-Italic-7" d="M 238 1159 
L 441 1159 
L 444 563 
Q 559 397 781 297 
Q 1003 197 1263 191 
L 1581 1994 
Q 1163 2203 992 2347 
Q 822 2491 723 2670 
Q 625 2850 625 3094 
Q 625 3634 969 3925 
Q 1313 4216 1975 4234 
L 2047 4634 
L 2303 4634 
L 2231 4234 
Q 2678 4225 3097 4119 
L 2944 3247 
L 2741 3247 
L 2725 3781 
Q 2531 3938 2184 3969 
L 1919 2459 
Q 2372 2216 2548 2062 
Q 2725 1909 2831 1721 
Q 2938 1534 2938 1294 
Q 2938 684 2570 335 
Q 2203 -13 1475 -56 
L 1400 -488 
L 1144 -488 
L 1219 -63 
Q 516 -50 75 228 
L 238 1159 
z
M 2381 1184 
Q 2381 1338 2325 1455 
Q 2269 1572 2158 1667 
Q 2047 1763 1819 1878 
L 1522 206 
Q 1944 259 2162 511 
Q 2381 763 2381 1184 
z
M 1172 3203 
Q 1172 3013 1289 2864 
Q 1406 2716 1681 2572 
L 1928 3969 
Q 1566 3941 1369 3742 
Q 1172 3544 1172 3203 
z
" transform="scale(0.015625)"/>
       <path id="LiberationSerif-Italic-12" d="M 50 -63 
L -294 -63 
L 1928 4219 
L 2266 4219 
L 50 -63 
z
" transform="scale(0.015625)"/>
       <path id="LiberationSerif-Italic-c" d="M -303 -1363 
L -256 -1100 
Q 153 -884 429 -556 
Q 706 -228 887 200 
Q 1069 628 1219 1393 
Q 1369 2159 1369 2669 
Q 1369 3213 1195 3583 
Q 1022 3953 669 4178 
L 716 4441 
Q 1378 4047 1656 3572 
Q 1934 3097 1934 2413 
Q 1934 1891 1792 1250 
Q 1650 609 1390 132 
Q 1131 -344 731 -698 
Q 331 -1053 -303 -1363 
z
" transform="scale(0.015625)"/>
       <path id="LiberationSerif-Italic-7e0" d="M 5722 1650 
L 5722 1331 
L -44 1331 
L -44 1650 
L 5722 1650 
z
" transform="scale(0.015625)"/>
       <path id="LiberationSerif-Italic-53" d="M 728 6 
L 694 -275 
L 544 -1141 
L 1044 -1216 
L 1019 -1363 
L -375 -1363 
L -350 -1216 
L 28 -1141 
L 713 2719 
L 391 2797 
L 416 2938 
L 1244 2938 
L 1184 2463 
Q 1731 3016 2169 3016 
Q 2547 3016 2776 2737 
Q 3006 2459 3006 1972 
Q 3006 1422 2772 948 
Q 2538 475 2134 206 
Q 1731 -63 1259 -63 
Q 1116 -63 961 -42 
Q 806 -22 728 6 
z
M 803 334 
Q 997 184 1328 184 
Q 1638 184 1889 412 
Q 2141 641 2294 1052 
Q 2447 1463 2447 1891 
Q 2447 2238 2308 2431 
Q 2169 2625 1934 2625 
Q 1769 2625 1544 2503 
Q 1319 2381 1144 2191 
L 803 334 
z
" transform="scale(0.015625)"/>
       <path id="LiberationSerif-Italic-ab" d="M 2697 2375 
Q 2697 1950 2172 1650 
Q 1647 1350 763 1291 
L 750 1063 
Q 750 666 917 464 
Q 1084 263 1413 263 
Q 1694 263 1931 358 
Q 2169 453 2375 575 
L 2466 444 
Q 2178 200 1858 68 
Q 1538 -63 1250 -63 
Q 744 -63 470 220 
Q 197 503 197 1031 
Q 197 1553 417 2004 
Q 638 2456 1028 2736 
Q 1419 3016 1847 3016 
Q 2231 3016 2464 2839 
Q 2697 2663 2697 2375 
z
M 788 1488 
Q 1406 1534 1778 1778 
Q 2150 2022 2150 2375 
Q 2150 2550 2054 2662 
Q 1959 2775 1778 2775 
Q 1559 2775 1353 2597 
Q 1147 2419 997 2119 
Q 847 1819 788 1488 
z
M 1628 3494 
L 1644 3597 
L 2406 4447 
L 3072 4447 
L 3053 4331 
L 1800 3494 
L 1628 3494 
z
" transform="scale(0.015625)"/>
       <path id="LiberationSerif-Italic-14" d="M 1669 250 
L 2513 166 
L 2481 0 
L 228 0 
L 259 166 
L 1131 250 
L 1734 3669 
L 834 3366 
L 866 3531 
L 2209 4225 
L 2372 4225 
L 1669 250 
z
" transform="scale(0.015625)"/>
       <path id="LiberationSerif-Italic-17" d="M 2356 963 
L 2184 0 
L 1678 0 
L 1850 963 
L 16 963 
L 78 1338 
L 2425 4213 
L 2925 4213 
L 2425 1369 
L 3056 1369 
L 2988 963 
L 2356 963 
z
M 2350 3688 
L 466 1369 
L 1919 1369 
L 2216 3059 
L 2350 3688 
z
" transform="scale(0.015625)"/>
      </defs>
      <use xlink:href="#LiberationSerif-Italic-30"/>
      <use xlink:href="#LiberationSerif-Italic-44" transform="translate(83.296875 0)"/>
      <use xlink:href="#LiberationSerif-Italic-55" transform="translate(133.296875 0)"/>
      <use xlink:href="#LiberationSerif-Italic-4a" transform="translate(168.515625 0)"/>
      <use xlink:href="#LiberationSerif-Italic-48" transform="translate(218.515625 0)"/>
      <use xlink:href="#LiberationSerif-Italic-50" transform="translate(262.90625 0)"/>
      <use xlink:href="#LiberationSerif-Italic-3" transform="translate(335.125 0)"/>
      <use xlink:href="#LiberationSerif-Italic-47" transform="translate(360.125 0)"/>
      <use xlink:href="#LiberationSerif-Italic-48" transform="translate(410.125 0)"/>
      <use xlink:href="#LiberationSerif-Italic-3" transform="translate(454.515625 0)"/>
      <use xlink:href="#LiberationSerif-Italic-46" transform="translate(479.515625 0)"/>
      <use xlink:href="#LiberationSerif-Italic-52" transform="translate(523.90625 0)"/>
      <use xlink:href="#LiberationSerif-Italic-51" transform="translate(573.90625 0)"/>
      <use xlink:href="#LiberationSerif-Italic-57" transform="translate(623.90625 0)"/>
      <use xlink:href="#LiberationSerif-Italic-55" transform="translate(651.6875 0)"/>
      <use xlink:href="#LiberationSerif-Italic-4c" transform="translate(690.609375 0)"/>
      <use xlink:href="#LiberationSerif-Italic-45" transform="translate(718.390625 0)"/>
      <use xlink:href="#LiberationSerif-Italic-58" transform="translate(768.390625 0)"/>
      <use xlink:href="#LiberationSerif-Italic-4c" transform="translate(818.390625 0)"/>
      <use xlink:href="#LiberationSerif-Italic-a9" transform="translate(846.171875 0)"/>
      <use xlink:href="#LiberationSerif-Italic-a5" transform="translate(890.5625 0)"/>
      <use xlink:href="#LiberationSerif-Italic-52" transform="translate(940.5625 0)"/>
      <use xlink:href="#LiberationSerif-Italic-3" transform="translate(990.5625 0)"/>
      <use xlink:href="#LiberationSerif-Italic-b" transform="translate(1015.5625 0)"/>
      <use xlink:href="#LiberationSerif-Italic-35" transform="translate(1048.859375 0)"/>
      <use xlink:href="#LiberationSerif-Italic-7" transform="translate(1109.9375 0)"/>
      <use xlink:href="#LiberationSerif-Italic-12" transform="translate(1159.9375 0)"/>
      <use xlink:href="#LiberationSerif-Italic-58" transform="translate(1187.71875 0)"/>
      <use xlink:href="#LiberationSerif-Italic-51" transform="translate(1237.71875 0)"/>
      <use xlink:href="#LiberationSerif-Italic-c" transform="translate(1287.71875 0)"/>
      <use xlink:href="#LiberationSerif-Italic-3" transform="translate(1321.015625 0)"/>
      <use xlink:href="#LiberationSerif-Italic-7e0" transform="translate(1346.015625 0)"/>
      <use xlink:href="#LiberationSerif-Italic-3" transform="translate(1434.9375 0)"/>
      <use xlink:href="#LiberationSerif-Italic-53" transform="translate(1459.9375 0)"/>
      <use xlink:href="#LiberationSerif-Italic-55" transform="translate(1509.9375 0)"/>
      <use xlink:href="#LiberationSerif-Italic-48" transform="translate(1545.15625 0)"/>
      <use xlink:href="#LiberationSerif-Italic-a9" transform="translate(1589.546875 0)"/>
      <use xlink:href="#LiberationSerif-Italic-52" transform="translate(1633.9375 0)"/>
      <use xlink:href="#LiberationSerif-Italic-3" transform="translate(1683.9375 0)"/>
      <use xlink:href="#LiberationSerif-Italic-50" transform="translate(1708.9375 0)"/>
      <use xlink:href="#LiberationSerif-Italic-ab" transform="translate(1781.15625 0)"/>
      <use xlink:href="#LiberationSerif-Italic-47" transform="translate(1825.546875 0)"/>
      <use xlink:href="#LiberationSerif-Italic-4c" transform="translate(1875.546875 0)"/>
      <use xlink:href="#LiberationSerif-Italic-52" transform="translate(1903.328125 0)"/>
      <use xlink:href="#LiberationSerif-Italic-3" transform="translate(1953.328125 0)"/>
      <use xlink:href="#LiberationSerif-Italic-35" transform="translate(1978.328125 0)"/>
      <use xlink:href="#LiberationSerif-Italic-7" transform="translate(2039.40625 0)"/>
      <use xlink:href="#LiberationSerif-Italic-3" transform="translate(2089.40625 0)"/>
      <use xlink:href="#LiberationSerif-Italic-14" transform="translate(2114.40625 0)"/>
      <use xlink:href="#LiberationSerif-Italic-14" transform="translate(2156.984375 0)"/>
      <use xlink:href="#LiberationSerif-Italic-17" transform="translate(2206.984375 0)"/>
     </g>
    </g>
   </g>
   <g id="matplotlib.axis_2">
    <g id="ytick_1">
     <g id="line2d_17"/>
     <g id="text_10">
      <!-- Canal direto -->
      <g style="fill: #121212" transform="translate(18.269297 36.41618) scale(0.105 -0.105)">
       <defs>
        <path id="LiberationSerif-26" d="M 2419 -63 
Q 1400 -63 831 492 
Q 263 1047 263 2047 
Q 263 3128 809 3683 
Q 1356 4238 2431 4238 
Q 3084 4238 3834 4078 
L 3853 3163 
L 3647 3163 
L 3553 3706 
Q 3334 3841 3045 3914 
Q 2756 3988 2456 3988 
Q 1653 3988 1284 3516 
Q 916 3044 916 2053 
Q 916 1141 1302 659 
Q 1688 178 2425 178 
Q 2781 178 3097 264 
Q 3413 350 3597 494 
L 3713 1119 
L 3916 1119 
L 3897 134 
Q 3209 -63 2419 -63 
z
" transform="scale(0.015625)"/>
        <path id="LiberationSerif-44" d="M 1453 3003 
Q 1934 3003 2161 2806 
Q 2388 2609 2388 2203 
L 2388 219 
L 2753 141 
L 2753 0 
L 1947 0 
L 1888 294 
Q 1531 -63 978 -63 
Q 225 -63 225 813 
Q 225 1106 339 1298 
Q 453 1491 703 1592 
Q 953 1694 1428 1703 
L 1869 1716 
L 1869 2175 
Q 1869 2478 1758 2622 
Q 1647 2766 1416 2766 
Q 1103 2766 844 2619 
L 738 2253 
L 563 2253 
L 563 2894 
Q 1069 3003 1453 3003 
z
M 1869 1497 
L 1459 1484 
Q 1041 1469 892 1322 
Q 744 1175 744 831 
Q 744 281 1191 281 
Q 1403 281 1558 329 
Q 1713 378 1869 453 
L 1869 1497 
z
" transform="scale(0.015625)"/>
        <path id="LiberationSerif-51" d="M 1013 2700 
Q 1253 2838 1525 2927 
Q 1797 3016 1978 3016 
Q 2359 3016 2553 2794 
Q 2747 2572 2747 2150 
L 2747 219 
L 3103 141 
L 3103 0 
L 1838 0 
L 1838 141 
L 2228 219 
L 2228 2094 
Q 2228 2353 2101 2501 
Q 1975 2650 1709 2650 
Q 1428 2650 1019 2559 
L 1019 219 
L 1416 141 
L 1416 0 
L 147 0 
L 147 141 
L 500 219 
L 500 2719 
L 147 2797 
L 147 2938 
L 984 2938 
L 1013 2700 
z
" transform="scale(0.015625)"/>
        <path id="LiberationSerif-4f" d="M 1147 219 
L 1650 141 
L 1650 0 
L 128 0 
L 128 141 
L 628 219 
L 628 4225 
L 128 4300 
L 128 4441 
L 1147 4441 
L 1147 219 
z
" transform="scale(0.015625)"/>
        <path id="LiberationSerif-3" transform="scale(0.015625)"/>
        <path id="LiberationSerif-47" d="M 2259 219 
Q 1906 -63 1434 -63 
Q 231 -63 231 1441 
Q 231 2213 572 2614 
Q 913 3016 1575 3016 
Q 1913 3016 2259 2944 
Q 2241 3047 2241 3463 
L 2241 4225 
L 1747 4300 
L 1747 4441 
L 2759 4441 
L 2759 219 
L 3122 141 
L 3122 0 
L 2297 0 
L 2259 219 
z
M 794 1441 
Q 794 847 994 555 
Q 1194 263 1606 263 
Q 1959 263 2241 384 
L 2241 2706 
Q 1963 2759 1606 2759 
Q 794 2759 794 1441 
z
" transform="scale(0.015625)"/>
        <path id="LiberationSerif-4c" d="M 1184 3897 
Q 1184 3759 1084 3659 
Q 984 3559 844 3559 
Q 706 3559 606 3659 
Q 506 3759 506 3897 
Q 506 4038 606 4138 
Q 706 4238 844 4238 
Q 984 4238 1084 4138 
Q 1184 4038 1184 3897 
z
M 1153 219 
L 1656 141 
L 1656 0 
L 134 0 
L 134 141 
L 634 219 
L 634 2719 
L 219 2797 
L 219 2938 
L 1153 2938 
L 1153 219 
z
" transform="scale(0.015625)"/>
        <path id="LiberationSerif-55" d="M 2075 3016 
L 2075 2222 
L 1941 2222 
L 1759 2566 
Q 1603 2566 1389 2523 
Q 1175 2481 1019 2413 
L 1019 219 
L 1522 141 
L 1522 0 
L 128 0 
L 128 141 
L 500 219 
L 500 2719 
L 128 2797 
L 128 2938 
L 984 2938 
L 1013 2572 
Q 1200 2728 1520 2872 
Q 1841 3016 2028 3016 
L 2075 3016 
z
" transform="scale(0.015625)"/>
        <path id="LiberationSerif-48" d="M 813 1478 
L 813 1422 
Q 813 991 908 752 
Q 1003 513 1201 388 
Q 1400 263 1722 263 
Q 1891 263 2122 291 
Q 2353 319 2503 353 
L 2503 178 
Q 2353 81 2095 9 
Q 1838 -63 1569 -63 
Q 884 -63 567 306 
Q 250 675 250 1491 
Q 250 2259 572 2637 
Q 894 3016 1491 3016 
Q 2619 3016 2619 1734 
L 2619 1478 
L 813 1478 
z
M 1491 2766 
Q 1166 2766 992 2503 
Q 819 2241 819 1728 
L 2075 1728 
Q 2075 2288 1931 2527 
Q 1788 2766 1491 2766 
z
" transform="scale(0.015625)"/>
        <path id="LiberationSerif-57" d="M 1044 -63 
Q 744 -63 595 115 
Q 447 294 447 616 
L 447 2675 
L 63 2675 
L 63 2816 
L 453 2938 
L 769 3603 
L 966 3603 
L 966 2938 
L 1638 2938 
L 1638 2675 
L 966 2675 
L 966 672 
Q 966 469 1058 366 
Q 1150 263 1300 263 
Q 1481 263 1741 313 
L 1741 109 
Q 1631 34 1425 -14 
Q 1219 -63 1044 -63 
z
" transform="scale(0.015625)"/>
        <path id="LiberationSerif-52" d="M 2956 1484 
Q 2956 -63 1581 -63 
Q 919 -63 581 334 
Q 244 731 244 1484 
Q 244 2228 581 2622 
Q 919 3016 1606 3016 
Q 2275 3016 2615 2630 
Q 2956 2244 2956 1484 
z
M 2394 1484 
Q 2394 2159 2197 2462 
Q 2000 2766 1581 2766 
Q 1172 2766 989 2475 
Q 806 2184 806 1484 
Q 806 775 992 479 
Q 1178 184 1581 184 
Q 1994 184 2194 490 
Q 2394 797 2394 1484 
z
" transform="scale(0.015625)"/>
       </defs>
       <use xlink:href="#LiberationSerif-26"/>
       <use xlink:href="#LiberationSerif-44" transform="translate(66.703125 0)"/>
       <use xlink:href="#LiberationSerif-51" transform="translate(111.09375 0)"/>
       <use xlink:href="#LiberationSerif-44" transform="translate(161.09375 0)"/>
       <use xlink:href="#LiberationSerif-4f" transform="translate(205.484375 0)"/>
       <use xlink:href="#LiberationSerif-3" transform="translate(233.265625 0)"/>
       <use xlink:href="#LiberationSerif-47" transform="translate(258.265625 0)"/>
       <use xlink:href="#LiberationSerif-4c" transform="translate(308.265625 0)"/>
       <use xlink:href="#LiberationSerif-55" transform="translate(336.046875 0)"/>
       <use xlink:href="#LiberationSerif-48" transform="translate(369.34375 0)"/>
       <use xlink:href="#LiberationSerif-57" transform="translate(413.734375 0)"/>
       <use xlink:href="#LiberationSerif-52" transform="translate(441.515625 0)"/>
      </g>
     </g>
    </g>
    <g id="ytick_2">
     <g id="line2d_18"/>
     <g id="text_11">
      <!-- Mercado Livre -->
      <g style="fill: #121212" transform="translate(7.2 83.773906) scale(0.105 -0.105)">
       <defs>
        <path id="LiberationSerif-30" d="M 2694 0 
L 2584 0 
L 1050 3603 
L 1050 250 
L 1613 166 
L 1613 0 
L 184 0 
L 184 166 
L 722 250 
L 722 3944 
L 184 4025 
L 184 4191 
L 1453 4191 
L 2816 1003 
L 4303 4191 
L 5503 4191 
L 5503 4025 
L 4966 3944 
L 4966 250 
L 5503 166 
L 5503 0 
L 3803 0 
L 3803 166 
L 4366 250 
L 4366 3603 
L 2694 0 
z
" transform="scale(0.015625)"/>
        <path id="LiberationSerif-46" d="M 2644 178 
Q 2491 66 2222 1 
Q 1953 -63 1672 -63 
Q 244 -63 244 1491 
Q 244 2225 608 2620 
Q 972 3016 1650 3016 
Q 2072 3016 2572 2919 
L 2572 2100 
L 2400 2100 
L 2266 2619 
Q 2006 2766 1644 2766 
Q 806 2766 806 1491 
Q 806 828 1061 545 
Q 1316 263 1850 263 
Q 2306 263 2644 366 
L 2644 178 
z
" transform="scale(0.015625)"/>
        <path id="LiberationSerif-2f" d="M 1972 4025 
L 1325 3944 
L 1325 269 
L 2150 269 
Q 2816 269 3128 331 
L 3322 1203 
L 3525 1203 
L 3469 0 
L 184 0 
L 184 166 
L 722 250 
L 722 3944 
L 184 4025 
L 184 4191 
L 1972 4191 
L 1972 4025 
z
" transform="scale(0.015625)"/>
        <path id="LiberationSerif-59" d="M 1741 -63 
L 1509 -63 
L 300 2719 
L 0 2797 
L 0 2938 
L 1369 2938 
L 1369 2797 
L 903 2713 
L 1759 684 
L 2578 2719 
L 2113 2797 
L 2113 2938 
L 3200 2938 
L 3200 2797 
L 2919 2731 
L 1741 -63 
z
" transform="scale(0.015625)"/>
       </defs>
       <use xlink:href="#LiberationSerif-30"/>
       <use xlink:href="#LiberationSerif-48" transform="translate(88.921875 0)"/>
       <use xlink:href="#LiberationSerif-55" transform="translate(133.3125 0)"/>
       <use xlink:href="#LiberationSerif-46" transform="translate(166.609375 0)"/>
       <use xlink:href="#LiberationSerif-44" transform="translate(211 0)"/>
       <use xlink:href="#LiberationSerif-47" transform="translate(255.390625 0)"/>
       <use xlink:href="#LiberationSerif-52" transform="translate(305.390625 0)"/>
       <use xlink:href="#LiberationSerif-3" transform="translate(355.390625 0)"/>
       <use xlink:href="#LiberationSerif-2f" transform="translate(380.390625 0)"/>
       <use xlink:href="#LiberationSerif-4c" transform="translate(441.46875 0)"/>
       <use xlink:href="#LiberationSerif-59" transform="translate(469.25 0)"/>
       <use xlink:href="#LiberationSerif-55" transform="translate(519.25 0)"/>
       <use xlink:href="#LiberationSerif-48" transform="translate(552.546875 0)"/>
      </g>
     </g>
    </g>
    <g id="ytick_3">
     <g id="line2d_19"/>
     <g id="text_12">
      <!-- Shopee -->
      <g style="fill: #121212" transform="translate(38.967422 131.131633) scale(0.105 -0.105)">
       <defs>
        <path id="LiberationSerif-36" d="M 434 1128 
L 638 1128 
L 747 563 
Q 863 416 1145 303 
Q 1428 191 1703 191 
Q 2141 191 2386 414 
Q 2631 638 2631 1031 
Q 2631 1256 2536 1403 
Q 2441 1550 2286 1651 
Q 2131 1753 1934 1823 
Q 1738 1894 1530 1966 
Q 1322 2038 1125 2125 
Q 928 2213 773 2347 
Q 619 2481 523 2679 
Q 428 2878 428 3169 
Q 428 3669 803 3953 
Q 1178 4238 1844 4238 
Q 2350 4238 2944 4103 
L 2944 3231 
L 2741 3231 
L 2631 3744 
Q 2313 3975 1844 3975 
Q 1425 3975 1189 3804 
Q 953 3634 953 3334 
Q 953 3131 1048 2997 
Q 1144 2863 1298 2767 
Q 1453 2672 1651 2603 
Q 1850 2534 2058 2461 
Q 2266 2388 2464 2295 
Q 2663 2203 2817 2061 
Q 2972 1919 3067 1714 
Q 3163 1509 3163 1209 
Q 3163 603 2791 270 
Q 2419 -63 1719 -63 
Q 1381 -63 1040 -3 
Q 700 56 434 159 
L 434 1128 
z
" transform="scale(0.015625)"/>
        <path id="LiberationSerif-4b" d="M 1019 3169 
Q 1019 2844 997 2700 
Q 1222 2828 1508 2922 
Q 1794 3016 1991 3016 
Q 2372 3016 2565 2794 
Q 2759 2572 2759 2150 
L 2759 219 
L 3116 141 
L 3116 0 
L 1850 0 
L 1850 141 
L 2241 219 
L 2241 2113 
Q 2241 2650 1722 2650 
Q 1428 2650 1019 2559 
L 1019 219 
L 1416 141 
L 1416 0 
L 128 0 
L 128 141 
L 500 219 
L 500 4225 
L 63 4300 
L 63 4441 
L 1019 4441 
L 1019 3169 
z
" transform="scale(0.015625)"/>
        <path id="LiberationSerif-53" d="M 475 2719 
L 141 2797 
L 141 2938 
L 966 2938 
L 972 2766 
Q 1103 2878 1323 2947 
Q 1544 3016 1772 3016 
Q 2334 3016 2642 2625 
Q 2950 2234 2950 1503 
Q 2950 756 2614 346 
Q 2278 -63 1644 -63 
Q 1291 -63 972 6 
Q 991 -219 991 -347 
L 991 -1141 
L 1503 -1216 
L 1503 -1363 
L 103 -1363 
L 103 -1216 
L 475 -1141 
L 475 2719 
z
M 2388 1503 
Q 2388 2103 2192 2395 
Q 1997 2688 1600 2688 
Q 1234 2688 991 2584 
L 991 238 
Q 1269 184 1600 184 
Q 2388 184 2388 1503 
z
" transform="scale(0.015625)"/>
       </defs>
       <use xlink:href="#LiberationSerif-36"/>
       <use xlink:href="#LiberationSerif-4b" transform="translate(55.609375 0)"/>
       <use xlink:href="#LiberationSerif-52" transform="translate(105.609375 0)"/>
       <use xlink:href="#LiberationSerif-53" transform="translate(155.609375 0)"/>
       <use xlink:href="#LiberationSerif-48" transform="translate(205.609375 0)"/>
       <use xlink:href="#LiberationSerif-48" transform="translate(250 0)"/>
      </g>
     </g>
    </g>
   </g>
   <g id="patch_3">
    <path d="M 77.878438 13.830082 
L 404.406437 13.830082 
L 404.406437 51.716263 
L 77.878438 51.716263 
z
" clip-path="url(#pb7efefe4b7)" style="fill: #006ba2"/>
   </g>
   <g id="patch_4">
    <path d="M 77.878438 61.187808 
L 228.016681 61.187808 
L 228.016681 99.073989 
L 77.878438 99.073989 
z
" clip-path="url(#pb7efefe4b7)" style="fill: #758d99"/>
   </g>
   <g id="patch_5">
    <path d="M 77.878438 108.545534 
L 114.619216 108.545534 
L 114.619216 146.431715 
L 77.878438 146.431715 
z
" clip-path="url(#pb7efefe4b7)" style="fill: #e3120b"/>
   </g>
   <g id="text_13">
    <!-- 57,6 -->
    <g style="fill: #121212" transform="translate(410.936998 35.311014) scale(0.11 -0.11)">
     <defs>
      <path id="LiberationSerif-Bold-18" d="M 1500 2478 
Q 2244 2478 2605 2172 
Q 2966 1866 2966 1247 
Q 2966 616 2573 276 
Q 2181 -63 1450 -63 
Q 869 -63 294 63 
L 256 1078 
L 544 1078 
L 706 406 
Q 828 338 1006 295 
Q 1184 253 1328 253 
Q 2047 253 2047 1216 
Q 2047 1716 1864 1939 
Q 1681 2163 1281 2163 
Q 1059 2163 875 2081 
L 778 2041 
L 466 2041 
L 466 4191 
L 2653 4191 
L 2653 3494 
L 813 3494 
L 813 2394 
Q 1194 2478 1500 2478 
z
" transform="scale(0.015625)"/>
      <path id="LiberationSerif-Bold-1a" d="M 638 2994 
L 366 2994 
L 366 4191 
L 3044 4191 
L 3044 3944 
L 1416 0 
L 669 0 
L 2434 3494 
L 781 3494 
L 638 2994 
z
" transform="scale(0.015625)"/>
      <path id="LiberationSerif-Bold-f" d="M 1356 331 
Q 1356 -156 1031 -492 
Q 706 -828 84 -991 
L 84 -703 
Q 281 -644 422 -547 
Q 563 -450 639 -333 
Q 716 -216 716 -109 
Q 716 -41 669 9 
Q 622 59 481 138 
Q 244 263 244 525 
Q 244 728 384 834 
Q 525 941 741 941 
Q 1006 941 1181 770 
Q 1356 600 1356 331 
z
" transform="scale(0.015625)"/>
      <path id="LiberationSerif-Bold-19" d="M 3013 1300 
Q 3013 641 2672 289 
Q 2331 -63 1703 -63 
Q 984 -63 601 484 
Q 219 1031 219 2069 
Q 219 2744 420 3234 
Q 622 3725 984 3981 
Q 1347 4238 1819 4238 
Q 2306 4238 2759 4103 
L 2759 3150 
L 2488 3150 
L 2353 3756 
Q 2138 3919 1881 3919 
Q 1569 3919 1373 3519 
Q 1178 3119 1144 2400 
Q 1484 2547 1819 2547 
Q 2391 2547 2702 2225 
Q 3013 1903 3013 1300 
z
M 1691 253 
Q 1919 253 2006 500 
Q 2094 747 2094 1241 
Q 2094 1681 1972 1918 
Q 1850 2156 1609 2156 
Q 1378 2156 1138 2084 
L 1138 2069 
Q 1138 253 1691 253 
z
" transform="scale(0.015625)"/>
     </defs>
     <use xlink:href="#LiberationSerif-Bold-18"/>
     <use xlink:href="#LiberationSerif-Bold-1a" transform="translate(50 0)"/>
     <use xlink:href="#LiberationSerif-Bold-f" transform="translate(100 0)"/>
     <use xlink:href="#LiberationSerif-Bold-19" transform="translate(125 0)"/>
    </g>
   </g>
   <g id="text_14">
    <!-- 26,5 -->
    <g style="fill: #121212" transform="translate(234.547241 82.66874) scale(0.11 -0.11)">
     <defs>
      <path id="LiberationSerif-Bold-15" d="M 2925 0 
L 269 0 
L 269 591 
Q 538 878 766 1106 
Q 1266 1600 1497 1883 
Q 1728 2166 1836 2469 
Q 1944 2772 1944 3159 
Q 1944 3500 1778 3709 
Q 1613 3919 1338 3919 
Q 1144 3919 1028 3878 
Q 913 3838 816 3756 
L 681 3150 
L 409 3150 
L 409 4103 
Q 659 4159 898 4198 
Q 1138 4238 1419 4238 
Q 2109 4238 2476 3953 
Q 2844 3669 2844 3144 
Q 2844 2816 2734 2548 
Q 2625 2281 2389 2028 
Q 2153 1775 1450 1203 
Q 1181 984 869 706 
L 2925 706 
L 2925 0 
z
" transform="scale(0.015625)"/>
     </defs>
     <use xlink:href="#LiberationSerif-Bold-15"/>
     <use xlink:href="#LiberationSerif-Bold-19" transform="translate(50 0)"/>
     <use xlink:href="#LiberationSerif-Bold-f" transform="translate(100 0)"/>
     <use xlink:href="#LiberationSerif-Bold-18" transform="translate(125 0)"/>
    </g>
   </g>
   <g id="text_15">
    <!-- 6,5 -->
    <g style="fill: #121212" transform="translate(121.149776 130.026466) scale(0.11 -0.11)">
     <use xlink:href="#LiberationSerif-Bold-19"/>
     <use xlink:href="#LiberationSerif-Bold-f" transform="translate(50 0)"/>
     <use xlink:href="#LiberationSerif-Bold-18" transform="translate(75 0)"/>
    </g>
   </g>
  </g>
 </g>
 <defs>
  <clipPath id="pb7efefe4b7">
   <rect x="77.878438" y="7.2" width="408.16" height="145.861797"/>
  </clipPath>
 </defs>
</svg>
