<?xml version="1.0" encoding="utf-8" standalone="no"?>
<!DOCTYPE svg PUBLIC "-//W3C//DTD SVG 1.1//EN"
  "http://www.w3.org/Graphics/SVG/1.1/DTD/svg11.dtd">
<svg xmlns:xlink="http://www.w3.org/1999/xlink" width="495.538828pt" height="244.533594pt" viewBox="0 0 495.538828 244.533594" xmlns="http://www.w3.org/2000/svg" version="1.1">
 <metadata>
  <rdf:RDF xmlns:dc="http://purl.org/dc/elements/1.1/" xmlns:cc="http://creativecommons.org/ns#" xmlns:rdf="http://www.w3.org/1999/02/22-rdf-syntax-ns#">
   <cc:Work>
    <dc:type rdf:resource="http://purl.org/dc/dcmitype/StillImage"/>
    <dc:date>2026-06-19T16:51:41.887361</dc:date>
    <dc:format>image/svg+xml</dc:format>
    <dc:creator>
     <cc:Agent>
      <dc:title>Matplotlib v3.11.0, https://matplotlib.org/</dc:title>
     </cc:Agent>
    </dc:creator>
   </cc:Work>
  </rdf:RDF>
 </metadata>
 <defs>
  <style type="text/css">*{stroke-linejoin: round; stroke-linecap: butt}</style>
 </defs>
 <g id="figure_1">
  <g id="patch_1">
   <path d="M 0 244.533594 
L 495.538828 244.533594 
L 495.538828 0 
L 0 0 
z
" style="fill: #fefcf8"/>
  </g>
  <g id="axes_1">
   <g id="patch_2">
    <path d="M 51.598828 224.741797 
L 488.338828 224.741797 
L 488.338828 7.2 
L 51.598828 7.2 
z
" style="fill: #fefcf8"/>
   </g>
   <g id="matplotlib.axis_1">
    <g id="xtick_1">
     <g id="line2d_1"/>
     <g id="text_1">
      <!-- Ano 1 -->
      <g style="fill: #121212" transform="translate(115.809189 235.175391) scale(0.1 -0.1)">
       <defs>
        <path id="LiberationSerif-24" d="M 1441 166 
L 1441 0 
L 63 0 
L 63 166 
L 538 250 
L 1966 4225 
L 2559 4225 
L 4044 250 
L 4575 166 
L 4575 0 
L 2803 0 
L 2803 166 
L 3366 250 
L 2950 1459 
L 1300 1459 
L 878 250 
L 1441 166 
z
M 2113 3775 
L 1394 1741 
L 2853 1741 
L 2113 3775 
z
" transform="scale(0.015625)"/>
        <path id="LiberationSerif-51" d="M 1013 2700 
Q 1253 2838 1525 2927 
Q 1797 3016 1978 3016 
Q 2359 3016 2553 2794 
Q 2747 2572 2747 2150 
L 2747 219 
L 3103 141 
L 3103 0 
L 1838 0 
L 1838 141 
L 2228 219 
L 2228 2094 
Q 2228 2353 2101 2501 
Q 1975 2650 1709 2650 
Q 1428 2650 1019 2559 
L 1019 219 
L 1416 141 
L 1416 0 
L 147 0 
L 147 141 
L 500 219 
L 500 2719 
L 147 2797 
L 147 2938 
L 984 2938 
L 1013 2700 
z
" transform="scale(0.015625)"/>
        <path id="LiberationSerif-52" d="M 2956 1484 
Q 2956 -63 1581 -63 
Q 919 -63 581 334 
Q 244 731 244 1484 
Q 244 2228 581 2622 
Q 919 3016 1606 3016 
Q 2275 3016 2615 2630 
Q 2956 2244 2956 1484 
z
M 2394 1484 
Q 2394 2159 2197 2462 
Q 2000 2766 1581 2766 
Q 1172 2766 989 2475 
Q 806 2184 806 1484 
Q 806 775 992 479 
Q 1178 184 1581 184 
Q 1994 184 2194 490 
Q 2394 797 2394 1484 
z
" transform="scale(0.015625)"/>
        <path id="LiberationSerif-3" transform="scale(0.015625)"/>
        <path id="LiberationSerif-14" d="M 1959 250 
L 2816 166 
L 2816 0 
L 563 0 
L 563 166 
L 1422 250 
L 1422 3669 
L 575 3366 
L 575 3531 
L 1797 4225 
L 1959 4225 
L 1959 250 
z
" transform="scale(0.015625)"/>
       </defs>
       <use xlink:href="#LiberationSerif-24"/>
       <use xlink:href="#LiberationSerif-51" transform="translate(72.21875 0)"/>
       <use xlink:href="#LiberationSerif-52" transform="translate(122.21875 0)"/>
       <use xlink:href="#LiberationSerif-3" transform="translate(172.21875 0)"/>
       <use xlink:href="#LiberationSerif-14" transform="translate(197.21875 0)"/>
      </g>
     </g>
    </g>
    <g id="xtick_2">
     <g id="line2d_2"/>
     <g id="text_2">
      <!-- Ano 2 -->
      <g style="fill: #121212" transform="translate(257.607891 235.175391) scale(0.1 -0.1)">
       <defs>
        <path id="LiberationSerif-15" d="M 2847 0 
L 281 0 
L 281 459 
L 863 988 
Q 1422 1478 1684 1781 
Q 1947 2084 2061 2406 
Q 2175 2728 2175 3144 
Q 2175 3550 1990 3762 
Q 1806 3975 1388 3975 
Q 1222 3975 1047 3929 
Q 872 3884 738 3809 
L 628 3297 
L 422 3297 
L 422 4103 
Q 991 4238 1388 4238 
Q 2075 4238 2420 3952 
Q 2766 3666 2766 3144 
Q 2766 2794 2630 2483 
Q 2494 2172 2212 1864 
Q 1931 1556 1281 1003 
Q 1003 766 691 481 
L 2847 481 
L 2847 0 
z
" transform="scale(0.015625)"/>
       </defs>
       <use xlink:href="#LiberationSerif-24"/>
       <use xlink:href="#LiberationSerif-51" transform="translate(72.21875 0)"/>
       <use xlink:href="#LiberationSerif-52" transform="translate(122.21875 0)"/>
       <use xlink:href="#LiberationSerif-3" transform="translate(172.21875 0)"/>
       <use xlink:href="#LiberationSerif-15" transform="translate(197.21875 0)"/>
      </g>
     </g>
    </g>
    <g id="xtick_3">
     <g id="line2d_3"/>
     <g id="text_3">
      <!-- Ano 3 -->
      <g style="fill: #121212" transform="translate(399.406592 235.175391) scale(0.1 -0.1)">
       <defs>
        <path id="LiberationSerif-16" d="M 2950 1141 
Q 2950 575 2562 256 
Q 2175 -63 1466 -63 
Q 872 -63 341 72 
L 306 953 
L 513 953 
L 653 366 
Q 775 297 998 247 
Q 1222 197 1416 197 
Q 1906 197 2140 422 
Q 2375 647 2375 1172 
Q 2375 1584 2159 1798 
Q 1944 2013 1491 2034 
L 1044 2059 
L 1044 2316 
L 1491 2344 
Q 1844 2363 2012 2563 
Q 2181 2763 2181 3169 
Q 2181 3591 1998 3783 
Q 1816 3975 1416 3975 
Q 1250 3975 1069 3929 
Q 888 3884 750 3809 
L 641 3297 
L 434 3297 
L 434 4103 
Q 744 4184 969 4211 
Q 1194 4238 1416 4238 
Q 2759 4238 2759 3206 
Q 2759 2772 2520 2514 
Q 2281 2256 1844 2194 
Q 2413 2128 2681 1867 
Q 2950 1606 2950 1141 
z
" transform="scale(0.015625)"/>
       </defs>
       <use xlink:href="#LiberationSerif-24"/>
       <use xlink:href="#LiberationSerif-51" transform="translate(72.21875 0)"/>
       <use xlink:href="#LiberationSerif-52" transform="translate(122.21875 0)"/>
       <use xlink:href="#LiberationSerif-3" transform="translate(172.21875 0)"/>
       <use xlink:href="#LiberationSerif-16" transform="translate(197.21875 0)"/>
      </g>
     </g>
    </g>
   </g>
   <g id="matplotlib.axis_2">
    <g id="ytick_1">
     <g id="line2d_4">
      <path d="M 51.598828 224.741797 
L 488.338828 224.741797 
" clip-path="url(#pd8b29d356c)" style="fill: none; stroke: #758d99; stroke-opacity: 0.4; stroke-width: 0.4; stroke-linecap: square"/>
     </g>
     <g id="line2d_5"/>
     <g id="text_4">
      <!-- 0 -->
      <g style="fill: #121212" transform="translate(43.098828 228.208594) scale(0.1 -0.1)">
       <defs>
        <path id="LiberationSerif-13" d="M 2956 2113 
Q 2956 -63 1581 -63 
Q 919 -63 581 493 
Q 244 1050 244 2113 
Q 244 3153 581 3704 
Q 919 4256 1606 4256 
Q 2269 4256 2612 3711 
Q 2956 3166 2956 2113 
z
M 2381 2113 
Q 2381 3119 2190 3562 
Q 2000 4006 1581 4006 
Q 1175 4006 997 3587 
Q 819 3169 819 2113 
Q 819 1050 1000 617 
Q 1181 184 1581 184 
Q 1994 184 2187 639 
Q 2381 1094 2381 2113 
z
" transform="scale(0.015625)"/>
       </defs>
       <use xlink:href="#LiberationSerif-13"/>
      </g>
     </g>
    </g>
    <g id="ytick_2">
     <g id="line2d_6">
      <path d="M 51.598828 180.471997 
L 488.338828 180.471997 
" clip-path="url(#pd8b29d356c)" style="fill: none; stroke: #758d99; stroke-opacity: 0.4; stroke-width: 0.4; stroke-linecap: square"/>
     </g>
     <g id="line2d_7"/>
     <g id="text_5">
      <!-- 20.000 -->
      <g style="fill: #121212" transform="translate(20.598828 183.938794) scale(0.1 -0.1)">
       <defs>
        <path id="LiberationSerif-11" d="M 1178 288 
Q 1178 134 1070 21 
Q 963 -91 800 -91 
Q 638 -91 530 21 
Q 422 134 422 288 
Q 422 447 531 556 
Q 641 666 800 666 
Q 959 666 1068 556 
Q 1178 447 1178 288 
z
" transform="scale(0.015625)"/>
       </defs>
       <use xlink:href="#LiberationSerif-15"/>
       <use xlink:href="#LiberationSerif-13" transform="translate(50 0)"/>
       <use xlink:href="#LiberationSerif-11" transform="translate(100 0)"/>
       <use xlink:href="#LiberationSerif-13" transform="translate(125 0)"/>
       <use xlink:href="#LiberationSerif-13" transform="translate(175 0)"/>
       <use xlink:href="#LiberationSerif-13" transform="translate(225 0)"/>
      </g>
     </g>
    </g>
    <g id="ytick_3">
     <g id="line2d_8">
      <path d="M 51.598828 136.202197 
L 488.338828 136.202197 
" clip-path="url(#pd8b29d356c)" style="fill: none; stroke: #758d99; stroke-opacity: 0.4; stroke-width: 0.4; stroke-linecap: square"/>
     </g>
     <g id="line2d_9"/>
     <g id="text_6">
      <!-- 40.000 -->
      <g style="fill: #121212" transform="translate(20.598828 139.668994) scale(0.1 -0.1)">
       <defs>
        <path id="LiberationSerif-17" d="M 2531 922 
L 2531 0 
L 1994 0 
L 1994 922 
L 125 922 
L 125 1338 
L 2172 4213 
L 2531 4213 
L 2531 1369 
L 3100 1369 
L 3100 922 
L 2531 922 
z
M 1994 3478 
L 1978 3478 
L 478 1369 
L 1994 1369 
L 1994 3478 
z
" transform="scale(0.015625)"/>
       </defs>
       <use xlink:href="#LiberationSerif-17"/>
       <use xlink:href="#LiberationSerif-13" transform="translate(50 0)"/>
       <use xlink:href="#LiberationSerif-11" transform="translate(100 0)"/>
       <use xlink:href="#LiberationSerif-13" transform="translate(125 0)"/>
       <use xlink:href="#LiberationSerif-13" transform="translate(175 0)"/>
       <use xlink:href="#LiberationSerif-13" transform="translate(225 0)"/>
      </g>
     </g>
    </g>
    <g id="ytick_4">
     <g id="line2d_10">
      <path d="M 51.598828 91.932397 
L 488.338828 91.932397 
" clip-path="url(#pd8b29d356c)" style="fill: none; stroke: #758d99; stroke-opacity: 0.4; stroke-width: 0.4; stroke-linecap: square"/>
     </g>
     <g id="line2d_11"/>
     <g id="text_7">
      <!-- 60.000 -->
      <g style="fill: #121212" transform="translate(20.598828 95.399194) scale(0.1 -0.1)">
       <defs>
        <path id="LiberationSerif-19" d="M 3009 1300 
Q 3009 647 2679 292 
Q 2350 -63 1728 -63 
Q 1022 -63 648 487 
Q 275 1038 275 2069 
Q 275 2744 472 3234 
Q 669 3725 1023 3981 
Q 1378 4238 1844 4238 
Q 2300 4238 2753 4128 
L 2753 3406 
L 2547 3406 
L 2438 3834 
Q 2334 3891 2159 3933 
Q 1984 3975 1844 3975 
Q 1388 3975 1133 3533 
Q 878 3091 853 2241 
Q 1363 2509 1875 2509 
Q 2428 2509 2718 2198 
Q 3009 1888 3009 1300 
z
M 1716 184 
Q 2094 184 2262 429 
Q 2431 675 2431 1241 
Q 2431 1753 2270 1981 
Q 2109 2209 1759 2209 
Q 1331 2209 850 2053 
Q 850 1100 1065 642 
Q 1281 184 1716 184 
z
" transform="scale(0.015625)"/>
       </defs>
       <use xlink:href="#LiberationSerif-19"/>
       <use xlink:href="#LiberationSerif-13" transform="translate(50 0)"/>
       <use xlink:href="#LiberationSerif-11" transform="translate(100 0)"/>
       <use xlink:href="#LiberationSerif-13" transform="translate(125 0)"/>
       <use xlink:href="#LiberationSerif-13" transform="translate(175 0)"/>
       <use xlink:href="#LiberationSerif-13" transform="translate(225 0)"/>
      </g>
     </g>
    </g>
    <g id="ytick_5">
     <g id="line2d_12">
      <path d="M 51.598828 47.662597 
L 488.338828 47.662597 
" clip-path="url(#pd8b29d356c)" style="fill: none; stroke: #758d99; stroke-opacity: 0.4; stroke-width: 0.4; stroke-linecap: square"/>
     </g>
     <g id="line2d_13"/>
     <g id="text_8">
      <!-- 80.000 -->
      <g style="fill: #121212" transform="translate(20.598828 51.129394) scale(0.1 -0.1)">
       <defs>
        <path id="LiberationSerif-1b" d="M 2828 3169 
Q 2828 2825 2661 2586 
Q 2494 2347 2209 2222 
Q 2566 2091 2761 1811 
Q 2956 1531 2956 1131 
Q 2956 538 2622 237 
Q 2288 -63 1581 -63 
Q 244 -63 244 1131 
Q 244 1547 444 1820 
Q 644 2094 984 2222 
Q 713 2347 542 2584 
Q 372 2822 372 3169 
Q 372 3688 689 3972 
Q 1006 4256 1606 4256 
Q 2188 4256 2508 3973 
Q 2828 3691 2828 3169 
z
M 2394 1131 
Q 2394 1631 2198 1856 
Q 2003 2081 1581 2081 
Q 1169 2081 987 1867 
Q 806 1653 806 1131 
Q 806 603 990 393 
Q 1175 184 1581 184 
Q 1997 184 2195 401 
Q 2394 619 2394 1131 
z
M 2266 3169 
Q 2266 3600 2097 3803 
Q 1928 4006 1588 4006 
Q 1256 4006 1095 3809 
Q 934 3613 934 3169 
Q 934 2734 1090 2545 
Q 1247 2356 1588 2356 
Q 1938 2356 2102 2548 
Q 2266 2741 2266 3169 
z
" transform="scale(0.015625)"/>
       </defs>
       <use xlink:href="#LiberationSerif-1b"/>
       <use xlink:href="#LiberationSerif-13" transform="translate(50 0)"/>
       <use xlink:href="#LiberationSerif-11" transform="translate(100 0)"/>
       <use xlink:href="#LiberationSerif-13" transform="translate(125 0)"/>
       <use xlink:href="#LiberationSerif-13" transform="translate(175 0)"/>
       <use xlink:href="#LiberationSerif-13" transform="translate(225 0)"/>
      </g>
     </g>
    </g>
    <g id="text_9">
     <!-- Pró-labore aos sócios no ano (R$) -->
     <g style="fill: #121212" transform="translate(14.440625 185.085742) rotate(-90) scale(0.1 -0.1)">
      <defs>
       <path id="LiberationSerif-Italic-33" d="M 1913 1925 
Q 3125 1925 3125 3041 
Q 3125 3488 2898 3698 
Q 2672 3909 2216 3909 
L 1753 3909 
L 1403 1925 
L 1913 1925 
z
M 1353 1644 
L 1106 250 
L 1791 166 
L 1759 0 
L -34 0 
L -3 166 
L 503 250 
L 1156 3944 
L 631 4025 
L 663 4191 
L 2341 4191 
Q 3016 4191 3381 3911 
Q 3747 3631 3747 3081 
Q 3747 2381 3289 2012 
Q 2831 1644 1981 1644 
L 1353 1644 
z
" transform="scale(0.015625)"/>
       <path id="LiberationSerif-Italic-55" d="M 2263 3016 
Q 2419 3016 2509 2991 
L 2372 2222 
L 2238 2222 
L 2119 2619 
Q 1869 2619 1601 2428 
Q 1334 2238 1113 1925 
L 778 0 
L 259 0 
L 738 2719 
L 369 2797 
L 394 2938 
L 1259 2938 
L 1163 2275 
Q 1397 2628 1686 2822 
Q 1975 3016 2263 3016 
z
" transform="scale(0.015625)"/>
       <path id="LiberationSerif-Italic-b5" d="M 741 1063 
Q 741 641 905 417 
Q 1069 194 1363 194 
Q 1647 194 1905 422 
Q 2163 650 2313 1045 
Q 2463 1441 2463 1894 
Q 2463 2325 2298 2548 
Q 2134 2772 1828 2772 
Q 1544 2772 1289 2544 
Q 1034 2316 887 1920 
Q 741 1525 741 1063 
z
M 1334 -63 
Q 816 -63 503 270 
Q 191 603 191 1169 
Q 191 1672 406 2100 
Q 622 2528 1005 2772 
Q 1388 3016 1866 3016 
Q 2384 3016 2696 2683 
Q 3009 2350 3009 1784 
Q 3009 1281 2793 853 
Q 2578 425 2195 181 
Q 1813 -63 1334 -63 
z
M 1644 3494 
L 1660 3597 
L 2422 4447 
L 3088 4447 
L 3069 4331 
L 1816 3494 
L 1644 3494 
z
" transform="scale(0.015625)"/>
       <path id="LiberationSerif-Italic-10" d="M 238 1269 
L 238 1747 
L 1900 1747 
L 1900 1269 
L 238 1269 
z
" transform="scale(0.015625)"/>
       <path id="LiberationSerif-Italic-4f" d="M 897 219 
L 1388 141 
L 1363 0 
L 341 0 
L 1081 4225 
L 678 4300 
L 703 4441 
L 1638 4441 
L 897 219 
z
" transform="scale(0.015625)"/>
       <path id="LiberationSerif-Italic-44" d="M 2466 219 
L 2819 141 
L 2794 0 
L 1903 0 
L 1994 488 
Q 1466 -66 1028 -66 
Q 650 -66 420 212 
Q 191 491 191 978 
Q 191 1525 430 2001 
Q 669 2478 1069 2745 
Q 1469 3013 1938 3013 
Q 2316 3013 2650 2881 
L 2791 2988 
L 2959 2988 
L 2466 219 
z
M 2375 2616 
Q 2253 2700 2147 2733 
Q 2041 2766 1884 2766 
Q 1572 2766 1311 2530 
Q 1050 2294 900 1894 
Q 750 1494 750 1059 
Q 750 725 887 525 
Q 1025 325 1263 325 
Q 1616 325 2034 759 
L 2375 2616 
z
" transform="scale(0.015625)"/>
       <path id="LiberationSerif-Italic-45" d="M 953 4225 
L 538 4300 
L 563 4441 
L 1500 4441 
L 1269 3063 
Q 1216 2706 1147 2459 
Q 1397 2716 1661 2866 
Q 1925 3016 2147 3016 
Q 2538 3016 2772 2736 
Q 3006 2456 3006 1972 
Q 3006 1434 2773 957 
Q 2541 481 2131 209 
Q 1722 -63 1238 -63 
Q 963 -63 698 7 
Q 434 78 238 200 
L 953 4225 
z
M 775 334 
Q 956 184 1278 184 
Q 1597 184 1867 420 
Q 2138 656 2292 1054 
Q 2447 1453 2447 1891 
Q 2447 2241 2301 2433 
Q 2156 2625 1913 2625 
Q 1728 2625 1514 2503 
Q 1300 2381 1106 2191 
L 775 334 
z
" transform="scale(0.015625)"/>
       <path id="LiberationSerif-Italic-52" d="M 741 1063 
Q 741 641 905 417 
Q 1069 194 1363 194 
Q 1647 194 1905 422 
Q 2163 650 2313 1045 
Q 2463 1441 2463 1894 
Q 2463 2325 2298 2548 
Q 2134 2772 1828 2772 
Q 1544 2772 1289 2544 
Q 1034 2316 887 1920 
Q 741 1525 741 1063 
z
M 1334 -63 
Q 816 -63 503 270 
Q 191 603 191 1169 
Q 191 1672 406 2100 
Q 622 2528 1005 2772 
Q 1388 3016 1866 3016 
Q 2384 3016 2696 2683 
Q 3009 2350 3009 1784 
Q 3009 1281 2793 853 
Q 2578 425 2195 181 
Q 1813 -63 1334 -63 
z
" transform="scale(0.015625)"/>
       <path id="LiberationSerif-Italic-48" d="M 2697 2375 
Q 2697 1950 2172 1650 
Q 1647 1350 763 1291 
L 750 1063 
Q 750 666 917 464 
Q 1084 263 1413 263 
Q 1694 263 1931 358 
Q 2169 453 2375 575 
L 2466 444 
Q 2178 200 1858 68 
Q 1538 -63 1250 -63 
Q 744 -63 470 220 
Q 197 503 197 1031 
Q 197 1553 417 2004 
Q 638 2456 1028 2736 
Q 1419 3016 1847 3016 
Q 2231 3016 2464 2839 
Q 2697 2663 2697 2375 
z
M 788 1488 
Q 1406 1534 1778 1778 
Q 2150 2022 2150 2375 
Q 2150 2550 2054 2662 
Q 1959 2775 1778 2775 
Q 1559 2775 1353 2597 
Q 1147 2419 997 2119 
Q 847 1819 788 1488 
z
" transform="scale(0.015625)"/>
       <path id="LiberationSerif-Italic-3" transform="scale(0.015625)"/>
       <path id="LiberationSerif-Italic-56" d="M 2163 863 
Q 2163 391 1863 164 
Q 1563 -63 953 -63 
Q 522 -63 78 131 
L 206 838 
L 347 838 
L 400 409 
Q 481 322 629 253 
Q 778 184 966 184 
Q 1650 184 1650 744 
Q 1650 928 1504 1072 
Q 1359 1216 1031 1375 
Q 716 1528 562 1714 
Q 409 1900 409 2150 
Q 409 2563 687 2789 
Q 966 3016 1459 3016 
Q 1813 3016 2297 2906 
L 2181 2253 
L 2034 2253 
L 1991 2591 
Q 1794 2766 1472 2766 
Q 1216 2766 1062 2648 
Q 909 2531 909 2284 
Q 909 2116 1040 1987 
Q 1172 1859 1538 1672 
Q 1863 1503 2013 1309 
Q 2163 1116 2163 863 
z
" transform="scale(0.015625)"/>
       <path id="LiberationSerif-Italic-46" d="M 2419 444 
Q 2166 209 1850 73 
Q 1534 -63 1250 -63 
Q 747 -63 472 228 
Q 197 519 197 1031 
Q 197 1575 415 2023 
Q 634 2472 1039 2744 
Q 1444 3016 1888 3016 
Q 2109 3016 2359 2969 
Q 2609 2922 2772 2853 
L 2631 2034 
L 2459 2034 
L 2409 2578 
Q 2213 2775 1884 2775 
Q 1584 2775 1323 2553 
Q 1063 2331 906 1934 
Q 750 1538 750 1063 
Q 750 263 1394 263 
Q 1841 263 2325 575 
L 2419 444 
z
" transform="scale(0.015625)"/>
       <path id="LiberationSerif-Italic-4c" d="M 913 219 
L 1403 141 
L 1378 0 
L 356 0 
L 834 2719 
L 431 2797 
L 456 2938 
L 1391 2938 
L 913 219 
z
M 1584 3897 
Q 1584 3759 1484 3659 
Q 1384 3559 1244 3559 
Q 1106 3559 1006 3659 
Q 906 3759 906 3897 
Q 906 4038 1006 4138 
Q 1106 4238 1244 4238 
Q 1384 4238 1484 4138 
Q 1584 4038 1584 3897 
z
" transform="scale(0.015625)"/>
       <path id="LiberationSerif-Italic-51" d="M 2359 2338 
Q 2359 2478 2284 2565 
Q 2209 2653 2047 2653 
Q 1816 2653 1542 2456 
Q 1269 2259 1091 1969 
L 747 0 
L 228 0 
L 706 2722 
L 338 2800 
L 363 2941 
L 1231 2941 
L 1147 2341 
Q 1409 2678 1690 2847 
Q 1972 3016 2244 3016 
Q 2559 3016 2718 2845 
Q 2878 2675 2878 2356 
Q 2878 2313 2865 2222 
Q 2853 2131 2525 216 
L 2934 141 
L 2909 0 
L 1969 0 
L 2288 1819 
Q 2359 2216 2359 2338 
z
" transform="scale(0.015625)"/>
       <path id="LiberationSerif-Italic-b" d="M 784 409 
Q 784 -650 1484 -1100 
L 1438 -1363 
Q 791 -984 508 -503 
Q 225 -22 225 666 
Q 225 1216 367 1852 
Q 509 2488 767 2956 
Q 1025 3425 1422 3776 
Q 1819 4128 2459 4441 
L 2413 4178 
Q 1997 3959 1715 3626 
Q 1434 3294 1250 2847 
Q 1066 2400 925 1631 
Q 784 863 784 409 
z
" transform="scale(0.015625)"/>
       <path id="LiberationSerif-Italic-35" d="M 1388 1838 
L 1106 250 
L 1666 166 
L 1634 0 
L -34 0 
L -3 166 
L 503 250 
L 1156 3944 
L 631 4025 
L 663 4191 
L 2325 4191 
Q 3009 4191 3368 3931 
Q 3728 3672 3728 3175 
Q 3728 2188 2634 1925 
L 3344 250 
L 3803 166 
L 3772 0 
L 2809 0 
L 2041 1838 
L 1388 1838 
z
M 1925 2119 
Q 2494 2119 2801 2389 
Q 3109 2659 3109 3156 
Q 3109 3909 2216 3909 
L 1753 3909 
L 1438 2119 
L 1925 2119 
z
" transform="scale(0.015625)"/>
       <path id="LiberationSerif-Italic-7" d="M 238 1159 
L 441 1159 
L 444 563 
Q 559 397 781 297 
Q 1003 197 1263 191 
L 1581 1994 
Q 1163 2203 992 2347 
Q 822 2491 723 2670 
Q 625 2850 625 3094 
Q 625 3634 969 3925 
Q 1313 4216 1975 4234 
L 2047 4634 
L 2303 4634 
L 2231 4234 
Q 2678 4225 3097 4119 
L 2944 3247 
L 2741 3247 
L 2725 3781 
Q 2531 3938 2184 3969 
L 1919 2459 
Q 2372 2216 2548 2062 
Q 2725 1909 2831 1721 
Q 2938 1534 2938 1294 
Q 2938 684 2570 335 
Q 2203 -13 1475 -56 
L 1400 -488 
L 1144 -488 
L 1219 -63 
Q 516 -50 75 228 
L 238 1159 
z
M 2381 1184 
Q 2381 1338 2325 1455 
Q 2269 1572 2158 1667 
Q 2047 1763 1819 1878 
L 1522 206 
Q 1944 259 2162 511 
Q 2381 763 2381 1184 
z
M 1172 3203 
Q 1172 3013 1289 2864 
Q 1406 2716 1681 2572 
L 1928 3969 
Q 1566 3941 1369 3742 
Q 1172 3544 1172 3203 
z
" transform="scale(0.015625)"/>
       <path id="LiberationSerif-Italic-c" d="M -303 -1363 
L -256 -1100 
Q 153 -884 429 -556 
Q 706 -228 887 200 
Q 1069 628 1219 1393 
Q 1369 2159 1369 2669 
Q 1369 3213 1195 3583 
Q 1022 3953 669 4178 
L 716 4441 
Q 1378 4047 1656 3572 
Q 1934 3097 1934 2413 
Q 1934 1891 1792 1250 
Q 1650 609 1390 132 
Q 1131 -344 731 -698 
Q 331 -1053 -303 -1363 
z
" transform="scale(0.015625)"/>
      </defs>
      <use xlink:href="#LiberationSerif-Italic-33"/>
      <use xlink:href="#LiberationSerif-Italic-55" transform="translate(61.078125 0)"/>
      <use xlink:href="#LiberationSerif-Italic-b5" transform="translate(100 0)"/>
      <use xlink:href="#LiberationSerif-Italic-10" transform="translate(150 0)"/>
      <use xlink:href="#LiberationSerif-Italic-4f" transform="translate(183.296875 0)"/>
      <use xlink:href="#LiberationSerif-Italic-44" transform="translate(211.078125 0)"/>
      <use xlink:href="#LiberationSerif-Italic-45" transform="translate(261.078125 0)"/>
      <use xlink:href="#LiberationSerif-Italic-52" transform="translate(311.078125 0)"/>
      <use xlink:href="#LiberationSerif-Italic-55" transform="translate(361.078125 0)"/>
      <use xlink:href="#LiberationSerif-Italic-48" transform="translate(396.296875 0)"/>
      <use xlink:href="#LiberationSerif-Italic-3" transform="translate(440.6875 0)"/>
      <use xlink:href="#LiberationSerif-Italic-44" transform="translate(465.6875 0)"/>
      <use xlink:href="#LiberationSerif-Italic-52" transform="translate(515.6875 0)"/>
      <use xlink:href="#LiberationSerif-Italic-56" transform="translate(565.6875 0)"/>
      <use xlink:href="#LiberationSerif-Italic-3" transform="translate(604.609375 0)"/>
      <use xlink:href="#LiberationSerif-Italic-56" transform="translate(629.609375 0)"/>
      <use xlink:href="#LiberationSerif-Italic-b5" transform="translate(668.53125 0)"/>
      <use xlink:href="#LiberationSerif-Italic-46" transform="translate(718.53125 0)"/>
      <use xlink:href="#LiberationSerif-Italic-4c" transform="translate(762.921875 0)"/>
      <use xlink:href="#LiberationSerif-Italic-52" transform="translate(790.703125 0)"/>
      <use xlink:href="#LiberationSerif-Italic-56" transform="translate(840.703125 0)"/>
      <use xlink:href="#LiberationSerif-Italic-3" transform="translate(879.625 0)"/>
      <use xlink:href="#LiberationSerif-Italic-51" transform="translate(904.625 0)"/>
      <use xlink:href="#LiberationSerif-Italic-52" transform="translate(954.625 0)"/>
      <use xlink:href="#LiberationSerif-Italic-3" transform="translate(1004.625 0)"/>
      <use xlink:href="#LiberationSerif-Italic-44" transform="translate(1029.625 0)"/>
      <use xlink:href="#LiberationSerif-Italic-51" transform="translate(1079.625 0)"/>
      <use xlink:href="#LiberationSerif-Italic-52" transform="translate(1129.625 0)"/>
      <use xlink:href="#LiberationSerif-Italic-3" transform="translate(1179.625 0)"/>
      <use xlink:href="#LiberationSerif-Italic-b" transform="translate(1204.625 0)"/>
      <use xlink:href="#LiberationSerif-Italic-35" transform="translate(1237.921875 0)"/>
      <use xlink:href="#LiberationSerif-Italic-7" transform="translate(1299 0)"/>
      <use xlink:href="#LiberationSerif-Italic-c" transform="translate(1349 0)"/>
     </g>
    </g>
   </g>
   <g id="patch_3">
    <path d="M 51.598828 224.741797 
L 51.598828 7.2 
" style="fill: none; stroke: #121212; stroke-width: 0.8; stroke-linejoin: miter; stroke-linecap: square"/>
   </g>
   <g id="patch_4">
    <path d="M 51.598828 224.741797 
L 488.338828 224.741797 
" style="fill: none; stroke: #121212; stroke-width: 0.8; stroke-linejoin: miter; stroke-linecap: square"/>
   </g>
   <g id="patch_5">
    <path d="M 71.450646 224.741797 
L 128.170127 224.741797 
L 128.170127 189.325957 
L 71.450646 189.325957 
z
" clip-path="url(#pd8b29d356c)" style="fill: #006ba2"/>
   </g>
   <g id="patch_6">
    <path d="M 213.249348 224.741797 
L 269.968828 224.741797 
L 269.968828 171.618037 
L 213.249348 171.618037 
z
" clip-path="url(#pd8b29d356c)" style="fill: #006ba2"/>
   </g>
   <g id="patch_7">
    <path d="M 355.048049 224.741797 
L 411.767529 224.741797 
L 411.767529 171.618037 
L 355.048049 171.618037 
z
" clip-path="url(#pd8b29d356c)" style="fill: #006ba2"/>
   </g>
   <g id="text_10">
    <!-- 16.000 -->
    <g style="fill: #006ba2" transform="translate(88.122887 186.429009) scale(0.085 -0.085)">
     <defs>
      <path id="LiberationSerif-Bold-14" d="M 2141 344 
L 2869 269 
L 2869 0 
L 513 0 
L 513 269 
L 1238 344 
L 1238 3503 
L 516 3266 
L 516 3531 
L 1697 4225 
L 2141 4225 
L 2141 344 
z
" transform="scale(0.015625)"/>
      <path id="LiberationSerif-Bold-19" d="M 3013 1300 
Q 3013 641 2672 289 
Q 2331 -63 1703 -63 
Q 984 -63 601 484 
Q 219 1031 219 2069 
Q 219 2744 420 3234 
Q 622 3725 984 3981 
Q 1347 4238 1819 4238 
Q 2306 4238 2759 4103 
L 2759 3150 
L 2488 3150 
L 2353 3756 
Q 2138 3919 1881 3919 
Q 1569 3919 1373 3519 
Q 1178 3119 1144 2400 
Q 1484 2547 1819 2547 
Q 2391 2547 2702 2225 
Q 3013 1903 3013 1300 
z
M 1691 253 
Q 1919 253 2006 500 
Q 2094 747 2094 1241 
Q 2094 1681 1972 1918 
Q 1850 2156 1609 2156 
Q 1378 2156 1138 2084 
L 1138 2069 
Q 1138 253 1691 253 
z
" transform="scale(0.015625)"/>
      <path id="LiberationSerif-Bold-11" d="M 800 -91 
Q 584 -91 432 59 
Q 281 209 281 428 
Q 281 644 431 795 
Q 581 947 800 947 
Q 1016 947 1167 797 
Q 1319 647 1319 428 
Q 1319 213 1169 61 
Q 1019 -91 800 -91 
z
" transform="scale(0.015625)"/>
      <path id="LiberationSerif-Bold-13" d="M 2956 2113 
Q 2956 -63 1581 -63 
Q 919 -63 581 493 
Q 244 1050 244 2113 
Q 244 3153 581 3704 
Q 919 4256 1606 4256 
Q 2269 4256 2612 3711 
Q 2956 3166 2956 2113 
z
M 2041 2113 
Q 2041 3088 1931 3514 
Q 1822 3941 1588 3941 
Q 1356 3941 1257 3528 
Q 1159 3116 1159 2113 
Q 1159 1094 1259 672 
Q 1359 250 1588 250 
Q 1819 250 1930 683 
Q 2041 1116 2041 2113 
z
" transform="scale(0.015625)"/>
     </defs>
     <use xlink:href="#LiberationSerif-Bold-14"/>
     <use xlink:href="#LiberationSerif-Bold-19" transform="translate(50 0)"/>
     <use xlink:href="#LiberationSerif-Bold-11" transform="translate(100 0)"/>
     <use xlink:href="#LiberationSerif-Bold-13" transform="translate(125 0)"/>
     <use xlink:href="#LiberationSerif-Bold-13" transform="translate(175 0)"/>
     <use xlink:href="#LiberationSerif-Bold-13" transform="translate(225 0)"/>
    </g>
   </g>
   <g id="text_11">
    <!-- 24.000 -->
    <g style="fill: #006ba2" transform="translate(229.921588 168.721089) scale(0.085 -0.085)">
     <defs>
      <path id="LiberationSerif-Bold-15" d="M 2925 0 
L 269 0 
L 269 591 
Q 538 878 766 1106 
Q 1266 1600 1497 1883 
Q 1728 2166 1836 2469 
Q 1944 2772 1944 3159 
Q 1944 3500 1778 3709 
Q 1613 3919 1338 3919 
Q 1144 3919 1028 3878 
Q 913 3838 816 3756 
L 681 3150 
L 409 3150 
L 409 4103 
Q 659 4159 898 4198 
Q 1138 4238 1419 4238 
Q 2109 4238 2476 3953 
Q 2844 3669 2844 3144 
Q 2844 2816 2734 2548 
Q 2625 2281 2389 2028 
Q 2153 1775 1450 1203 
Q 1181 984 869 706 
L 2925 706 
L 2925 0 
z
" transform="scale(0.015625)"/>
      <path id="LiberationSerif-Bold-17" d="M 2663 828 
L 2663 0 
L 1822 0 
L 1822 828 
L 88 828 
L 88 1338 
L 1975 4213 
L 2663 4213 
L 2663 1469 
L 3081 1469 
L 3081 828 
L 2663 828 
z
M 1822 2709 
Q 1822 3059 1853 3372 
L 606 1469 
L 1822 1469 
L 1822 2709 
z
" transform="scale(0.015625)"/>
     </defs>
     <use xlink:href="#LiberationSerif-Bold-15"/>
     <use xlink:href="#LiberationSerif-Bold-17" transform="translate(50 0)"/>
     <use xlink:href="#LiberationSerif-Bold-11" transform="translate(100 0)"/>
     <use xlink:href="#LiberationSerif-Bold-13" transform="translate(125 0)"/>
     <use xlink:href="#LiberationSerif-Bold-13" transform="translate(175 0)"/>
     <use xlink:href="#LiberationSerif-Bold-13" transform="translate(225 0)"/>
    </g>
   </g>
   <g id="text_12">
    <!-- 24.000 -->
    <g style="fill: #006ba2" transform="translate(371.720289 168.721089) scale(0.085 -0.085)">
     <use xlink:href="#LiberationSerif-Bold-15"/>
     <use xlink:href="#LiberationSerif-Bold-17" transform="translate(50 0)"/>
     <use xlink:href="#LiberationSerif-Bold-11" transform="translate(100 0)"/>
     <use xlink:href="#LiberationSerif-Bold-13" transform="translate(125 0)"/>
     <use xlink:href="#LiberationSerif-Bold-13" transform="translate(175 0)"/>
     <use xlink:href="#LiberationSerif-Bold-13" transform="translate(225 0)"/>
    </g>
   </g>
   <g id="patch_8">
    <path d="M 128.170127 224.741797 
L 184.889607 224.741797 
L 184.889607 224.741797 
L 128.170127 224.741797 
z
" clip-path="url(#pd8b29d356c)" style="fill: #e3120b"/>
   </g>
   <g id="patch_9">
    <path d="M 269.968828 224.741797 
L 326.688309 224.741797 
L 326.688309 158.337097 
L 269.968828 158.337097 
z
" clip-path="url(#pd8b29d356c)" style="fill: #e3120b"/>
   </g>
   <g id="patch_10">
    <path d="M 411.767529 224.741797 
L 468.48701 224.741797 
L 468.48701 65.370517 
L 411.767529 65.370517 
z
" clip-path="url(#pd8b29d356c)" style="fill: #e3120b"/>
   </g>
   <g id="text_13">
    <!-- 30.000 -->
    <g style="fill: #e3120b" transform="translate(286.641068 153.315199) scale(0.085 -0.085)">
     <defs>
      <path id="LiberationSerif-Bold-16" d="M 2981 1141 
Q 2981 569 2572 253 
Q 2163 -63 1434 -63 
Q 853 -63 278 63 
L 241 1078 
L 528 1078 
L 691 406 
Q 963 253 1259 253 
Q 1638 253 1850 495 
Q 2063 738 2063 1172 
Q 2063 1550 1892 1751 
Q 1722 1953 1341 1978 
L 978 2000 
L 978 2378 
L 1328 2403 
Q 1606 2422 1739 2608 
Q 1872 2794 1872 3169 
Q 1872 3519 1714 3719 
Q 1556 3919 1266 3919 
Q 1097 3919 989 3867 
Q 881 3816 784 3756 
L 650 3150 
L 378 3150 
L 378 4103 
Q 697 4184 928 4211 
Q 1159 4238 1384 4238 
Q 2794 4238 2794 3206 
Q 2794 2781 2569 2518 
Q 2344 2256 1925 2194 
Q 2981 2066 2981 1141 
z
" transform="scale(0.015625)"/>
     </defs>
     <use xlink:href="#LiberationSerif-Bold-16"/>
     <use xlink:href="#LiberationSerif-Bold-13" transform="translate(50 0)"/>
     <use xlink:href="#LiberationSerif-Bold-11" transform="translate(100 0)"/>
     <use xlink:href="#LiberationSerif-Bold-13" transform="translate(125 0)"/>
     <use xlink:href="#LiberationSerif-Bold-13" transform="translate(175 0)"/>
     <use xlink:href="#LiberationSerif-Bold-13" transform="translate(225 0)"/>
    </g>
   </g>
   <g id="text_14">
    <!-- 72.000 -->
    <g style="fill: #e3120b" transform="translate(428.43977 60.348619) scale(0.085 -0.085)">
     <defs>
      <path id="LiberationSerif-Bold-1a" d="M 638 2994 
L 366 2994 
L 366 4191 
L 3044 4191 
L 3044 3944 
L 1416 0 
L 669 0 
L 2434 3494 
L 781 3494 
L 638 2994 
z
" transform="scale(0.015625)"/>
     </defs>
     <use xlink:href="#LiberationSerif-Bold-1a"/>
     <use xlink:href="#LiberationSerif-Bold-15" transform="translate(50 0)"/>
     <use xlink:href="#LiberationSerif-Bold-11" transform="translate(100 0)"/>
     <use xlink:href="#LiberationSerif-Bold-13" transform="translate(125 0)"/>
     <use xlink:href="#LiberationSerif-Bold-13" transform="translate(175 0)"/>
     <use xlink:href="#LiberationSerif-Bold-13" transform="translate(225 0)"/>
    </g>
   </g>
   <g id="legend_1">
    <g id="patch_11">
     <path d="M 175.535625 21.6 
L 193.535625 21.6 
L 193.535625 15.3 
L 175.535625 15.3 
z
" style="fill: #006ba2"/>
    </g>
    <g id="text_15">
     <!-- A — antecipada -->
     <g transform="translate(200.735625 21.6) scale(0.09 -0.09)">
      <defs>
       <path id="LiberationSerif-7e0" d="M 6444 1650 
L 6444 1331 
L -44 1331 
L -44 1650 
L 6444 1650 
z
" transform="scale(0.015625)"/>
       <path id="LiberationSerif-44" d="M 1453 3003 
Q 1934 3003 2161 2806 
Q 2388 2609 2388 2203 
L 2388 219 
L 2753 141 
L 2753 0 
L 1947 0 
L 1888 294 
Q 1531 -63 978 -63 
Q 225 -63 225 813 
Q 225 1106 339 1298 
Q 453 1491 703 1592 
Q 953 1694 1428 1703 
L 1869 1716 
L 1869 2175 
Q 1869 2478 1758 2622 
Q 1647 2766 1416 2766 
Q 1103 2766 844 2619 
L 738 2253 
L 563 2253 
L 563 2894 
Q 1069 3003 1453 3003 
z
M 1869 1497 
L 1459 1484 
Q 1041 1469 892 1322 
Q 744 1175 744 831 
Q 744 281 1191 281 
Q 1403 281 1558 329 
Q 1713 378 1869 453 
L 1869 1497 
z
" transform="scale(0.015625)"/>
       <path id="LiberationSerif-57" d="M 1044 -63 
Q 744 -63 595 115 
Q 447 294 447 616 
L 447 2675 
L 63 2675 
L 63 2816 
L 453 2938 
L 769 3603 
L 966 3603 
L 966 2938 
L 1638 2938 
L 1638 2675 
L 966 2675 
L 966 672 
Q 966 469 1058 366 
Q 1150 263 1300 263 
Q 1481 263 1741 313 
L 1741 109 
Q 1631 34 1425 -14 
Q 1219 -63 1044 -63 
z
" transform="scale(0.015625)"/>
       <path id="LiberationSerif-48" d="M 813 1478 
L 813 1422 
Q 813 991 908 752 
Q 1003 513 1201 388 
Q 1400 263 1722 263 
Q 1891 263 2122 291 
Q 2353 319 2503 353 
L 2503 178 
Q 2353 81 2095 9 
Q 1838 -63 1569 -63 
Q 884 -63 567 306 
Q 250 675 250 1491 
Q 250 2259 572 2637 
Q 894 3016 1491 3016 
Q 2619 3016 2619 1734 
L 2619 1478 
L 813 1478 
z
M 1491 2766 
Q 1166 2766 992 2503 
Q 819 2241 819 1728 
L 2075 1728 
Q 2075 2288 1931 2527 
Q 1788 2766 1491 2766 
z
" transform="scale(0.015625)"/>
       <path id="LiberationSerif-46" d="M 2644 178 
Q 2491 66 2222 1 
Q 1953 -63 1672 -63 
Q 244 -63 244 1491 
Q 244 2225 608 2620 
Q 972 3016 1650 3016 
Q 2072 3016 2572 2919 
L 2572 2100 
L 2400 2100 
L 2266 2619 
Q 2006 2766 1644 2766 
Q 806 2766 806 1491 
Q 806 828 1061 545 
Q 1316 263 1850 263 
Q 2306 263 2644 366 
L 2644 178 
z
" transform="scale(0.015625)"/>
       <path id="LiberationSerif-4c" d="M 1184 3897 
Q 1184 3759 1084 3659 
Q 984 3559 844 3559 
Q 706 3559 606 3659 
Q 506 3759 506 3897 
Q 506 4038 606 4138 
Q 706 4238 844 4238 
Q 984 4238 1084 4138 
Q 1184 4038 1184 3897 
z
M 1153 219 
L 1656 141 
L 1656 0 
L 134 0 
L 134 141 
L 634 219 
L 634 2719 
L 219 2797 
L 219 2938 
L 1153 2938 
L 1153 219 
z
" transform="scale(0.015625)"/>
       <path id="LiberationSerif-53" d="M 475 2719 
L 141 2797 
L 141 2938 
L 966 2938 
L 972 2766 
Q 1103 2878 1323 2947 
Q 1544 3016 1772 3016 
Q 2334 3016 2642 2625 
Q 2950 2234 2950 1503 
Q 2950 756 2614 346 
Q 2278 -63 1644 -63 
Q 1291 -63 972 6 
Q 991 -219 991 -347 
L 991 -1141 
L 1503 -1216 
L 1503 -1363 
L 103 -1363 
L 103 -1216 
L 475 -1141 
L 475 2719 
z
M 2388 1503 
Q 2388 2103 2192 2395 
Q 1997 2688 1600 2688 
Q 1234 2688 991 2584 
L 991 238 
Q 1269 184 1600 184 
Q 2388 184 2388 1503 
z
" transform="scale(0.015625)"/>
       <path id="LiberationSerif-47" d="M 2259 219 
Q 1906 -63 1434 -63 
Q 231 -63 231 1441 
Q 231 2213 572 2614 
Q 913 3016 1575 3016 
Q 1913 3016 2259 2944 
Q 2241 3047 2241 3463 
L 2241 4225 
L 1747 4300 
L 1747 4441 
L 2759 4441 
L 2759 219 
L 3122 141 
L 3122 0 
L 2297 0 
L 2259 219 
z
M 794 1441 
Q 794 847 994 555 
Q 1194 263 1606 263 
Q 1959 263 2241 384 
L 2241 2706 
Q 1963 2759 1606 2759 
Q 794 2759 794 1441 
z
" transform="scale(0.015625)"/>
      </defs>
      <use xlink:href="#LiberationSerif-24"/>
      <use xlink:href="#LiberationSerif-3" transform="translate(66.703125 0)"/>
      <use xlink:href="#LiberationSerif-7e0" transform="translate(91.703125 0)"/>
      <use xlink:href="#LiberationSerif-3" transform="translate(191.703125 0)"/>
      <use xlink:href="#LiberationSerif-44" transform="translate(216.703125 0)"/>
      <use xlink:href="#LiberationSerif-51" transform="translate(261.09375 0)"/>
      <use xlink:href="#LiberationSerif-57" transform="translate(311.09375 0)"/>
      <use xlink:href="#LiberationSerif-48" transform="translate(338.875 0)"/>
      <use xlink:href="#LiberationSerif-46" transform="translate(383.265625 0)"/>
      <use xlink:href="#LiberationSerif-4c" transform="translate(427.65625 0)"/>
      <use xlink:href="#LiberationSerif-53" transform="translate(455.4375 0)"/>
      <use xlink:href="#LiberationSerif-44" transform="translate(505.4375 0)"/>
      <use xlink:href="#LiberationSerif-47" transform="translate(549.828125 0)"/>
      <use xlink:href="#LiberationSerif-44" transform="translate(599.828125 0)"/>
     </g>
    </g>
    <g id="patch_12">
     <path d="M 276.715312 21.6 
L 294.715312 21.6 
L 294.715312 15.3 
L 276.715312 15.3 
z
" style="fill: #e3120b"/>
    </g>
    <g id="text_16">
     <!-- B — otimizadora -->
     <g transform="translate(301.915312 21.6) scale(0.09 -0.09)">
      <defs>
       <path id="LiberationSerif-25" d="M 2994 3175 
Q 2994 3559 2753 3734 
Q 2513 3909 1972 3909 
L 1325 3909 
L 1325 2325 
L 2009 2325 
Q 2516 2325 2755 2525 
Q 2994 2725 2994 3175 
z
M 3309 1194 
Q 3309 1634 3015 1839 
Q 2722 2044 2075 2044 
L 1325 2044 
L 1325 281 
Q 1756 263 2244 263 
Q 2778 263 3043 489 
Q 3309 716 3309 1194 
z
M 184 0 
L 184 166 
L 722 250 
L 722 3944 
L 184 4025 
L 184 4191 
L 2100 4191 
Q 2897 4191 3265 3955 
Q 3634 3719 3634 3206 
Q 3634 2838 3407 2578 
Q 3181 2319 2772 2231 
Q 3338 2172 3647 1901 
Q 3956 1631 3956 1206 
Q 3956 603 3539 292 
Q 3122 -19 2322 -19 
L 984 0 
L 184 0 
z
" transform="scale(0.015625)"/>
       <path id="LiberationSerif-50" d="M 1019 2700 
Q 1253 2834 1515 2925 
Q 1778 3016 1978 3016 
Q 2194 3016 2376 2934 
Q 2559 2853 2650 2675 
Q 2891 2809 3214 2912 
Q 3538 3016 3750 3016 
Q 4500 3016 4500 2150 
L 4500 219 
L 4878 141 
L 4878 0 
L 3544 0 
L 3544 141 
L 3981 219 
L 3981 2094 
Q 3981 2631 3481 2631 
Q 3400 2631 3292 2618 
Q 3184 2606 3076 2590 
Q 2969 2575 2870 2554 
Q 2772 2534 2706 2522 
Q 2759 2353 2759 2150 
L 2759 219 
L 3200 141 
L 3200 0 
L 1806 0 
L 1806 141 
L 2241 219 
L 2241 2094 
Q 2241 2353 2108 2492 
Q 1975 2631 1709 2631 
Q 1434 2631 1025 2541 
L 1025 219 
L 1466 141 
L 1466 0 
L 134 0 
L 134 141 
L 506 219 
L 506 2719 
L 134 2797 
L 134 2938 
L 994 2938 
L 1019 2700 
z
" transform="scale(0.015625)"/>
       <path id="LiberationSerif-5d" d="M 172 0 
L 172 141 
L 1784 2688 
L 1094 2688 
Q 919 2688 756 2658 
Q 594 2628 531 2578 
L 434 2156 
L 288 2156 
L 288 2938 
L 2456 2938 
L 2456 2784 
L 844 250 
L 1703 250 
Q 1881 250 2078 292 
Q 2275 334 2356 397 
L 2516 1013 
L 2663 1013 
L 2584 0 
L 172 0 
z
" transform="scale(0.015625)"/>
       <path id="LiberationSerif-55" d="M 2075 3016 
L 2075 2222 
L 1941 2222 
L 1759 2566 
Q 1603 2566 1389 2523 
Q 1175 2481 1019 2413 
L 1019 219 
L 1522 141 
L 1522 0 
L 128 0 
L 128 141 
L 500 219 
L 500 2719 
L 128 2797 
L 128 2938 
L 984 2938 
L 1013 2572 
Q 1200 2728 1520 2872 
Q 1841 3016 2028 3016 
L 2075 3016 
z
" transform="scale(0.015625)"/>
      </defs>
      <use xlink:href="#LiberationSerif-25"/>
      <use xlink:href="#LiberationSerif-3" transform="translate(66.703125 0)"/>
      <use xlink:href="#LiberationSerif-7e0" transform="translate(91.703125 0)"/>
      <use xlink:href="#LiberationSerif-3" transform="translate(191.703125 0)"/>
      <use xlink:href="#LiberationSerif-52" transform="translate(216.703125 0)"/>
      <use xlink:href="#LiberationSerif-57" transform="translate(266.703125 0)"/>
      <use xlink:href="#LiberationSerif-4c" transform="translate(294.484375 0)"/>
      <use xlink:href="#LiberationSerif-50" transform="translate(322.265625 0)"/>
      <use xlink:href="#LiberationSerif-4c" transform="translate(400.046875 0)"/>
      <use xlink:href="#LiberationSerif-5d" transform="translate(427.828125 0)"/>
      <use xlink:href="#LiberationSerif-44" transform="translate(472.21875 0)"/>
      <use xlink:href="#LiberationSerif-47" transform="translate(516.609375 0)"/>
      <use xlink:href="#LiberationSerif-52" transform="translate(566.609375 0)"/>
      <use xlink:href="#LiberationSerif-55" transform="translate(616.609375 0)"/>
      <use xlink:href="#LiberationSerif-44" transform="translate(649.90625 0)"/>
     </g>
    </g>
   </g>
  </g>
 </g>
 <defs>
  <clipPath id="pd8b29d356c">
   <rect x="51.598828" y="7.2" width="436.74" height="217.541797"/>
  </clipPath>
 </defs>
</svg>
