<?xml version="1.0" encoding="utf-8" standalone="no"?>
<!DOCTYPE svg PUBLIC "-//W3C//DTD SVG 1.1//EN"
  "http://www.w3.org/Graphics/SVG/1.1/DTD/svg11.dtd">
<svg xmlns:xlink="http://www.w3.org/1999/xlink" width="496.354991pt" height="222.686719pt" viewBox="0 0 496.354991 222.686719" xmlns="http://www.w3.org/2000/svg" version="1.1">
 <metadata>
  <rdf:RDF xmlns:dc="http://purl.org/dc/elements/1.1/" xmlns:cc="http://creativecommons.org/ns#" xmlns:rdf="http://www.w3.org/1999/02/22-rdf-syntax-ns#">
   <cc:Work>
    <dc:type rdf:resource="http://purl.org/dc/dcmitype/StillImage"/>
    <dc:date>2026-06-19T16:51:41.737199</dc:date>
    <dc:format>image/svg+xml</dc:format>
    <dc:creator>
     <cc:Agent>
      <dc:title>Matplotlib v3.11.0, https://matplotlib.org/</dc:title>
     </cc:Agent>
    </dc:creator>
   </cc:Work>
  </rdf:RDF>
 </metadata>
 <defs>
  <style type="text/css">*{stroke-linejoin: round; stroke-linecap: butt}</style>
 </defs>
 <g id="figure_1">
  <g id="patch_1">
   <path d="M 0 222.686719 
L 496.354991 222.686719 
L 496.354991 0 
L 0 0 
z
" style="fill: #fefcf8"/>
  </g>
  <g id="axes_1">
   <g id="patch_2">
    <path d="M 46.598828 189.783594 
L 430.32858 189.783594 
L 430.32858 7.2 
L 46.598828 7.2 
z
" style="fill: #fefcf8"/>
   </g>
   <g id="matplotlib.axis_1">
    <g id="xtick_1">
     <g id="line2d_1"/>
     <g id="text_1">
      <!-- 2 -->
      <g style="fill: #121212" transform="translate(93.254292 200.217188) scale(0.1 -0.1)">
       <defs>
        <path id="LiberationSerif-15" d="M 2847 0 
L 281 0 
L 281 459 
L 863 988 
Q 1422 1478 1684 1781 
Q 1947 2084 2061 2406 
Q 2175 2728 2175 3144 
Q 2175 3550 1990 3762 
Q 1806 3975 1388 3975 
Q 1222 3975 1047 3929 
Q 872 3884 738 3809 
L 628 3297 
L 422 3297 
L 422 4103 
Q 991 4238 1388 4238 
Q 2075 4238 2420 3952 
Q 2766 3666 2766 3144 
Q 2766 2794 2630 2483 
Q 2494 2172 2212 1864 
Q 1931 1556 1281 1003 
Q 1003 766 691 481 
L 2847 481 
L 2847 0 
z
" transform="scale(0.015625)"/>
       </defs>
       <use xlink:href="#LiberationSerif-15"/>
      </g>
     </g>
    </g>
    <g id="xtick_2">
     <g id="line2d_2"/>
     <g id="text_2">
      <!-- 4 -->
      <g style="fill: #121212" transform="translate(156.680698 200.217188) scale(0.1 -0.1)">
       <defs>
        <path id="LiberationSerif-17" d="M 2531 922 
L 2531 0 
L 1994 0 
L 1994 922 
L 125 922 
L 125 1338 
L 2172 4213 
L 2531 4213 
L 2531 1369 
L 3100 1369 
L 3100 922 
L 2531 922 
z
M 1994 3478 
L 1978 3478 
L 478 1369 
L 1994 1369 
L 1994 3478 
z
" transform="scale(0.015625)"/>
       </defs>
       <use xlink:href="#LiberationSerif-17"/>
      </g>
     </g>
    </g>
    <g id="xtick_3">
     <g id="line2d_3"/>
     <g id="text_3">
      <!-- 6 -->
      <g style="fill: #121212" transform="translate(220.107103 200.217188) scale(0.1 -0.1)">
       <defs>
        <path id="LiberationSerif-19" d="M 3009 1300 
Q 3009 647 2679 292 
Q 2350 -63 1728 -63 
Q 1022 -63 648 487 
Q 275 1038 275 2069 
Q 275 2744 472 3234 
Q 669 3725 1023 3981 
Q 1378 4238 1844 4238 
Q 2300 4238 2753 4128 
L 2753 3406 
L 2547 3406 
L 2438 3834 
Q 2334 3891 2159 3933 
Q 1984 3975 1844 3975 
Q 1388 3975 1133 3533 
Q 878 3091 853 2241 
Q 1363 2509 1875 2509 
Q 2428 2509 2718 2198 
Q 3009 1888 3009 1300 
z
M 1716 184 
Q 2094 184 2262 429 
Q 2431 675 2431 1241 
Q 2431 1753 2270 1981 
Q 2109 2209 1759 2209 
Q 1331 2209 850 2053 
Q 850 1100 1065 642 
Q 1281 184 1716 184 
z
" transform="scale(0.015625)"/>
       </defs>
       <use xlink:href="#LiberationSerif-19"/>
      </g>
     </g>
    </g>
    <g id="xtick_4">
     <g id="line2d_4"/>
     <g id="text_4">
      <!-- 8 -->
      <g style="fill: #121212" transform="translate(283.533508 200.217188) scale(0.1 -0.1)">
       <defs>
        <path id="LiberationSerif-1b" d="M 2828 3169 
Q 2828 2825 2661 2586 
Q 2494 2347 2209 2222 
Q 2566 2091 2761 1811 
Q 2956 1531 2956 1131 
Q 2956 538 2622 237 
Q 2288 -63 1581 -63 
Q 244 -63 244 1131 
Q 244 1547 444 1820 
Q 644 2094 984 2222 
Q 713 2347 542 2584 
Q 372 2822 372 3169 
Q 372 3688 689 3972 
Q 1006 4256 1606 4256 
Q 2188 4256 2508 3973 
Q 2828 3691 2828 3169 
z
M 2394 1131 
Q 2394 1631 2198 1856 
Q 2003 2081 1581 2081 
Q 1169 2081 987 1867 
Q 806 1653 806 1131 
Q 806 603 990 393 
Q 1175 184 1581 184 
Q 1997 184 2195 401 
Q 2394 619 2394 1131 
z
M 2266 3169 
Q 2266 3600 2097 3803 
Q 1928 4006 1588 4006 
Q 1256 4006 1095 3809 
Q 934 3613 934 3169 
Q 934 2734 1090 2545 
Q 1247 2356 1588 2356 
Q 1938 2356 2102 2548 
Q 2266 2741 2266 3169 
z
" transform="scale(0.015625)"/>
       </defs>
       <use xlink:href="#LiberationSerif-1b"/>
      </g>
     </g>
    </g>
    <g id="xtick_5">
     <g id="line2d_5"/>
     <g id="text_5">
      <!-- 10 -->
      <g style="fill: #121212" transform="translate(344.459913 200.217188) scale(0.1 -0.1)">
       <defs>
        <path id="LiberationSerif-14" d="M 1959 250 
L 2816 166 
L 2816 0 
L 563 0 
L 563 166 
L 1422 250 
L 1422 3669 
L 575 3366 
L 575 3531 
L 1797 4225 
L 1959 4225 
L 1959 250 
z
" transform="scale(0.015625)"/>
        <path id="LiberationSerif-13" d="M 2956 2113 
Q 2956 -63 1581 -63 
Q 919 -63 581 493 
Q 244 1050 244 2113 
Q 244 3153 581 3704 
Q 919 4256 1606 4256 
Q 2269 4256 2612 3711 
Q 2956 3166 2956 2113 
z
M 2381 2113 
Q 2381 3119 2190 3562 
Q 2000 4006 1581 4006 
Q 1175 4006 997 3587 
Q 819 3169 819 2113 
Q 819 1050 1000 617 
Q 1181 184 1581 184 
Q 1994 184 2187 639 
Q 2381 1094 2381 2113 
z
" transform="scale(0.015625)"/>
       </defs>
       <use xlink:href="#LiberationSerif-14"/>
       <use xlink:href="#LiberationSerif-13" transform="translate(50 0)"/>
      </g>
     </g>
    </g>
    <g id="xtick_6">
     <g id="line2d_6"/>
     <g id="text_6">
      <!-- 12 -->
      <g style="fill: #121212" transform="translate(407.886319 200.217188) scale(0.1 -0.1)">
       <use xlink:href="#LiberationSerif-14"/>
       <use xlink:href="#LiberationSerif-15" transform="translate(50 0)"/>
      </g>
     </g>
    </g>
    <g id="text_7">
     <!-- Mês -->
     <g style="fill: #121212" transform="translate(230.133235 213.328516) scale(0.1 -0.1)">
      <defs>
       <path id="LiberationSerif-Italic-30" d="M 2253 0 
L 2144 0 
L 1422 3603 
L 831 250 
L 1381 166 
L 1350 0 
L -75 0 
L -44 166 
L 503 250 
L 1156 3944 
L 631 4025 
L 663 4191 
L 1856 4191 
L 2500 994 
L 4369 4191 
L 5625 4191 
L 5594 4025 
L 5044 3944 
L 4391 250 
L 4916 166 
L 4884 0 
L 3184 0 
L 3216 166 
L 3791 250 
L 4381 3603 
L 2253 0 
z
" transform="scale(0.015625)"/>
       <path id="LiberationSerif-Italic-ac" d="M 2697 2375 
Q 2697 1950 2172 1650 
Q 1647 1350 763 1291 
L 750 1063 
Q 750 666 917 464 
Q 1084 263 1413 263 
Q 1694 263 1931 358 
Q 2169 453 2375 575 
L 2466 444 
Q 2178 200 1858 68 
Q 1538 -63 1250 -63 
Q 744 -63 470 220 
Q 197 503 197 1031 
Q 197 1553 417 2004 
Q 638 2456 1028 2736 
Q 1419 3016 1847 3016 
Q 2231 3016 2464 2839 
Q 2697 2663 2697 2375 
z
M 788 1488 
Q 1406 1534 1778 1778 
Q 2150 2022 2150 2375 
Q 2150 2550 2054 2662 
Q 1959 2775 1778 2775 
Q 1559 2775 1353 2597 
Q 1147 2419 997 2119 
Q 847 1819 788 1488 
z
M 985 3494 
L 1000 3597 
L 1735 4450 
L 2400 4450 
L 2835 3597 
L 2819 3494 
L 2672 3494 
L 2029 4066 
L 1185 3494 
L 985 3494 
z
" transform="scale(0.015625)"/>
       <path id="LiberationSerif-Italic-56" d="M 2163 863 
Q 2163 391 1863 164 
Q 1563 -63 953 -63 
Q 522 -63 78 131 
L 206 838 
L 347 838 
L 400 409 
Q 481 322 629 253 
Q 778 184 966 184 
Q 1650 184 1650 744 
Q 1650 928 1504 1072 
Q 1359 1216 1031 1375 
Q 716 1528 562 1714 
Q 409 1900 409 2150 
Q 409 2563 687 2789 
Q 966 3016 1459 3016 
Q 1813 3016 2297 2906 
L 2181 2253 
L 2034 2253 
L 1991 2591 
Q 1794 2766 1472 2766 
Q 1216 2766 1062 2648 
Q 909 2531 909 2284 
Q 909 2116 1040 1987 
Q 1172 1859 1538 1672 
Q 1863 1503 2013 1309 
Q 2163 1116 2163 863 
z
" transform="scale(0.015625)"/>
      </defs>
      <use xlink:href="#LiberationSerif-Italic-30"/>
      <use xlink:href="#LiberationSerif-Italic-ac" transform="translate(83.296875 0)"/>
      <use xlink:href="#LiberationSerif-Italic-56" transform="translate(127.6875 0)"/>
     </g>
    </g>
   </g>
   <g id="matplotlib.axis_2">
    <g id="ytick_1">
     <g id="line2d_7">
      <path d="M 46.598828 172.516746 
L 430.32858 172.516746 
" clip-path="url(#p9d80f5527c)" style="fill: none; stroke: #758d99; stroke-opacity: 0.4; stroke-width: 0.4; stroke-linecap: square"/>
     </g>
     <g id="line2d_8"/>
     <g id="text_8">
      <!-- -750 -->
      <g style="fill: #121212" transform="translate(24.769141 175.983543) scale(0.1 -0.1)">
       <defs>
        <path id="LiberationSerif-10" d="M 238 1269 
L 238 1747 
L 1900 1747 
L 1900 1269 
L 238 1269 
z
" transform="scale(0.015625)"/>
        <path id="LiberationSerif-1a" d="M 628 3200 
L 422 3200 
L 422 4191 
L 3016 4191 
L 3016 3950 
L 1147 0 
L 744 0 
L 2578 3713 
L 738 3713 
L 628 3200 
z
" transform="scale(0.015625)"/>
        <path id="LiberationSerif-18" d="M 1516 2450 
Q 2241 2450 2595 2153 
Q 2950 1856 2950 1247 
Q 2950 616 2565 276 
Q 2181 -63 1466 -63 
Q 872 -63 406 72 
L 372 953 
L 578 953 
L 719 366 
Q 856 291 1048 244 
Q 1241 197 1416 197 
Q 1909 197 2142 430 
Q 2375 663 2375 1216 
Q 2375 1603 2275 1801 
Q 2175 2000 1956 2094 
Q 1738 2188 1369 2188 
Q 1084 2188 813 2113 
L 513 2113 
L 513 4191 
L 2638 4191 
L 2638 3713 
L 794 3713 
L 794 2375 
Q 1131 2450 1516 2450 
z
" transform="scale(0.015625)"/>
       </defs>
       <use xlink:href="#LiberationSerif-10"/>
       <use xlink:href="#LiberationSerif-1a" transform="translate(33.296875 0)"/>
       <use xlink:href="#LiberationSerif-18" transform="translate(83.296875 0)"/>
       <use xlink:href="#LiberationSerif-13" transform="translate(133.296875 0)"/>
      </g>
     </g>
    </g>
    <g id="ytick_2">
     <g id="line2d_9">
      <path d="M 46.598828 151.36676 
L 430.32858 151.36676 
" clip-path="url(#p9d80f5527c)" style="fill: none; stroke: #758d99; stroke-opacity: 0.4; stroke-width: 0.4; stroke-linecap: square"/>
     </g>
     <g id="line2d_10"/>
     <g id="text_9">
      <!-- -500 -->
      <g style="fill: #121212" transform="translate(24.769141 154.833557) scale(0.1 -0.1)">
       <use xlink:href="#LiberationSerif-10"/>
       <use xlink:href="#LiberationSerif-18" transform="translate(33.296875 0)"/>
       <use xlink:href="#LiberationSerif-13" transform="translate(83.296875 0)"/>
       <use xlink:href="#LiberationSerif-13" transform="translate(133.296875 0)"/>
      </g>
     </g>
    </g>
    <g id="ytick_3">
     <g id="line2d_11">
      <path d="M 46.598828 130.216775 
L 430.32858 130.216775 
" clip-path="url(#p9d80f5527c)" style="fill: none; stroke: #758d99; stroke-opacity: 0.4; stroke-width: 0.4; stroke-linecap: square"/>
     </g>
     <g id="line2d_12"/>
     <g id="text_10">
      <!-- -250 -->
      <g style="fill: #121212" transform="translate(24.769141 133.683572) scale(0.1 -0.1)">
       <use xlink:href="#LiberationSerif-10"/>
       <use xlink:href="#LiberationSerif-15" transform="translate(33.296875 0)"/>
       <use xlink:href="#LiberationSerif-18" transform="translate(83.296875 0)"/>
       <use xlink:href="#LiberationSerif-13" transform="translate(133.296875 0)"/>
      </g>
     </g>
    </g>
    <g id="ytick_4">
     <g id="line2d_13">
      <path d="M 46.598828 109.06679 
L 430.32858 109.06679 
" clip-path="url(#p9d80f5527c)" style="fill: none; stroke: #758d99; stroke-opacity: 0.4; stroke-width: 0.4; stroke-linecap: square"/>
     </g>
     <g id="line2d_14"/>
     <g id="text_11">
      <!-- 0 -->
      <g style="fill: #121212" transform="translate(38.098828 112.533586) scale(0.1 -0.1)">
       <use xlink:href="#LiberationSerif-13"/>
      </g>
     </g>
    </g>
    <g id="ytick_5">
     <g id="line2d_15">
      <path d="M 46.598828 87.916804 
L 430.32858 87.916804 
" clip-path="url(#p9d80f5527c)" style="fill: none; stroke: #758d99; stroke-opacity: 0.4; stroke-width: 0.4; stroke-linecap: square"/>
     </g>
     <g id="line2d_16"/>
     <g id="text_12">
      <!-- 250 -->
      <g style="fill: #121212" transform="translate(28.098828 91.383601) scale(0.1 -0.1)">
       <use xlink:href="#LiberationSerif-15"/>
       <use xlink:href="#LiberationSerif-18" transform="translate(50 0)"/>
       <use xlink:href="#LiberationSerif-13" transform="translate(100 0)"/>
      </g>
     </g>
    </g>
    <g id="ytick_6">
     <g id="line2d_17">
      <path d="M 46.598828 66.766819 
L 430.32858 66.766819 
" clip-path="url(#p9d80f5527c)" style="fill: none; stroke: #758d99; stroke-opacity: 0.4; stroke-width: 0.4; stroke-linecap: square"/>
     </g>
     <g id="line2d_18"/>
     <g id="text_13">
      <!-- 500 -->
      <g style="fill: #121212" transform="translate(28.098828 70.233616) scale(0.1 -0.1)">
       <use xlink:href="#LiberationSerif-18"/>
       <use xlink:href="#LiberationSerif-13" transform="translate(50 0)"/>
       <use xlink:href="#LiberationSerif-13" transform="translate(100 0)"/>
      </g>
     </g>
    </g>
    <g id="ytick_7">
     <g id="line2d_19">
      <path d="M 46.598828 45.616833 
L 430.32858 45.616833 
" clip-path="url(#p9d80f5527c)" style="fill: none; stroke: #758d99; stroke-opacity: 0.4; stroke-width: 0.4; stroke-linecap: square"/>
     </g>
     <g id="line2d_20"/>
     <g id="text_14">
      <!-- 750 -->
      <g style="fill: #121212" transform="translate(28.098828 49.08363) scale(0.1 -0.1)">
       <use xlink:href="#LiberationSerif-1a"/>
       <use xlink:href="#LiberationSerif-18" transform="translate(50 0)"/>
       <use xlink:href="#LiberationSerif-13" transform="translate(100 0)"/>
      </g>
     </g>
    </g>
    <g id="ytick_8">
     <g id="line2d_21">
      <path d="M 46.598828 24.466848 
L 430.32858 24.466848 
" clip-path="url(#p9d80f5527c)" style="fill: none; stroke: #758d99; stroke-opacity: 0.4; stroke-width: 0.4; stroke-linecap: square"/>
     </g>
     <g id="line2d_22"/>
     <g id="text_15">
      <!-- 1.000 -->
      <g style="fill: #121212" transform="translate(20.598828 27.933645) scale(0.1 -0.1)">
       <defs>
        <path id="LiberationSerif-11" d="M 1178 288 
Q 1178 134 1070 21 
Q 963 -91 800 -91 
Q 638 -91 530 21 
Q 422 134 422 288 
Q 422 447 531 556 
Q 641 666 800 666 
Q 959 666 1068 556 
Q 1178 447 1178 288 
z
" transform="scale(0.015625)"/>
       </defs>
       <use xlink:href="#LiberationSerif-14"/>
       <use xlink:href="#LiberationSerif-11" transform="translate(50 0)"/>
       <use xlink:href="#LiberationSerif-13" transform="translate(75 0)"/>
       <use xlink:href="#LiberationSerif-13" transform="translate(125 0)"/>
       <use xlink:href="#LiberationSerif-13" transform="translate(175 0)"/>
      </g>
     </g>
    </g>
    <g id="text_16">
     <!-- R$/mês (após pró-labore) -->
     <g style="fill: #121212" transform="translate(14.440625 149.967578) rotate(-90) scale(0.1 -0.1)">
      <defs>
       <path id="LiberationSerif-Italic-35" d="M 1388 1838 
L 1106 250 
L 1666 166 
L 1634 0 
L -34 0 
L -3 166 
L 503 250 
L 1156 3944 
L 631 4025 
L 663 4191 
L 2325 4191 
Q 3009 4191 3368 3931 
Q 3728 3672 3728 3175 
Q 3728 2188 2634 1925 
L 3344 250 
L 3803 166 
L 3772 0 
L 2809 0 
L 2041 1838 
L 1388 1838 
z
M 1925 2119 
Q 2494 2119 2801 2389 
Q 3109 2659 3109 3156 
Q 3109 3909 2216 3909 
L 1753 3909 
L 1438 2119 
L 1925 2119 
z
" transform="scale(0.015625)"/>
       <path id="LiberationSerif-Italic-7" d="M 238 1159 
L 441 1159 
L 444 563 
Q 559 397 781 297 
Q 1003 197 1263 191 
L 1581 1994 
Q 1163 2203 992 2347 
Q 822 2491 723 2670 
Q 625 2850 625 3094 
Q 625 3634 969 3925 
Q 1313 4216 1975 4234 
L 2047 4634 
L 2303 4634 
L 2231 4234 
Q 2678 4225 3097 4119 
L 2944 3247 
L 2741 3247 
L 2725 3781 
Q 2531 3938 2184 3969 
L 1919 2459 
Q 2372 2216 2548 2062 
Q 2725 1909 2831 1721 
Q 2938 1534 2938 1294 
Q 2938 684 2570 335 
Q 2203 -13 1475 -56 
L 1400 -488 
L 1144 -488 
L 1219 -63 
Q 516 -50 75 228 
L 238 1159 
z
M 2381 1184 
Q 2381 1338 2325 1455 
Q 2269 1572 2158 1667 
Q 2047 1763 1819 1878 
L 1522 206 
Q 1944 259 2162 511 
Q 2381 763 2381 1184 
z
M 1172 3203 
Q 1172 3013 1289 2864 
Q 1406 2716 1681 2572 
L 1928 3969 
Q 1566 3941 1369 3742 
Q 1172 3544 1172 3203 
z
" transform="scale(0.015625)"/>
       <path id="LiberationSerif-Italic-12" d="M 50 -63 
L -294 -63 
L 1928 4219 
L 2266 4219 
L 50 -63 
z
" transform="scale(0.015625)"/>
       <path id="LiberationSerif-Italic-50" d="M 2728 2331 
Q 2941 2634 3209 2825 
Q 3478 3016 3725 3016 
Q 3988 3016 4139 2848 
Q 4291 2681 4291 2366 
Q 4291 2297 4277 2186 
Q 4263 2075 3944 219 
L 4353 141 
L 4325 0 
L 3384 0 
L 3706 1819 
Q 3778 2197 3778 2338 
Q 3778 2478 3712 2564 
Q 3647 2650 3506 2650 
Q 3369 2650 3178 2519 
Q 2988 2388 2833 2183 
Q 2678 1978 2647 1800 
L 2338 0 
L 1819 0 
L 2138 1819 
Q 2216 2228 2216 2338 
Q 2216 2478 2147 2564 
Q 2078 2650 1931 2650 
Q 1794 2650 1594 2511 
Q 1394 2372 1241 2173 
Q 1088 1975 1059 1800 
L 750 0 
L 231 0 
L 709 2719 
L 341 2797 
L 366 2938 
L 1234 2938 
L 1147 2331 
Q 1366 2641 1637 2828 
Q 1909 3016 2150 3016 
Q 2425 3016 2576 2842 
Q 2728 2669 2728 2331 
z
" transform="scale(0.015625)"/>
       <path id="LiberationSerif-Italic-3" transform="scale(0.015625)"/>
       <path id="LiberationSerif-Italic-b" d="M 784 409 
Q 784 -650 1484 -1100 
L 1438 -1363 
Q 791 -984 508 -503 
Q 225 -22 225 666 
Q 225 1216 367 1852 
Q 509 2488 767 2956 
Q 1025 3425 1422 3776 
Q 1819 4128 2459 4441 
L 2413 4178 
Q 1997 3959 1715 3626 
Q 1434 3294 1250 2847 
Q 1066 2400 925 1631 
Q 784 863 784 409 
z
" transform="scale(0.015625)"/>
       <path id="LiberationSerif-Italic-44" d="M 2466 219 
L 2819 141 
L 2794 0 
L 1903 0 
L 1994 488 
Q 1466 -66 1028 -66 
Q 650 -66 420 212 
Q 191 491 191 978 
Q 191 1525 430 2001 
Q 669 2478 1069 2745 
Q 1469 3013 1938 3013 
Q 2316 3013 2650 2881 
L 2791 2988 
L 2959 2988 
L 2466 219 
z
M 2375 2616 
Q 2253 2700 2147 2733 
Q 2041 2766 1884 2766 
Q 1572 2766 1311 2530 
Q 1050 2294 900 1894 
Q 750 1494 750 1059 
Q 750 725 887 525 
Q 1025 325 1263 325 
Q 1616 325 2034 759 
L 2375 2616 
z
" transform="scale(0.015625)"/>
       <path id="LiberationSerif-Italic-53" d="M 728 6 
L 694 -275 
L 544 -1141 
L 1044 -1216 
L 1019 -1363 
L -375 -1363 
L -350 -1216 
L 28 -1141 
L 713 2719 
L 391 2797 
L 416 2938 
L 1244 2938 
L 1184 2463 
Q 1731 3016 2169 3016 
Q 2547 3016 2776 2737 
Q 3006 2459 3006 1972 
Q 3006 1422 2772 948 
Q 2538 475 2134 206 
Q 1731 -63 1259 -63 
Q 1116 -63 961 -42 
Q 806 -22 728 6 
z
M 803 334 
Q 997 184 1328 184 
Q 1638 184 1889 412 
Q 2141 641 2294 1052 
Q 2447 1463 2447 1891 
Q 2447 2238 2308 2431 
Q 2169 2625 1934 2625 
Q 1769 2625 1544 2503 
Q 1319 2381 1144 2191 
L 803 334 
z
" transform="scale(0.015625)"/>
       <path id="LiberationSerif-Italic-b5" d="M 741 1063 
Q 741 641 905 417 
Q 1069 194 1363 194 
Q 1647 194 1905 422 
Q 2163 650 2313 1045 
Q 2463 1441 2463 1894 
Q 2463 2325 2298 2548 
Q 2134 2772 1828 2772 
Q 1544 2772 1289 2544 
Q 1034 2316 887 1920 
Q 741 1525 741 1063 
z
M 1334 -63 
Q 816 -63 503 270 
Q 191 603 191 1169 
Q 191 1672 406 2100 
Q 622 2528 1005 2772 
Q 1388 3016 1866 3016 
Q 2384 3016 2696 2683 
Q 3009 2350 3009 1784 
Q 3009 1281 2793 853 
Q 2578 425 2195 181 
Q 1813 -63 1334 -63 
z
M 1644 3494 
L 1660 3597 
L 2422 4447 
L 3088 4447 
L 3069 4331 
L 1816 3494 
L 1644 3494 
z
" transform="scale(0.015625)"/>
       <path id="LiberationSerif-Italic-55" d="M 2263 3016 
Q 2419 3016 2509 2991 
L 2372 2222 
L 2238 2222 
L 2119 2619 
Q 1869 2619 1601 2428 
Q 1334 2238 1113 1925 
L 778 0 
L 259 0 
L 738 2719 
L 369 2797 
L 394 2938 
L 1259 2938 
L 1163 2275 
Q 1397 2628 1686 2822 
Q 1975 3016 2263 3016 
z
" transform="scale(0.015625)"/>
       <path id="LiberationSerif-Italic-10" d="M 238 1269 
L 238 1747 
L 1900 1747 
L 1900 1269 
L 238 1269 
z
" transform="scale(0.015625)"/>
       <path id="LiberationSerif-Italic-4f" d="M 897 219 
L 1388 141 
L 1363 0 
L 341 0 
L 1081 4225 
L 678 4300 
L 703 4441 
L 1638 4441 
L 897 219 
z
" transform="scale(0.015625)"/>
       <path id="LiberationSerif-Italic-45" d="M 953 4225 
L 538 4300 
L 563 4441 
L 1500 4441 
L 1269 3063 
Q 1216 2706 1147 2459 
Q 1397 2716 1661 2866 
Q 1925 3016 2147 3016 
Q 2538 3016 2772 2736 
Q 3006 2456 3006 1972 
Q 3006 1434 2773 957 
Q 2541 481 2131 209 
Q 1722 -63 1238 -63 
Q 963 -63 698 7 
Q 434 78 238 200 
L 953 4225 
z
M 775 334 
Q 956 184 1278 184 
Q 1597 184 1867 420 
Q 2138 656 2292 1054 
Q 2447 1453 2447 1891 
Q 2447 2241 2301 2433 
Q 2156 2625 1913 2625 
Q 1728 2625 1514 2503 
Q 1300 2381 1106 2191 
L 775 334 
z
" transform="scale(0.015625)"/>
       <path id="LiberationSerif-Italic-52" d="M 741 1063 
Q 741 641 905 417 
Q 1069 194 1363 194 
Q 1647 194 1905 422 
Q 2163 650 2313 1045 
Q 2463 1441 2463 1894 
Q 2463 2325 2298 2548 
Q 2134 2772 1828 2772 
Q 1544 2772 1289 2544 
Q 1034 2316 887 1920 
Q 741 1525 741 1063 
z
M 1334 -63 
Q 816 -63 503 270 
Q 191 603 191 1169 
Q 191 1672 406 2100 
Q 622 2528 1005 2772 
Q 1388 3016 1866 3016 
Q 2384 3016 2696 2683 
Q 3009 2350 3009 1784 
Q 3009 1281 2793 853 
Q 2578 425 2195 181 
Q 1813 -63 1334 -63 
z
" transform="scale(0.015625)"/>
       <path id="LiberationSerif-Italic-48" d="M 2697 2375 
Q 2697 1950 2172 1650 
Q 1647 1350 763 1291 
L 750 1063 
Q 750 666 917 464 
Q 1084 263 1413 263 
Q 1694 263 1931 358 
Q 2169 453 2375 575 
L 2466 444 
Q 2178 200 1858 68 
Q 1538 -63 1250 -63 
Q 744 -63 470 220 
Q 197 503 197 1031 
Q 197 1553 417 2004 
Q 638 2456 1028 2736 
Q 1419 3016 1847 3016 
Q 2231 3016 2464 2839 
Q 2697 2663 2697 2375 
z
M 788 1488 
Q 1406 1534 1778 1778 
Q 2150 2022 2150 2375 
Q 2150 2550 2054 2662 
Q 1959 2775 1778 2775 
Q 1559 2775 1353 2597 
Q 1147 2419 997 2119 
Q 847 1819 788 1488 
z
" transform="scale(0.015625)"/>
       <path id="LiberationSerif-Italic-c" d="M -303 -1363 
L -256 -1100 
Q 153 -884 429 -556 
Q 706 -228 887 200 
Q 1069 628 1219 1393 
Q 1369 2159 1369 2669 
Q 1369 3213 1195 3583 
Q 1022 3953 669 4178 
L 716 4441 
Q 1378 4047 1656 3572 
Q 1934 3097 1934 2413 
Q 1934 1891 1792 1250 
Q 1650 609 1390 132 
Q 1131 -344 731 -698 
Q 331 -1053 -303 -1363 
z
" transform="scale(0.015625)"/>
      </defs>
      <use xlink:href="#LiberationSerif-Italic-35"/>
      <use xlink:href="#LiberationSerif-Italic-7" transform="translate(61.078125 0)"/>
      <use xlink:href="#LiberationSerif-Italic-12" transform="translate(111.078125 0)"/>
      <use xlink:href="#LiberationSerif-Italic-50" transform="translate(138.859375 0)"/>
      <use xlink:href="#LiberationSerif-Italic-ac" transform="translate(211.078125 0)"/>
      <use xlink:href="#LiberationSerif-Italic-56" transform="translate(255.46875 0)"/>
      <use xlink:href="#LiberationSerif-Italic-3" transform="translate(294.390625 0)"/>
      <use xlink:href="#LiberationSerif-Italic-b" transform="translate(319.390625 0)"/>
      <use xlink:href="#LiberationSerif-Italic-44" transform="translate(352.6875 0)"/>
      <use xlink:href="#LiberationSerif-Italic-53" transform="translate(402.6875 0)"/>
      <use xlink:href="#LiberationSerif-Italic-b5" transform="translate(452.6875 0)"/>
      <use xlink:href="#LiberationSerif-Italic-56" transform="translate(502.6875 0)"/>
      <use xlink:href="#LiberationSerif-Italic-3" transform="translate(541.609375 0)"/>
      <use xlink:href="#LiberationSerif-Italic-53" transform="translate(566.609375 0)"/>
      <use xlink:href="#LiberationSerif-Italic-55" transform="translate(616.609375 0)"/>
      <use xlink:href="#LiberationSerif-Italic-b5" transform="translate(655.53125 0)"/>
      <use xlink:href="#LiberationSerif-Italic-10" transform="translate(705.53125 0)"/>
      <use xlink:href="#LiberationSerif-Italic-4f" transform="translate(738.828125 0)"/>
      <use xlink:href="#LiberationSerif-Italic-44" transform="translate(766.609375 0)"/>
      <use xlink:href="#LiberationSerif-Italic-45" transform="translate(816.609375 0)"/>
      <use xlink:href="#LiberationSerif-Italic-52" transform="translate(866.609375 0)"/>
      <use xlink:href="#LiberationSerif-Italic-55" transform="translate(916.609375 0)"/>
      <use xlink:href="#LiberationSerif-Italic-48" transform="translate(951.828125 0)"/>
      <use xlink:href="#LiberationSerif-Italic-c" transform="translate(996.21875 0)"/>
     </g>
    </g>
   </g>
   <g id="patch_3">
    <path d="M 46.598828 189.783594 
L 46.598828 7.2 
" style="fill: none; stroke: #121212; stroke-width: 0.8; stroke-linejoin: miter; stroke-linecap: square"/>
   </g>
   <g id="patch_4">
    <path d="M 46.598828 189.783594 
L 430.32858 189.783594 
" style="fill: none; stroke: #121212; stroke-width: 0.8; stroke-linejoin: miter; stroke-linecap: square"/>
   </g>
   <g id="line2d_23">
    <path d="M 64.04109 132.839373 
L 95.754292 132.839373 
L 127.467495 80.641209 
L 159.180698 44.094034 
L 190.8939 181.484339 
L 222.607103 158.811555 
L 254.320305 140.368768 
L 286.033508 117.695984 
L 317.746711 99.253196 
L 349.459913 71.589015 
L 381.173116 48.154832 
L 412.886319 15.499254 
" clip-path="url(#p9d80f5527c)" style="fill: none; stroke: #e3120b; stroke-width: 2; stroke-linecap: square"/>
   </g>
   <g id="text_17">
    <!--   Resultado mensal -->
    <g style="fill: #e3120b" transform="translate(412.886319 17.770162) scale(0.095 -0.095)">
     <defs>
      <path id="LiberationSerif-Bold-3" transform="scale(0.015625)"/>
      <path id="LiberationSerif-Bold-35" d="M 1634 1775 
L 1634 313 
L 2172 228 
L 2172 0 
L 150 0 
L 150 228 
L 647 313 
L 647 3881 
L 109 3963 
L 109 4191 
L 2113 4191 
Q 3038 4191 3494 3906 
Q 3950 3622 3950 3019 
Q 3950 2119 3106 1863 
L 4225 313 
L 4678 228 
L 4678 0 
L 3322 0 
L 2153 1775 
L 1634 1775 
z
M 2975 3013 
Q 2975 3481 2781 3664 
Q 2588 3847 2072 3847 
L 1634 3847 
L 1634 2119 
L 2088 2119 
Q 2569 2119 2772 2319 
Q 2975 2519 2975 3013 
z
" transform="scale(0.015625)"/>
      <path id="LiberationSerif-Bold-48" d="M 1544 3009 
Q 2141 3009 2408 2690 
Q 2675 2372 2675 1700 
L 2675 1444 
L 1134 1444 
L 1134 1394 
Q 1134 928 1209 731 
Q 1284 534 1453 431 
Q 1622 328 1916 328 
Q 2191 328 2609 419 
L 2609 178 
Q 2438 75 2164 8 
Q 1891 -59 1631 -59 
Q 909 -59 564 317 
Q 219 694 219 1484 
Q 219 2253 548 2631 
Q 878 3009 1544 3009 
z
M 1509 2694 
Q 1322 2694 1230 2491 
Q 1138 2288 1138 1772 
L 1819 1772 
Q 1819 2191 1791 2361 
Q 1763 2531 1695 2612 
Q 1628 2694 1509 2694 
z
" transform="scale(0.015625)"/>
      <path id="LiberationSerif-Bold-56" d="M 2334 931 
Q 2334 441 2032 189 
Q 1731 -63 1156 -63 
Q 919 -63 633 -11 
Q 347 41 200 97 
L 200 897 
L 406 897 
L 525 484 
Q 634 375 812 301 
Q 991 228 1175 228 
Q 1447 228 1580 345 
Q 1713 463 1713 644 
Q 1713 816 1584 919 
Q 1456 1022 1025 1156 
Q 572 1297 383 1540 
Q 194 1784 194 2141 
Q 194 2541 491 2778 
Q 788 3016 1256 3016 
Q 1578 3016 2122 2925 
L 2122 2172 
L 1916 2172 
L 1816 2516 
Q 1725 2606 1561 2664 
Q 1397 2722 1250 2722 
Q 1025 2722 917 2630 
Q 809 2538 809 2378 
Q 809 2213 943 2106 
Q 1078 2000 1497 1875 
Q 1953 1734 2143 1504 
Q 2334 1275 2334 931 
z
" transform="scale(0.015625)"/>
      <path id="LiberationSerif-Bold-58" d="M 2203 256 
L 1991 147 
Q 1553 -78 1203 -78 
Q 391 -78 391 788 
L 391 2656 
L 97 2731 
L 97 2938 
L 1294 2938 
L 1294 909 
Q 1294 647 1405 500 
Q 1516 353 1722 353 
Q 1959 353 2197 459 
L 2197 2656 
L 1928 2731 
L 1928 2938 
L 3100 2938 
L 3100 281 
L 3388 206 
L 3388 0 
L 2247 0 
L 2203 256 
z
" transform="scale(0.015625)"/>
      <path id="LiberationSerif-Bold-4f" d="M 1347 281 
L 1669 206 
L 1669 0 
L 125 0 
L 125 206 
L 444 281 
L 444 4159 
L 144 4234 
L 144 4441 
L 1347 4441 
L 1347 281 
z
" transform="scale(0.015625)"/>
      <path id="LiberationSerif-Bold-57" d="M 1369 -63 
Q 947 -63 717 128 
Q 488 319 488 678 
L 488 2613 
L 103 2613 
L 103 2816 
L 556 2938 
L 922 3603 
L 1391 3603 
L 1391 2938 
L 2009 2938 
L 2009 2613 
L 1391 2613 
L 1391 734 
Q 1391 531 1475 428 
Q 1559 325 1697 325 
Q 1863 325 2103 375 
L 2103 109 
Q 2009 44 1782 -9 
Q 1556 -63 1369 -63 
z
" transform="scale(0.015625)"/>
      <path id="LiberationSerif-Bold-44" d="M 1706 3003 
Q 2809 3003 2809 2191 
L 2809 281 
L 3103 206 
L 3103 0 
L 2022 0 
L 1953 225 
Q 1709 59 1512 -2 
Q 1316 -63 1116 -63 
Q 206 -63 206 813 
Q 206 1144 340 1342 
Q 475 1541 728 1636 
Q 981 1731 1525 1744 
L 1906 1753 
L 1906 2181 
Q 1906 2713 1472 2713 
Q 1209 2713 884 2550 
L 766 2184 
L 559 2184 
L 559 2894 
Q 1031 2966 1253 2984 
Q 1475 3003 1706 3003 
z
M 1906 1475 
L 1644 1466 
Q 1341 1453 1223 1306 
Q 1106 1159 1106 831 
Q 1106 566 1200 441 
Q 1294 316 1444 316 
Q 1656 316 1906 425 
L 1906 1475 
z
" transform="scale(0.015625)"/>
      <path id="LiberationSerif-Bold-47" d="M 2291 166 
Q 2116 53 2022 17 
Q 1928 -19 1809 -41 
Q 1691 -63 1547 -63 
Q 897 -63 578 310 
Q 259 684 259 1459 
Q 259 2222 601 2619 
Q 944 3016 1594 3016 
Q 1934 3016 2281 2931 
Q 2263 3034 2263 3416 
L 2263 4159 
L 1963 4234 
L 1963 4441 
L 3166 4441 
L 3166 281 
L 3488 206 
L 3488 0 
L 2356 0 
L 2291 166 
z
M 1175 1484 
Q 1175 900 1322 592 
Q 1469 284 1744 284 
Q 1994 284 2263 419 
L 2263 2631 
Q 2019 2697 1769 2697 
Q 1488 2697 1331 2389 
Q 1175 2081 1175 1484 
z
" transform="scale(0.015625)"/>
      <path id="LiberationSerif-Bold-52" d="M 2956 1484 
Q 2956 694 2617 315 
Q 2278 -63 1581 -63 
Q 906 -63 575 320 
Q 244 703 244 1484 
Q 244 2263 580 2639 
Q 916 3016 1606 3016 
Q 2303 3016 2629 2627 
Q 2956 2238 2956 1484 
z
M 2041 1484 
Q 2041 2172 1939 2436 
Q 1838 2700 1588 2700 
Q 1347 2700 1253 2447 
Q 1159 2194 1159 1484 
Q 1159 763 1254 506 
Q 1350 250 1588 250 
Q 1834 250 1937 520 
Q 2041 791 2041 1484 
z
" transform="scale(0.015625)"/>
      <path id="LiberationSerif-Bold-50" d="M 1356 2681 
L 1569 2791 
Q 2006 3016 2353 3016 
Q 2878 3016 3053 2634 
Q 3694 3016 4134 3016 
Q 4928 3016 4928 2150 
L 4928 281 
L 5222 206 
L 5222 0 
L 3763 0 
L 3763 206 
L 4025 281 
L 4025 2028 
Q 4025 2291 3923 2437 
Q 3822 2584 3616 2584 
Q 3384 2584 3116 2453 
Q 3147 2322 3147 2150 
L 3147 281 
L 3441 206 
L 3441 0 
L 1981 0 
L 1981 206 
L 2244 281 
L 2244 2028 
Q 2244 2291 2142 2437 
Q 2041 2584 1834 2584 
Q 1628 2584 1363 2463 
L 1363 281 
L 1631 206 
L 1631 0 
L 172 0 
L 172 206 
L 459 281 
L 459 2656 
L 172 2731 
L 172 2938 
L 1313 2938 
L 1356 2681 
z
" transform="scale(0.015625)"/>
      <path id="LiberationSerif-Bold-51" d="M 1356 2681 
L 1569 2791 
Q 2006 3016 2356 3016 
Q 3169 3016 3169 2150 
L 3169 281 
L 3463 206 
L 3463 0 
L 2003 0 
L 2003 206 
L 2266 281 
L 2266 2028 
Q 2266 2291 2155 2437 
Q 2044 2584 1838 2584 
Q 1600 2584 1363 2478 
L 1363 281 
L 1631 206 
L 1631 0 
L 172 0 
L 172 206 
L 459 281 
L 459 2656 
L 172 2731 
L 172 2938 
L 1313 2938 
L 1356 2681 
z
" transform="scale(0.015625)"/>
     </defs>
     <use xlink:href="#LiberationSerif-Bold-3"/>
     <use xlink:href="#LiberationSerif-Bold-3" transform="translate(25 0)"/>
     <use xlink:href="#LiberationSerif-Bold-35" transform="translate(50 0)"/>
     <use xlink:href="#LiberationSerif-Bold-48" transform="translate(122.21875 0)"/>
     <use xlink:href="#LiberationSerif-Bold-56" transform="translate(166.609375 0)"/>
     <use xlink:href="#LiberationSerif-Bold-58" transform="translate(205.53125 0)"/>
     <use xlink:href="#LiberationSerif-Bold-4f" transform="translate(261.140625 0)"/>
     <use xlink:href="#LiberationSerif-Bold-57" transform="translate(288.921875 0)"/>
     <use xlink:href="#LiberationSerif-Bold-44" transform="translate(322.21875 0)"/>
     <use xlink:href="#LiberationSerif-Bold-47" transform="translate(372.21875 0)"/>
     <use xlink:href="#LiberationSerif-Bold-52" transform="translate(427.828125 0)"/>
     <use xlink:href="#LiberationSerif-Bold-3" transform="translate(477.828125 0)"/>
     <use xlink:href="#LiberationSerif-Bold-50" transform="translate(502.828125 0)"/>
     <use xlink:href="#LiberationSerif-Bold-48" transform="translate(586.125 0)"/>
     <use xlink:href="#LiberationSerif-Bold-51" transform="translate(630.515625 0)"/>
     <use xlink:href="#LiberationSerif-Bold-56" transform="translate(686.125 0)"/>
     <use xlink:href="#LiberationSerif-Bold-44" transform="translate(725.046875 0)"/>
     <use xlink:href="#LiberationSerif-Bold-4f" transform="translate(775.046875 0)"/>
    </g>
   </g>
  </g>
 </g>
 <defs>
  <clipPath id="p9d80f5527c">
   <rect x="46.598828" y="7.2" width="383.729752" height="182.583594"/>
  </clipPath>
 </defs>
</svg>
