<?xml version="1.0" encoding="utf-8" standalone="no"?>
<!DOCTYPE svg PUBLIC "-//W3C//DTD SVG 1.1//EN"
  "http://www.w3.org/Graphics/SVG/1.1/DTD/svg11.dtd">
<svg xmlns:xlink="http://www.w3.org/1999/xlink" width="495.998828pt" height="208.537266pt" viewBox="0 0 495.998828 208.537266" xmlns="http://www.w3.org/2000/svg" version="1.1">
 <metadata>
  <rdf:RDF xmlns:dc="http://purl.org/dc/elements/1.1/" xmlns:cc="http://creativecommons.org/ns#" xmlns:rdf="http://www.w3.org/1999/02/22-rdf-syntax-ns#">
   <cc:Work>
    <dc:type rdf:resource="http://purl.org/dc/dcmitype/StillImage"/>
    <dc:date>2026-06-19T16:51:42.031684</dc:date>
    <dc:format>image/svg+xml</dc:format>
    <dc:creator>
     <cc:Agent>
      <dc:title>Matplotlib v3.11.0, https://matplotlib.org/</dc:title>
     </cc:Agent>
    </dc:creator>
   </cc:Work>
  </rdf:RDF>
 </metadata>
 <defs>
  <style type="text/css">*{stroke-linejoin: round; stroke-linecap: butt}</style>
 </defs>
 <g id="figure_1">
  <g id="patch_1">
   <path d="M 0 208.537266 
L 495.998828 208.537266 
L 495.998828 0 
L 0 0 
z
" style="fill: #fefcf8"/>
  </g>
  <g id="axes_1">
   <g id="patch_2">
    <path d="M 39.098828 188.74 
L 488.798828 188.74 
L 488.798828 7.2 
L 39.098828 7.2 
z
" style="fill: #fefcf8"/>
   </g>
   <g id="matplotlib.axis_1">
    <g id="xtick_1">
     <g id="line2d_1"/>
     <g id="text_1">
      <!-- Concurseiro -->
      <g style="fill: #121212" transform="translate(125.94916 199.173594) scale(0.1 -0.1)">
       <defs>
        <path id="LiberationSerif-26" d="M 2419 -63 
Q 1400 -63 831 492 
Q 263 1047 263 2047 
Q 263 3128 809 3683 
Q 1356 4238 2431 4238 
Q 3084 4238 3834 4078 
L 3853 3163 
L 3647 3163 
L 3553 3706 
Q 3334 3841 3045 3914 
Q 2756 3988 2456 3988 
Q 1653 3988 1284 3516 
Q 916 3044 916 2053 
Q 916 1141 1302 659 
Q 1688 178 2425 178 
Q 2781 178 3097 264 
Q 3413 350 3597 494 
L 3713 1119 
L 3916 1119 
L 3897 134 
Q 3209 -63 2419 -63 
z
" transform="scale(0.015625)"/>
        <path id="LiberationSerif-52" d="M 2956 1484 
Q 2956 -63 1581 -63 
Q 919 -63 581 334 
Q 244 731 244 1484 
Q 244 2228 581 2622 
Q 919 3016 1606 3016 
Q 2275 3016 2615 2630 
Q 2956 2244 2956 1484 
z
M 2394 1484 
Q 2394 2159 2197 2462 
Q 2000 2766 1581 2766 
Q 1172 2766 989 2475 
Q 806 2184 806 1484 
Q 806 775 992 479 
Q 1178 184 1581 184 
Q 1994 184 2194 490 
Q 2394 797 2394 1484 
z
" transform="scale(0.015625)"/>
        <path id="LiberationSerif-51" d="M 1013 2700 
Q 1253 2838 1525 2927 
Q 1797 3016 1978 3016 
Q 2359 3016 2553 2794 
Q 2747 2572 2747 2150 
L 2747 219 
L 3103 141 
L 3103 0 
L 1838 0 
L 1838 141 
L 2228 219 
L 2228 2094 
Q 2228 2353 2101 2501 
Q 1975 2650 1709 2650 
Q 1428 2650 1019 2559 
L 1019 219 
L 1416 141 
L 1416 0 
L 147 0 
L 147 141 
L 500 219 
L 500 2719 
L 147 2797 
L 147 2938 
L 984 2938 
L 1013 2700 
z
" transform="scale(0.015625)"/>
        <path id="LiberationSerif-46" d="M 2644 178 
Q 2491 66 2222 1 
Q 1953 -63 1672 -63 
Q 244 -63 244 1491 
Q 244 2225 608 2620 
Q 972 3016 1650 3016 
Q 2072 3016 2572 2919 
L 2572 2100 
L 2400 2100 
L 2266 2619 
Q 2006 2766 1644 2766 
Q 806 2766 806 1491 
Q 806 828 1061 545 
Q 1316 263 1850 263 
Q 2306 263 2644 366 
L 2644 178 
z
" transform="scale(0.015625)"/>
        <path id="LiberationSerif-58" d="M 978 838 
Q 978 300 1478 300 
Q 1866 300 2203 397 
L 2203 2719 
L 1759 2797 
L 1759 2938 
L 2719 2938 
L 2719 219 
L 3091 141 
L 3091 0 
L 2234 0 
L 2209 238 
Q 1988 116 1697 26 
Q 1406 -63 1209 -63 
Q 459 -63 459 800 
L 459 2719 
L 84 2797 
L 84 2938 
L 978 2938 
L 978 838 
z
" transform="scale(0.015625)"/>
        <path id="LiberationSerif-55" d="M 2075 3016 
L 2075 2222 
L 1941 2222 
L 1759 2566 
Q 1603 2566 1389 2523 
Q 1175 2481 1019 2413 
L 1019 219 
L 1522 141 
L 1522 0 
L 128 0 
L 128 141 
L 500 219 
L 500 2719 
L 128 2797 
L 128 2938 
L 984 2938 
L 1013 2572 
Q 1200 2728 1520 2872 
Q 1841 3016 2028 3016 
L 2075 3016 
z
" transform="scale(0.015625)"/>
        <path id="LiberationSerif-56" d="M 2259 825 
Q 2259 388 1982 162 
Q 1706 -63 1166 -63 
Q 947 -63 683 -17 
Q 419 28 269 84 
L 269 806 
L 409 806 
L 563 397 
Q 797 184 1172 184 
Q 1778 184 1778 703 
Q 1778 1084 1300 1247 
L 1022 1338 
Q 706 1441 562 1547 
Q 419 1653 341 1808 
Q 263 1963 263 2181 
Q 263 2569 527 2792 
Q 791 3016 1241 3016 
Q 1563 3016 2047 2919 
L 2047 2278 
L 1900 2278 
L 1769 2619 
Q 1603 2766 1247 2766 
Q 994 2766 861 2641 
Q 728 2516 728 2303 
Q 728 2125 848 2003 
Q 969 1881 1213 1800 
Q 1672 1644 1812 1572 
Q 1953 1500 2051 1395 
Q 2150 1291 2204 1156 
Q 2259 1022 2259 825 
z
" transform="scale(0.015625)"/>
        <path id="LiberationSerif-48" d="M 813 1478 
L 813 1422 
Q 813 991 908 752 
Q 1003 513 1201 388 
Q 1400 263 1722 263 
Q 1891 263 2122 291 
Q 2353 319 2503 353 
L 2503 178 
Q 2353 81 2095 9 
Q 1838 -63 1569 -63 
Q 884 -63 567 306 
Q 250 675 250 1491 
Q 250 2259 572 2637 
Q 894 3016 1491 3016 
Q 2619 3016 2619 1734 
L 2619 1478 
L 813 1478 
z
M 1491 2766 
Q 1166 2766 992 2503 
Q 819 2241 819 1728 
L 2075 1728 
Q 2075 2288 1931 2527 
Q 1788 2766 1491 2766 
z
" transform="scale(0.015625)"/>
        <path id="LiberationSerif-4c" d="M 1184 3897 
Q 1184 3759 1084 3659 
Q 984 3559 844 3559 
Q 706 3559 606 3659 
Q 506 3759 506 3897 
Q 506 4038 606 4138 
Q 706 4238 844 4238 
Q 984 4238 1084 4138 
Q 1184 4038 1184 3897 
z
M 1153 219 
L 1656 141 
L 1656 0 
L 134 0 
L 134 141 
L 634 219 
L 634 2719 
L 219 2797 
L 219 2938 
L 1153 2938 
L 1153 219 
z
" transform="scale(0.015625)"/>
       </defs>
       <use xlink:href="#LiberationSerif-26"/>
       <use xlink:href="#LiberationSerif-52" transform="translate(66.703125 0)"/>
       <use xlink:href="#LiberationSerif-51" transform="translate(116.703125 0)"/>
       <use xlink:href="#LiberationSerif-46" transform="translate(166.703125 0)"/>
       <use xlink:href="#LiberationSerif-58" transform="translate(211.09375 0)"/>
       <use xlink:href="#LiberationSerif-55" transform="translate(261.09375 0)"/>
       <use xlink:href="#LiberationSerif-56" transform="translate(294.390625 0)"/>
       <use xlink:href="#LiberationSerif-48" transform="translate(333.3125 0)"/>
       <use xlink:href="#LiberationSerif-4c" transform="translate(377.703125 0)"/>
       <use xlink:href="#LiberationSerif-55" transform="translate(405.484375 0)"/>
       <use xlink:href="#LiberationSerif-52" transform="translate(438.78125 0)"/>
      </g>
     </g>
    </g>
    <g id="xtick_2">
     <g id="line2d_2"/>
     <g id="text_2">
      <!-- Treino de Força -->
      <g style="fill: #121212" transform="translate(345.753965 199.179062) scale(0.1 -0.1)">
       <defs>
        <path id="LiberationSerif-37" d="M 984 0 
L 984 166 
L 1650 250 
L 1650 3922 
L 1491 3922 
Q 700 3922 409 3859 
L 325 3206 
L 116 3206 
L 116 4191 
L 3803 4191 
L 3803 3206 
L 3591 3206 
L 3506 3859 
Q 3413 3881 3097 3898 
Q 2781 3916 2406 3916 
L 2253 3916 
L 2253 250 
L 2919 166 
L 2919 0 
L 984 0 
z
" transform="scale(0.015625)"/>
        <path id="LiberationSerif-3" transform="scale(0.015625)"/>
        <path id="LiberationSerif-47" d="M 2259 219 
Q 1906 -63 1434 -63 
Q 231 -63 231 1441 
Q 231 2213 572 2614 
Q 913 3016 1575 3016 
Q 1913 3016 2259 2944 
Q 2241 3047 2241 3463 
L 2241 4225 
L 1747 4300 
L 1747 4441 
L 2759 4441 
L 2759 219 
L 3122 141 
L 3122 0 
L 2297 0 
L 2259 219 
z
M 794 1441 
Q 794 847 994 555 
Q 1194 263 1606 263 
Q 1959 263 2241 384 
L 2241 2706 
Q 1963 2759 1606 2759 
Q 794 2759 794 1441 
z
" transform="scale(0.015625)"/>
        <path id="LiberationSerif-29" d="M 1325 1881 
L 1325 250 
L 2022 166 
L 2022 0 
L 225 0 
L 225 166 
L 722 250 
L 722 3944 
L 184 4025 
L 184 4191 
L 3328 4191 
L 3328 3188 
L 3122 3188 
L 3022 3866 
Q 2672 3909 2009 3909 
L 1325 3909 
L 1325 2163 
L 2559 2163 
L 2656 2663 
L 2847 2663 
L 2847 1375 
L 2656 1375 
L 2559 1881 
L 1325 1881 
z
" transform="scale(0.015625)"/>
        <path id="LiberationSerif-a9" d="M 2644 178 
Q 2491 66 2222 1 
Q 1953 -63 1672 -63 
Q 244 -63 244 1491 
Q 244 2225 608 2620 
Q 972 3016 1650 3016 
Q 2072 3016 2572 2919 
L 2572 2100 
L 2400 2100 
L 2266 2619 
Q 2006 2766 1644 2766 
Q 806 2766 806 1491 
Q 806 828 1061 545 
Q 1316 263 1850 263 
Q 2306 263 2644 366 
L 2644 178 
z
M 2206 -731 
Q 2206 -1019 1989 -1191 
Q 1772 -1363 1434 -1363 
Q 1197 -1363 1003 -1294 
L 1003 -1063 
Q 1072 -1084 1190 -1098 
Q 1309 -1113 1378 -1113 
Q 1565 -1113 1649 -1020 
Q 1734 -928 1734 -788 
Q 1734 -634 1609 -537 
Q 1484 -441 1259 -422 
L 1387 56 
L 1656 56 
L 1600 -200 
Q 1884 -228 2045 -365 
Q 2206 -503 2206 -731 
z
" transform="scale(0.015625)"/>
        <path id="LiberationSerif-44" d="M 1453 3003 
Q 1934 3003 2161 2806 
Q 2388 2609 2388 2203 
L 2388 219 
L 2753 141 
L 2753 0 
L 1947 0 
L 1888 294 
Q 1531 -63 978 -63 
Q 225 -63 225 813 
Q 225 1106 339 1298 
Q 453 1491 703 1592 
Q 953 1694 1428 1703 
L 1869 1716 
L 1869 2175 
Q 1869 2478 1758 2622 
Q 1647 2766 1416 2766 
Q 1103 2766 844 2619 
L 738 2253 
L 563 2253 
L 563 2894 
Q 1069 3003 1453 3003 
z
M 1869 1497 
L 1459 1484 
Q 1041 1469 892 1322 
Q 744 1175 744 831 
Q 744 281 1191 281 
Q 1403 281 1558 329 
Q 1713 378 1869 453 
L 1869 1497 
z
" transform="scale(0.015625)"/>
       </defs>
       <use xlink:href="#LiberationSerif-37"/>
       <use xlink:href="#LiberationSerif-55" transform="translate(57.5625 0)"/>
       <use xlink:href="#LiberationSerif-48" transform="translate(90.859375 0)"/>
       <use xlink:href="#LiberationSerif-4c" transform="translate(135.25 0)"/>
       <use xlink:href="#LiberationSerif-51" transform="translate(163.03125 0)"/>
       <use xlink:href="#LiberationSerif-52" transform="translate(213.03125 0)"/>
       <use xlink:href="#LiberationSerif-3" transform="translate(263.03125 0)"/>
       <use xlink:href="#LiberationSerif-47" transform="translate(288.03125 0)"/>
       <use xlink:href="#LiberationSerif-48" transform="translate(338.03125 0)"/>
       <use xlink:href="#LiberationSerif-3" transform="translate(382.421875 0)"/>
       <use xlink:href="#LiberationSerif-29" transform="translate(407.421875 0)"/>
       <use xlink:href="#LiberationSerif-52" transform="translate(463.03125 0)"/>
       <use xlink:href="#LiberationSerif-55" transform="translate(513.03125 0)"/>
       <use xlink:href="#LiberationSerif-a9" transform="translate(546.328125 0)"/>
       <use xlink:href="#LiberationSerif-44" transform="translate(590.71875 0)"/>
      </g>
     </g>
    </g>
   </g>
   <g id="matplotlib.axis_2">
    <g id="ytick_1">
     <g id="line2d_3">
      <path d="M 39.098828 188.74 
L 488.798828 188.74 
" clip-path="url(#pe7de7660d6)" style="fill: none; stroke: #758d99; stroke-opacity: 0.4; stroke-width: 0.4; stroke-linecap: square"/>
     </g>
     <g id="line2d_4"/>
     <g id="text_3">
      <!-- 0 -->
      <g style="fill: #121212" transform="translate(30.598828 192.206797) scale(0.1 -0.1)">
       <defs>
        <path id="LiberationSerif-13" d="M 2956 2113 
Q 2956 -63 1581 -63 
Q 919 -63 581 493 
Q 244 1050 244 2113 
Q 244 3153 581 3704 
Q 919 4256 1606 4256 
Q 2269 4256 2612 3711 
Q 2956 3166 2956 2113 
z
M 2381 2113 
Q 2381 3119 2190 3562 
Q 2000 4006 1581 4006 
Q 1175 4006 997 3587 
Q 819 3169 819 2113 
Q 819 1050 1000 617 
Q 1181 184 1581 184 
Q 1994 184 2187 639 
Q 2381 1094 2381 2113 
z
" transform="scale(0.015625)"/>
       </defs>
       <use xlink:href="#LiberationSerif-13"/>
      </g>
     </g>
    </g>
    <g id="ytick_2">
     <g id="line2d_5">
      <path d="M 39.098828 155.239663 
L 488.798828 155.239663 
" clip-path="url(#pe7de7660d6)" style="fill: none; stroke: #758d99; stroke-opacity: 0.4; stroke-width: 0.4; stroke-linecap: square"/>
     </g>
     <g id="line2d_6"/>
     <g id="text_4">
      <!-- 100 -->
      <g style="fill: #121212" transform="translate(20.598828 158.70646) scale(0.1 -0.1)">
       <defs>
        <path id="LiberationSerif-14" d="M 1959 250 
L 2816 166 
L 2816 0 
L 563 0 
L 563 166 
L 1422 250 
L 1422 3669 
L 575 3366 
L 575 3531 
L 1797 4225 
L 1959 4225 
L 1959 250 
z
" transform="scale(0.015625)"/>
       </defs>
       <use xlink:href="#LiberationSerif-14"/>
       <use xlink:href="#LiberationSerif-13" transform="translate(50 0)"/>
       <use xlink:href="#LiberationSerif-13" transform="translate(100 0)"/>
      </g>
     </g>
    </g>
    <g id="ytick_3">
     <g id="line2d_7">
      <path d="M 39.098828 121.739326 
L 488.798828 121.739326 
" clip-path="url(#pe7de7660d6)" style="fill: none; stroke: #758d99; stroke-opacity: 0.4; stroke-width: 0.4; stroke-linecap: square"/>
     </g>
     <g id="line2d_8"/>
     <g id="text_5">
      <!-- 200 -->
      <g style="fill: #121212" transform="translate(20.598828 125.206123) scale(0.1 -0.1)">
       <defs>
        <path id="LiberationSerif-15" d="M 2847 0 
L 281 0 
L 281 459 
L 863 988 
Q 1422 1478 1684 1781 
Q 1947 2084 2061 2406 
Q 2175 2728 2175 3144 
Q 2175 3550 1990 3762 
Q 1806 3975 1388 3975 
Q 1222 3975 1047 3929 
Q 872 3884 738 3809 
L 628 3297 
L 422 3297 
L 422 4103 
Q 991 4238 1388 4238 
Q 2075 4238 2420 3952 
Q 2766 3666 2766 3144 
Q 2766 2794 2630 2483 
Q 2494 2172 2212 1864 
Q 1931 1556 1281 1003 
Q 1003 766 691 481 
L 2847 481 
L 2847 0 
z
" transform="scale(0.015625)"/>
       </defs>
       <use xlink:href="#LiberationSerif-15"/>
       <use xlink:href="#LiberationSerif-13" transform="translate(50 0)"/>
       <use xlink:href="#LiberationSerif-13" transform="translate(100 0)"/>
      </g>
     </g>
    </g>
    <g id="ytick_4">
     <g id="line2d_9">
      <path d="M 39.098828 88.23899 
L 488.798828 88.23899 
" clip-path="url(#pe7de7660d6)" style="fill: none; stroke: #758d99; stroke-opacity: 0.4; stroke-width: 0.4; stroke-linecap: square"/>
     </g>
     <g id="line2d_10"/>
     <g id="text_6">
      <!-- 300 -->
      <g style="fill: #121212" transform="translate(20.598828 91.705787) scale(0.1 -0.1)">
       <defs>
        <path id="LiberationSerif-16" d="M 2950 1141 
Q 2950 575 2562 256 
Q 2175 -63 1466 -63 
Q 872 -63 341 72 
L 306 953 
L 513 953 
L 653 366 
Q 775 297 998 247 
Q 1222 197 1416 197 
Q 1906 197 2140 422 
Q 2375 647 2375 1172 
Q 2375 1584 2159 1798 
Q 1944 2013 1491 2034 
L 1044 2059 
L 1044 2316 
L 1491 2344 
Q 1844 2363 2012 2563 
Q 2181 2763 2181 3169 
Q 2181 3591 1998 3783 
Q 1816 3975 1416 3975 
Q 1250 3975 1069 3929 
Q 888 3884 750 3809 
L 641 3297 
L 434 3297 
L 434 4103 
Q 744 4184 969 4211 
Q 1194 4238 1416 4238 
Q 2759 4238 2759 3206 
Q 2759 2772 2520 2514 
Q 2281 2256 1844 2194 
Q 2413 2128 2681 1867 
Q 2950 1606 2950 1141 
z
" transform="scale(0.015625)"/>
       </defs>
       <use xlink:href="#LiberationSerif-16"/>
       <use xlink:href="#LiberationSerif-13" transform="translate(50 0)"/>
       <use xlink:href="#LiberationSerif-13" transform="translate(100 0)"/>
      </g>
     </g>
    </g>
    <g id="ytick_5">
     <g id="line2d_11">
      <path d="M 39.098828 54.738653 
L 488.798828 54.738653 
" clip-path="url(#pe7de7660d6)" style="fill: none; stroke: #758d99; stroke-opacity: 0.4; stroke-width: 0.4; stroke-linecap: square"/>
     </g>
     <g id="line2d_12"/>
     <g id="text_7">
      <!-- 400 -->
      <g style="fill: #121212" transform="translate(20.598828 58.20545) scale(0.1 -0.1)">
       <defs>
        <path id="LiberationSerif-17" d="M 2531 922 
L 2531 0 
L 1994 0 
L 1994 922 
L 125 922 
L 125 1338 
L 2172 4213 
L 2531 4213 
L 2531 1369 
L 3100 1369 
L 3100 922 
L 2531 922 
z
M 1994 3478 
L 1978 3478 
L 478 1369 
L 1994 1369 
L 1994 3478 
z
" transform="scale(0.015625)"/>
       </defs>
       <use xlink:href="#LiberationSerif-17"/>
       <use xlink:href="#LiberationSerif-13" transform="translate(50 0)"/>
       <use xlink:href="#LiberationSerif-13" transform="translate(100 0)"/>
      </g>
     </g>
    </g>
    <g id="ytick_6">
     <g id="line2d_13">
      <path d="M 39.098828 21.238316 
L 488.798828 21.238316 
" clip-path="url(#pe7de7660d6)" style="fill: none; stroke: #758d99; stroke-opacity: 0.4; stroke-width: 0.4; stroke-linecap: square"/>
     </g>
     <g id="line2d_14"/>
     <g id="text_8">
      <!-- 500 -->
      <g style="fill: #121212" transform="translate(20.598828 24.705113) scale(0.1 -0.1)">
       <defs>
        <path id="LiberationSerif-18" d="M 1516 2450 
Q 2241 2450 2595 2153 
Q 2950 1856 2950 1247 
Q 2950 616 2565 276 
Q 2181 -63 1466 -63 
Q 872 -63 406 72 
L 372 953 
L 578 953 
L 719 366 
Q 856 291 1048 244 
Q 1241 197 1416 197 
Q 1909 197 2142 430 
Q 2375 663 2375 1216 
Q 2375 1603 2275 1801 
Q 2175 2000 1956 2094 
Q 1738 2188 1369 2188 
Q 1084 2188 813 2113 
L 513 2113 
L 513 4191 
L 2638 4191 
L 2638 3713 
L 794 3713 
L 794 2375 
Q 1131 2450 1516 2450 
z
" transform="scale(0.015625)"/>
       </defs>
       <use xlink:href="#LiberationSerif-18"/>
       <use xlink:href="#LiberationSerif-13" transform="translate(50 0)"/>
       <use xlink:href="#LiberationSerif-13" transform="translate(100 0)"/>
      </g>
     </g>
    </g>
    <g id="text_9">
     <!-- R$ por cliente -->
     <g style="fill: #121212" transform="translate(14.440625 126.295781) rotate(-90) scale(0.1 -0.1)">
      <defs>
       <path id="LiberationSerif-Italic-35" d="M 1388 1838 
L 1106 250 
L 1666 166 
L 1634 0 
L -34 0 
L -3 166 
L 503 250 
L 1156 3944 
L 631 4025 
L 663 4191 
L 2325 4191 
Q 3009 4191 3368 3931 
Q 3728 3672 3728 3175 
Q 3728 2188 2634 1925 
L 3344 250 
L 3803 166 
L 3772 0 
L 2809 0 
L 2041 1838 
L 1388 1838 
z
M 1925 2119 
Q 2494 2119 2801 2389 
Q 3109 2659 3109 3156 
Q 3109 3909 2216 3909 
L 1753 3909 
L 1438 2119 
L 1925 2119 
z
" transform="scale(0.015625)"/>
       <path id="LiberationSerif-Italic-7" d="M 238 1159 
L 441 1159 
L 444 563 
Q 559 397 781 297 
Q 1003 197 1263 191 
L 1581 1994 
Q 1163 2203 992 2347 
Q 822 2491 723 2670 
Q 625 2850 625 3094 
Q 625 3634 969 3925 
Q 1313 4216 1975 4234 
L 2047 4634 
L 2303 4634 
L 2231 4234 
Q 2678 4225 3097 4119 
L 2944 3247 
L 2741 3247 
L 2725 3781 
Q 2531 3938 2184 3969 
L 1919 2459 
Q 2372 2216 2548 2062 
Q 2725 1909 2831 1721 
Q 2938 1534 2938 1294 
Q 2938 684 2570 335 
Q 2203 -13 1475 -56 
L 1400 -488 
L 1144 -488 
L 1219 -63 
Q 516 -50 75 228 
L 238 1159 
z
M 2381 1184 
Q 2381 1338 2325 1455 
Q 2269 1572 2158 1667 
Q 2047 1763 1819 1878 
L 1522 206 
Q 1944 259 2162 511 
Q 2381 763 2381 1184 
z
M 1172 3203 
Q 1172 3013 1289 2864 
Q 1406 2716 1681 2572 
L 1928 3969 
Q 1566 3941 1369 3742 
Q 1172 3544 1172 3203 
z
" transform="scale(0.015625)"/>
       <path id="LiberationSerif-Italic-3" transform="scale(0.015625)"/>
       <path id="LiberationSerif-Italic-53" d="M 728 6 
L 694 -275 
L 544 -1141 
L 1044 -1216 
L 1019 -1363 
L -375 -1363 
L -350 -1216 
L 28 -1141 
L 713 2719 
L 391 2797 
L 416 2938 
L 1244 2938 
L 1184 2463 
Q 1731 3016 2169 3016 
Q 2547 3016 2776 2737 
Q 3006 2459 3006 1972 
Q 3006 1422 2772 948 
Q 2538 475 2134 206 
Q 1731 -63 1259 -63 
Q 1116 -63 961 -42 
Q 806 -22 728 6 
z
M 803 334 
Q 997 184 1328 184 
Q 1638 184 1889 412 
Q 2141 641 2294 1052 
Q 2447 1463 2447 1891 
Q 2447 2238 2308 2431 
Q 2169 2625 1934 2625 
Q 1769 2625 1544 2503 
Q 1319 2381 1144 2191 
L 803 334 
z
" transform="scale(0.015625)"/>
       <path id="LiberationSerif-Italic-52" d="M 741 1063 
Q 741 641 905 417 
Q 1069 194 1363 194 
Q 1647 194 1905 422 
Q 2163 650 2313 1045 
Q 2463 1441 2463 1894 
Q 2463 2325 2298 2548 
Q 2134 2772 1828 2772 
Q 1544 2772 1289 2544 
Q 1034 2316 887 1920 
Q 741 1525 741 1063 
z
M 1334 -63 
Q 816 -63 503 270 
Q 191 603 191 1169 
Q 191 1672 406 2100 
Q 622 2528 1005 2772 
Q 1388 3016 1866 3016 
Q 2384 3016 2696 2683 
Q 3009 2350 3009 1784 
Q 3009 1281 2793 853 
Q 2578 425 2195 181 
Q 1813 -63 1334 -63 
z
" transform="scale(0.015625)"/>
       <path id="LiberationSerif-Italic-55" d="M 2263 3016 
Q 2419 3016 2509 2991 
L 2372 2222 
L 2238 2222 
L 2119 2619 
Q 1869 2619 1601 2428 
Q 1334 2238 1113 1925 
L 778 0 
L 259 0 
L 738 2719 
L 369 2797 
L 394 2938 
L 1259 2938 
L 1163 2275 
Q 1397 2628 1686 2822 
Q 1975 3016 2263 3016 
z
" transform="scale(0.015625)"/>
       <path id="LiberationSerif-Italic-46" d="M 2419 444 
Q 2166 209 1850 73 
Q 1534 -63 1250 -63 
Q 747 -63 472 228 
Q 197 519 197 1031 
Q 197 1575 415 2023 
Q 634 2472 1039 2744 
Q 1444 3016 1888 3016 
Q 2109 3016 2359 2969 
Q 2609 2922 2772 2853 
L 2631 2034 
L 2459 2034 
L 2409 2578 
Q 2213 2775 1884 2775 
Q 1584 2775 1323 2553 
Q 1063 2331 906 1934 
Q 750 1538 750 1063 
Q 750 263 1394 263 
Q 1841 263 2325 575 
L 2419 444 
z
" transform="scale(0.015625)"/>
       <path id="LiberationSerif-Italic-4f" d="M 897 219 
L 1388 141 
L 1363 0 
L 341 0 
L 1081 4225 
L 678 4300 
L 703 4441 
L 1638 4441 
L 897 219 
z
" transform="scale(0.015625)"/>
       <path id="LiberationSerif-Italic-4c" d="M 913 219 
L 1403 141 
L 1378 0 
L 356 0 
L 834 2719 
L 431 2797 
L 456 2938 
L 1391 2938 
L 913 219 
z
M 1584 3897 
Q 1584 3759 1484 3659 
Q 1384 3559 1244 3559 
Q 1106 3559 1006 3659 
Q 906 3759 906 3897 
Q 906 4038 1006 4138 
Q 1106 4238 1244 4238 
Q 1384 4238 1484 4138 
Q 1584 4038 1584 3897 
z
" transform="scale(0.015625)"/>
       <path id="LiberationSerif-Italic-48" d="M 2697 2375 
Q 2697 1950 2172 1650 
Q 1647 1350 763 1291 
L 750 1063 
Q 750 666 917 464 
Q 1084 263 1413 263 
Q 1694 263 1931 358 
Q 2169 453 2375 575 
L 2466 444 
Q 2178 200 1858 68 
Q 1538 -63 1250 -63 
Q 744 -63 470 220 
Q 197 503 197 1031 
Q 197 1553 417 2004 
Q 638 2456 1028 2736 
Q 1419 3016 1847 3016 
Q 2231 3016 2464 2839 
Q 2697 2663 2697 2375 
z
M 788 1488 
Q 1406 1534 1778 1778 
Q 2150 2022 2150 2375 
Q 2150 2550 2054 2662 
Q 1959 2775 1778 2775 
Q 1559 2775 1353 2597 
Q 1147 2419 997 2119 
Q 847 1819 788 1488 
z
" transform="scale(0.015625)"/>
       <path id="LiberationSerif-Italic-51" d="M 2359 2338 
Q 2359 2478 2284 2565 
Q 2209 2653 2047 2653 
Q 1816 2653 1542 2456 
Q 1269 2259 1091 1969 
L 747 0 
L 228 0 
L 706 2722 
L 338 2800 
L 363 2941 
L 1231 2941 
L 1147 2341 
Q 1409 2678 1690 2847 
Q 1972 3016 2244 3016 
Q 2559 3016 2718 2845 
Q 2878 2675 2878 2356 
Q 2878 2313 2865 2222 
Q 2853 2131 2525 216 
L 2934 141 
L 2909 0 
L 1969 0 
L 2288 1819 
Q 2359 2216 2359 2338 
z
" transform="scale(0.015625)"/>
       <path id="LiberationSerif-Italic-57" d="M 825 544 
Q 825 403 895 333 
Q 966 263 1075 263 
Q 1303 263 1550 356 
L 1616 209 
Q 1231 -63 838 -63 
Q 591 -63 448 87 
Q 306 238 306 506 
Q 306 597 323 720 
Q 341 844 666 2675 
L 281 2675 
L 306 2816 
L 722 2938 
L 1150 3603 
L 1350 3603 
L 1234 2938 
L 1906 2938 
L 1856 2675 
L 1184 2675 
L 881 959 
Q 825 672 825 544 
z
" transform="scale(0.015625)"/>
      </defs>
      <use xlink:href="#LiberationSerif-Italic-35"/>
      <use xlink:href="#LiberationSerif-Italic-7" transform="translate(61.078125 0)"/>
      <use xlink:href="#LiberationSerif-Italic-3" transform="translate(111.078125 0)"/>
      <use xlink:href="#LiberationSerif-Italic-53" transform="translate(136.078125 0)"/>
      <use xlink:href="#LiberationSerif-Italic-52" transform="translate(186.078125 0)"/>
      <use xlink:href="#LiberationSerif-Italic-55" transform="translate(236.078125 0)"/>
      <use xlink:href="#LiberationSerif-Italic-3" transform="translate(275 0)"/>
      <use xlink:href="#LiberationSerif-Italic-46" transform="translate(300 0)"/>
      <use xlink:href="#LiberationSerif-Italic-4f" transform="translate(344.390625 0)"/>
      <use xlink:href="#LiberationSerif-Italic-4c" transform="translate(372.171875 0)"/>
      <use xlink:href="#LiberationSerif-Italic-48" transform="translate(399.953125 0)"/>
      <use xlink:href="#LiberationSerif-Italic-51" transform="translate(444.34375 0)"/>
      <use xlink:href="#LiberationSerif-Italic-57" transform="translate(494.34375 0)"/>
      <use xlink:href="#LiberationSerif-Italic-48" transform="translate(522.125 0)"/>
     </g>
    </g>
   </g>
   <g id="patch_3">
    <path d="M 39.098828 188.74 
L 39.098828 7.2 
" style="fill: none; stroke: #121212; stroke-width: 0.8; stroke-linejoin: miter; stroke-linecap: square"/>
   </g>
   <g id="patch_4">
    <path d="M 39.098828 188.74 
L 488.798828 188.74 
" style="fill: none; stroke: #121212; stroke-width: 0.8; stroke-linejoin: miter; stroke-linecap: square"/>
   </g>
   <g id="patch_5">
    <path d="M 59.539737 188.74 
L 150.388222 188.74 
L 150.388222 63.44874 
L 59.539737 63.44874 
z
" clip-path="url(#pe7de7660d6)" style="fill: #006ba2"/>
   </g>
   <g id="patch_6">
    <path d="M 286.660949 188.74 
L 377.509434 188.74 
L 377.509434 55.743663 
L 286.660949 55.743663 
z
" clip-path="url(#pe7de7660d6)" style="fill: #006ba2"/>
   </g>
   <g id="text_10">
    <!-- 374 -->
    <g style="fill: #006ba2" transform="translate(98.58898 58.954341) scale(0.085 -0.085)">
     <defs>
      <path id="LiberationSerif-Bold-16" d="M 2981 1141 
Q 2981 569 2572 253 
Q 2163 -63 1434 -63 
Q 853 -63 278 63 
L 241 1078 
L 528 1078 
L 691 406 
Q 963 253 1259 253 
Q 1638 253 1850 495 
Q 2063 738 2063 1172 
Q 2063 1550 1892 1751 
Q 1722 1953 1341 1978 
L 978 2000 
L 978 2378 
L 1328 2403 
Q 1606 2422 1739 2608 
Q 1872 2794 1872 3169 
Q 1872 3519 1714 3719 
Q 1556 3919 1266 3919 
Q 1097 3919 989 3867 
Q 881 3816 784 3756 
L 650 3150 
L 378 3150 
L 378 4103 
Q 697 4184 928 4211 
Q 1159 4238 1384 4238 
Q 2794 4238 2794 3206 
Q 2794 2781 2569 2518 
Q 2344 2256 1925 2194 
Q 2981 2066 2981 1141 
z
" transform="scale(0.015625)"/>
      <path id="LiberationSerif-Bold-1a" d="M 638 2994 
L 366 2994 
L 366 4191 
L 3044 4191 
L 3044 3944 
L 1416 0 
L 669 0 
L 2434 3494 
L 781 3494 
L 638 2994 
z
" transform="scale(0.015625)"/>
      <path id="LiberationSerif-Bold-17" d="M 2663 828 
L 2663 0 
L 1822 0 
L 1822 828 
L 88 828 
L 88 1338 
L 1975 4213 
L 2663 4213 
L 2663 1469 
L 3081 1469 
L 3081 828 
L 2663 828 
z
M 1822 2709 
Q 1822 3059 1853 3372 
L 606 1469 
L 1822 1469 
L 1822 2709 
z
" transform="scale(0.015625)"/>
     </defs>
     <use xlink:href="#LiberationSerif-Bold-16"/>
     <use xlink:href="#LiberationSerif-Bold-1a" transform="translate(50 0)"/>
     <use xlink:href="#LiberationSerif-Bold-17" transform="translate(100 0)"/>
    </g>
   </g>
   <g id="text_11">
    <!-- 397 -->
    <g style="fill: #006ba2" transform="translate(325.710192 51.249264) scale(0.085 -0.085)">
     <defs>
      <path id="LiberationSerif-Bold-1c" d="M 175 2913 
Q 175 3550 540 3894 
Q 906 4238 1556 4238 
Q 2291 4238 2630 3722 
Q 2969 3206 2969 2106 
Q 2969 1400 2770 915 
Q 2572 431 2200 184 
Q 1828 -63 1306 -63 
Q 788 -63 334 72 
L 334 1025 
L 606 1025 
L 741 419 
Q 850 341 1001 297 
Q 1153 253 1294 253 
Q 1631 253 1820 636 
Q 2009 1019 2041 1744 
Q 1716 1628 1394 1628 
Q 828 1628 501 1965 
Q 175 2303 175 2913 
z
M 1094 2900 
Q 1094 2006 1581 2006 
Q 1819 2006 2050 2063 
L 2050 2106 
Q 2050 3009 1942 3465 
Q 1834 3922 1563 3922 
Q 1094 3922 1094 2900 
z
" transform="scale(0.015625)"/>
     </defs>
     <use xlink:href="#LiberationSerif-Bold-16"/>
     <use xlink:href="#LiberationSerif-Bold-1c" transform="translate(50 0)"/>
     <use xlink:href="#LiberationSerif-Bold-1a" transform="translate(100 0)"/>
    </g>
   </g>
   <g id="patch_7">
    <path d="M 150.388222 188.74 
L 241.236707 188.74 
L 241.236707 171.989832 
L 150.388222 171.989832 
z
" clip-path="url(#pe7de7660d6)" style="fill: #e3120b"/>
   </g>
   <g id="patch_8">
    <path d="M 377.509434 188.74 
L 468.357919 188.74 
L 468.357919 171.989832 
L 377.509434 171.989832 
z
" clip-path="url(#pe7de7660d6)" style="fill: #e3120b"/>
   </g>
   <g id="text_12">
    <!-- 50 -->
    <g style="fill: #e3120b" transform="translate(191.562464 169.820356) scale(0.085 -0.085)">
     <defs>
      <path id="LiberationSerif-Bold-18" d="M 1500 2478 
Q 2244 2478 2605 2172 
Q 2966 1866 2966 1247 
Q 2966 616 2573 276 
Q 2181 -63 1450 -63 
Q 869 -63 294 63 
L 256 1078 
L 544 1078 
L 706 406 
Q 828 338 1006 295 
Q 1184 253 1328 253 
Q 2047 253 2047 1216 
Q 2047 1716 1864 1939 
Q 1681 2163 1281 2163 
Q 1059 2163 875 2081 
L 778 2041 
L 466 2041 
L 466 4191 
L 2653 4191 
L 2653 3494 
L 813 3494 
L 813 2394 
Q 1194 2478 1500 2478 
z
" transform="scale(0.015625)"/>
      <path id="LiberationSerif-Bold-13" d="M 2956 2113 
Q 2956 -63 1581 -63 
Q 919 -63 581 493 
Q 244 1050 244 2113 
Q 244 3153 581 3704 
Q 919 4256 1606 4256 
Q 2269 4256 2612 3711 
Q 2956 3166 2956 2113 
z
M 2041 2113 
Q 2041 3088 1931 3514 
Q 1822 3941 1588 3941 
Q 1356 3941 1257 3528 
Q 1159 3116 1159 2113 
Q 1159 1094 1259 672 
Q 1359 250 1588 250 
Q 1819 250 1930 683 
Q 2041 1116 2041 2113 
z
" transform="scale(0.015625)"/>
     </defs>
     <use xlink:href="#LiberationSerif-Bold-18"/>
     <use xlink:href="#LiberationSerif-Bold-13" transform="translate(50 0)"/>
    </g>
   </g>
   <g id="text_13">
    <!-- 50 -->
    <g style="fill: #e3120b" transform="translate(418.683677 169.820356) scale(0.085 -0.085)">
     <use xlink:href="#LiberationSerif-Bold-18"/>
     <use xlink:href="#LiberationSerif-Bold-13" transform="translate(50 0)"/>
    </g>
   </g>
   <g id="legend_1">
    <g id="patch_9">
     <path d="M 184.586406 21.6 
L 202.586406 21.6 
L 202.586406 15.3 
L 184.586406 15.3 
z
" style="fill: #006ba2"/>
    </g>
    <g id="text_14">
     <!-- LTV (margem) -->
     <g transform="translate(209.786406 21.6) scale(0.09 -0.09)">
      <defs>
       <path id="LiberationSerif-2f" d="M 1972 4025 
L 1325 3944 
L 1325 269 
L 2150 269 
Q 2816 269 3128 331 
L 3322 1203 
L 3525 1203 
L 3469 0 
L 184 0 
L 184 166 
L 722 250 
L 722 3944 
L 184 4025 
L 184 4191 
L 1972 4191 
L 1972 4025 
z
" transform="scale(0.015625)"/>
       <path id="LiberationSerif-39" d="M 4550 4191 
L 4550 4025 
L 4091 3944 
L 2406 -97 
L 2247 -97 
L 544 3944 
L 72 4025 
L 72 4191 
L 1766 4191 
L 1766 4025 
L 1203 3944 
L 2472 859 
L 3738 3944 
L 3188 4025 
L 3188 4191 
L 4550 4191 
z
" transform="scale(0.015625)"/>
       <path id="LiberationSerif-b" d="M 884 1544 
Q 884 731 993 248 
Q 1103 -234 1337 -565 
Q 1572 -897 1925 -1100 
L 1925 -1363 
Q 1306 -1034 957 -645 
Q 609 -256 445 270 
Q 281 797 281 1544 
Q 281 2288 443 2811 
Q 606 3334 953 3721 
Q 1300 4109 1925 4441 
L 1925 4178 
Q 1544 3959 1319 3617 
Q 1094 3275 989 2819 
Q 884 2363 884 1544 
z
" transform="scale(0.015625)"/>
       <path id="LiberationSerif-50" d="M 1019 2700 
Q 1253 2834 1515 2925 
Q 1778 3016 1978 3016 
Q 2194 3016 2376 2934 
Q 2559 2853 2650 2675 
Q 2891 2809 3214 2912 
Q 3538 3016 3750 3016 
Q 4500 3016 4500 2150 
L 4500 219 
L 4878 141 
L 4878 0 
L 3544 0 
L 3544 141 
L 3981 219 
L 3981 2094 
Q 3981 2631 3481 2631 
Q 3400 2631 3292 2618 
Q 3184 2606 3076 2590 
Q 2969 2575 2870 2554 
Q 2772 2534 2706 2522 
Q 2759 2353 2759 2150 
L 2759 219 
L 3200 141 
L 3200 0 
L 1806 0 
L 1806 141 
L 2241 219 
L 2241 2094 
Q 2241 2353 2108 2492 
Q 1975 2631 1709 2631 
Q 1434 2631 1025 2541 
L 1025 219 
L 1466 141 
L 1466 0 
L 134 0 
L 134 141 
L 506 219 
L 506 2719 
L 134 2797 
L 134 2938 
L 994 2938 
L 1019 2700 
z
" transform="scale(0.015625)"/>
       <path id="LiberationSerif-4a" d="M 2719 2009 
Q 2719 1503 2416 1243 
Q 2113 984 1544 984 
Q 1288 984 1069 1031 
L 872 622 
Q 881 569 993 522 
Q 1106 475 1275 475 
L 2144 475 
Q 2619 475 2848 269 
Q 3078 63 3078 -300 
Q 3078 -628 2895 -872 
Q 2713 -1116 2359 -1248 
Q 2006 -1381 1503 -1381 
Q 903 -1381 589 -1197 
Q 275 -1013 275 -672 
Q 275 -506 387 -345 
Q 500 -184 800 31 
Q 622 91 500 234 
Q 378 378 378 544 
L 872 1100 
Q 378 1331 378 2009 
Q 378 2491 683 2753 
Q 988 3016 1569 3016 
Q 1684 3016 1865 2992 
Q 2047 2969 2144 2938 
L 2834 3284 
L 2944 3150 
L 2509 2700 
Q 2719 2466 2719 2009 
z
M 2591 -397 
Q 2591 -219 2481 -119 
Q 2372 -19 2150 -19 
L 1013 -19 
Q 881 -131 798 -304 
Q 716 -478 716 -628 
Q 716 -897 909 -1014 
Q 1103 -1131 1503 -1131 
Q 2025 -1131 2308 -937 
Q 2591 -744 2591 -397 
z
M 1550 1222 
Q 1891 1222 2033 1417 
Q 2175 1613 2175 2009 
Q 2175 2425 2028 2601 
Q 1881 2778 1556 2778 
Q 1228 2778 1075 2600 
Q 922 2422 922 2009 
Q 922 1597 1072 1409 
Q 1222 1222 1550 1222 
z
" transform="scale(0.015625)"/>
       <path id="LiberationSerif-c" d="M 206 -1363 
L 206 -1100 
Q 559 -897 793 -564 
Q 1028 -231 1137 251 
Q 1247 734 1247 1544 
Q 1247 2363 1142 2819 
Q 1038 3275 813 3617 
Q 588 3959 206 4178 
L 206 4441 
Q 831 4106 1178 3720 
Q 1525 3334 1687 2811 
Q 1850 2288 1850 1544 
Q 1850 800 1687 273 
Q 1525 -253 1178 -640 
Q 831 -1028 206 -1363 
z
" transform="scale(0.015625)"/>
      </defs>
      <use xlink:href="#LiberationSerif-2f"/>
      <use xlink:href="#LiberationSerif-37" transform="translate(51.90625 0)"/>
      <use xlink:href="#LiberationSerif-39" transform="translate(112.984375 0)"/>
      <use xlink:href="#LiberationSerif-3" transform="translate(183.390625 0)"/>
      <use xlink:href="#LiberationSerif-b" transform="translate(208.390625 0)"/>
      <use xlink:href="#LiberationSerif-50" transform="translate(241.6875 0)"/>
      <use xlink:href="#LiberationSerif-44" transform="translate(319.46875 0)"/>
      <use xlink:href="#LiberationSerif-55" transform="translate(363.859375 0)"/>
      <use xlink:href="#LiberationSerif-4a" transform="translate(395.34375 0)"/>
      <use xlink:href="#LiberationSerif-48" transform="translate(445.34375 0)"/>
      <use xlink:href="#LiberationSerif-50" transform="translate(489.734375 0)"/>
      <use xlink:href="#LiberationSerif-c" transform="translate(567.515625 0)"/>
     </g>
    </g>
    <g id="patch_10">
     <path d="M 281.859531 21.6 
L 299.859531 21.6 
L 299.859531 15.3 
L 281.859531 15.3 
z
" style="fill: #e3120b"/>
    </g>
    <g id="text_15">
     <!-- CAC alvo -->
     <g transform="translate(307.059531 21.6) scale(0.09 -0.09)">
      <defs>
       <path id="LiberationSerif-24" d="M 1441 166 
L 1441 0 
L 63 0 
L 63 166 
L 538 250 
L 1966 4225 
L 2559 4225 
L 4044 250 
L 4575 166 
L 4575 0 
L 2803 0 
L 2803 166 
L 3366 250 
L 2950 1459 
L 1300 1459 
L 878 250 
L 1441 166 
z
M 2113 3775 
L 1394 1741 
L 2853 1741 
L 2113 3775 
z
" transform="scale(0.015625)"/>
       <path id="LiberationSerif-4f" d="M 1147 219 
L 1650 141 
L 1650 0 
L 128 0 
L 128 141 
L 628 219 
L 628 4225 
L 128 4300 
L 128 4441 
L 1147 4441 
L 1147 219 
z
" transform="scale(0.015625)"/>
       <path id="LiberationSerif-59" d="M 1741 -63 
L 1509 -63 
L 300 2719 
L 0 2797 
L 0 2938 
L 1369 2938 
L 1369 2797 
L 903 2713 
L 1759 684 
L 2578 2719 
L 2113 2797 
L 2113 2938 
L 3200 2938 
L 3200 2797 
L 2919 2731 
L 1741 -63 
z
" transform="scale(0.015625)"/>
      </defs>
      <use xlink:href="#LiberationSerif-26"/>
      <use xlink:href="#LiberationSerif-24" transform="translate(66.703125 0)"/>
      <use xlink:href="#LiberationSerif-26" transform="translate(138.921875 0)"/>
      <use xlink:href="#LiberationSerif-3" transform="translate(205.625 0)"/>
      <use xlink:href="#LiberationSerif-44" transform="translate(230.625 0)"/>
      <use xlink:href="#LiberationSerif-4f" transform="translate(275.015625 0)"/>
      <use xlink:href="#LiberationSerif-59" transform="translate(302.796875 0)"/>
      <use xlink:href="#LiberationSerif-52" transform="translate(352.796875 0)"/>
     </g>
    </g>
   </g>
  </g>
 </g>
 <defs>
  <clipPath id="pe7de7660d6">
   <rect x="39.098828" y="7.2" width="449.7" height="181.54"/>
  </clipPath>
 </defs>
</svg>
